M48
METRIC,LZ,000.000
;FILE_FORMAT=3:3
;TYPE=PLATED
;Layer: PTH_Through
;EasyEDA v6.5.9, 2022-07-29 15:52:37
;80419b3afb544e71809359e13b9e66d5,1d0123f043c44c6e98dfa3af7fe3442e,10
;Gerber Generator version 0.2
;Holesize 1 = 0.305 mm
T01C0.305
;Holesize 2 = 0.889 mm
T02C0.889
;Holesize 3 = 0.915 mm
T03C0.915
;Holesize 4 = 1.000 mm
T04C1.000
;Holesize 5 = 1.016 mm
T05C1.016
;Holesize 6 = 1.050 mm
T06C1.050
;Holesize 7 = 1.101 mm
T07C1.101
;Holesize 8 = 1.199 mm
T08C1.199
;Holesize 9 = 1.321 mm
T09C1.321
;Holesize 10 = 1.501 mm
T10C1.501
;Holesize 11 = 2.749 mm
T11C2.749
%
G05
G90
T01
X014605Y142494
X012192Y189031
X011938Y130429
X011811Y175006
X098679Y002921
X106426Y002921
X038989Y150876
X035052Y152781
X072427Y156667
X072427Y154483
X072427Y152298
X072431Y150114
X072431Y147930
X072447Y145745
X089408Y146050
X089916Y116205
X090043Y084455
X090043Y054737
X090043Y025400
X089154Y171577
X089154Y169672
X089154Y167640
X073660Y124460
X073660Y127000
X073660Y129540
X073660Y132080
X072263Y172720
X074930Y172720
X072263Y170053
X064262Y136271
X113157Y132715
X113157Y102715
X113157Y070715
X113157Y040715
X109601Y157607
X096266Y133223
X096266Y103223
X096266Y071223
X096266Y041223
X094615Y158369
X041148Y015240
X071763Y019566
T02
X019685Y031623
X022225Y031623
X024765Y031623
X027305Y031623
X029845Y031623
X032385Y031623
X058166Y172339
X058166Y169799
X055626Y172339
X055626Y169799
X053086Y172339
X053086Y169799
X017000Y163650
X017000Y166190
X017000Y168730
X017000Y171270
X017000Y173810
X017000Y176350
X017000Y156350
X017000Y153810
X017000Y151270
X017000Y148730
X017000Y146190
X017000Y143650
X030480Y013716
X027940Y013716
X025400Y013716
X022860Y013716
X067310Y014224
X064770Y014224
X062230Y014224
X059690Y014224
X030480Y006604
X027940Y006604
X025400Y006604
X022860Y006604
X052705Y009906
X050165Y009906
X047625Y009906
X045085Y009906
X042545Y009906
X040005Y009906
X037465Y009906
X034925Y009906
T03
X012270Y185675
X009730Y184405
X012270Y183135
X009730Y181865
X012270Y180595
X009730Y179325
X012270Y170675
X009730Y169405
X012270Y168135
X009730Y166865
X012270Y165595
X009730Y164325
X012270Y155675
X009730Y154405
X012270Y153135
X009730Y151865
X012270Y150595
X009730Y149325
X012270Y140675
X009730Y139405
X012270Y138135
X009730Y136865
X012270Y135595
X009730Y134325
T04
X101500Y055430G85X101500Y055930
X103500Y061550
X103500Y049550
X115700Y061550
X115748Y049584
X101500Y025430G85X101500Y025930
X103500Y031550
X103500Y019550
X115700Y031550
X115748Y019584
X101500Y167430G85X101500Y167930
X103500Y173550
X103500Y161550
X115700Y173550
X115748Y161584
X101500Y147430G85X101500Y147930
X103500Y153550
X103500Y141550
X115700Y153550
X115748Y141584
X101500Y117430G85X101500Y117930
X103500Y123550
X103500Y111550
X115700Y123550
X115748Y111584
X101500Y085430G85X101500Y085930
X103500Y091550
X103500Y079550
X115700Y091550
X115748Y079584
X027051Y143510G85X027051Y143510
X029591Y143510G85X029591Y143510
X032131Y143510G85X032131Y143510
X034671Y143510G85X034671Y143510
X037211Y143510G85X037211Y143510
X039751Y143510G85X039751Y143510
X042291Y143510G85X042291Y143510
X044831Y143510G85X044831Y143510
X047371Y143510G85X047371Y143510
X049911Y143510G85X049911Y143510
X052451Y143510G85X052451Y143510
X054991Y143510G85X054991Y143510
X027051Y158750G85X027051Y158750
X029591Y158750G85X029591Y158750
X032131Y158750G85X032131Y158750
X034671Y158750G85X034671Y158750
X037211Y158750G85X037211Y158750
X039751Y158750G85X039751Y158750
X044831Y158750G85X044831Y158750
X047371Y158750G85X047371Y158750
X052451Y158750G85X052451Y158750
X054991Y158750G85X054991Y158750
X049911Y158750G85X049911Y158750
X042291Y158750G85X042291Y158750
X057531Y143510G85X057531Y143510
X060071Y143510G85X060071Y143510
X062611Y143510G85X062611Y143510
X057531Y158750G85X057531Y158750
X060071Y158750G85X060071Y158750
X062611Y158750G85X062611Y158750
T05
X071763Y026268
X069223Y026268
X066683Y026268
X064143Y026268
X061603Y026268
X059063Y026268
X071763Y023728
X069223Y023728
X066683Y023728
X064143Y023728
X061603Y023728
X059063Y023728
X056523Y026268
X056523Y023728
X053983Y026268
X051443Y026268
X048903Y026268
X046363Y026268
X043823Y026268
X041283Y026268
X053983Y023728
X051443Y023728
X048903Y023728
X046362Y023729
X043823Y023728
X041283Y023728
X038743Y026268
X038743Y023728
X036203Y026268
X033663Y026268
X031123Y026268
X028583Y026268
X026043Y026268
X023503Y026268
X036203Y023728
X033663Y023728
X031123Y023728
X028583Y023728
X026043Y023728
X023503Y023728
T06
X080645Y172593
X083185Y172593
X085725Y172593
X080645Y170053
X083185Y170053
X085725Y170053
X080645Y167513
X083185Y167513
X085725Y167513
X080645Y164973
X083185Y164973
X085725Y164973
X080645Y162433
X083185Y162433
X085725Y162433
X080645Y159893
X083185Y159893
X085725Y159893
T07
X138000Y175000
X138000Y180080
X138000Y185160
X138000Y190240
X138000Y195320
X138000Y145000
X138000Y150080
X138000Y155160
X138000Y160240
X138000Y165320
X138000Y115000
X138000Y120080
X138000Y125160
X138000Y130240
X138000Y135320
X138000Y083000
X138000Y088080
X138000Y093160
X138000Y098240
X138000Y103320
X138000Y053000
X138000Y058080
X138000Y063160
X138000Y068240
X138000Y073320
X138000Y023000
X138000Y028080
X138000Y033160
X138000Y038240
X138000Y043320
T08
X062357Y130429
X058852Y130429
X055347Y130429
X051867Y130429
X048362Y130429
X044856Y130429
X041351Y130429
X037846Y130429
T09
X112014Y213200
X112014Y203200
X111978Y193200
T10
X028432Y182825
X028432Y191825
X089932Y182825
X089932Y188325
T11
X076640Y073995
X018652Y073995
X018652Y024998
X076640Y024998
X076640Y048000
X018652Y048000
M30
