M48
METRIC,LZ,000.000
;FILE_FORMAT=3:3
;TYPE=NON_PLATED
;Layer: NPTH_Through
;EasyEDA v6.5.9, 2022-07-29 15:52:37
;80419b3afb544e71809359e13b9e66d5,1d0123f043c44c6e98dfa3af7fe3442e,10
;Gerber Generator version 0.2
;Holesize 1 = 3.000 mm
T01C3.000
;Holesize 2 = 3.200 mm
T02C3.200
;Holesize 3 = 3.250 mm
T03C3.250
%
G05
G90
T01
X059137Y009906
X099137Y009906
X016637Y009906
X059137Y207906
X099137Y207906
X006387Y108906
X016637Y207906
T02
X003000Y195000
X015000Y195000
X003000Y125000
X015000Y125000
X060000Y085000
X060000Y115000
X020000Y115000
X020000Y085000
T03
X003380Y187580
X003380Y177420
X003380Y172580
X003380Y162420
X003380Y157580
X003380Y147420
X003380Y142580
X003380Y132420
M30
