G04 Layer: TopPasteMaskLayer*
G04 EasyEDA v6.5.9, 2022-07-29 15:52:37*
G04 80419b3afb544e71809359e13b9e66d5,1d0123f043c44c6e98dfa3af7fe3442e,10*
G04 Gerber Generator version 0.2*
G04 Scale: 100 percent, Rotated: No, Reflected: No *
G04 Dimensions in millimeters *
G04 leading zeros omitted , absolute positions ,4 integer and 5 decimal *
%FSLAX45Y45*%
%MOMM*%

%ADD10R,1.3995X1.3005*%
%ADD11R,1.1801X1.1999*%

%LPD*%
G36*
X9479889Y17424044D02*
G01*
X9474911Y17419066D01*
X9474911Y17291050D01*
X9479889Y17286071D01*
X9594900Y17286071D01*
X9599879Y17291050D01*
X9599371Y17333061D01*
X9555378Y17333061D01*
X9555378Y17378070D01*
X9600387Y17378070D01*
X9599879Y17419066D01*
X9594900Y17424044D01*
G37*
G36*
X9694875Y17424044D02*
G01*
X9689896Y17419066D01*
X9690404Y17378070D01*
X9734397Y17378070D01*
X9734397Y17333061D01*
X9689896Y17333061D01*
X9689896Y17291050D01*
X9694875Y17286071D01*
X9809886Y17286071D01*
X9814864Y17291050D01*
X9814864Y17419066D01*
X9809886Y17424044D01*
G37*
G36*
X9479889Y15424048D02*
G01*
X9474911Y15419069D01*
X9474911Y15291054D01*
X9479889Y15286075D01*
X9594900Y15286075D01*
X9599879Y15291054D01*
X9599371Y15333065D01*
X9555378Y15333065D01*
X9555378Y15378074D01*
X9600387Y15378074D01*
X9599879Y15419069D01*
X9594900Y15424048D01*
G37*
G36*
X9694875Y15424048D02*
G01*
X9689896Y15419069D01*
X9690404Y15378074D01*
X9734397Y15378074D01*
X9734397Y15333065D01*
X9689896Y15333065D01*
X9689896Y15291054D01*
X9694875Y15286075D01*
X9809886Y15286075D01*
X9814864Y15291054D01*
X9814864Y15419069D01*
X9809886Y15424048D01*
G37*
G36*
X9479889Y12424054D02*
G01*
X9474911Y12419076D01*
X9474911Y12291060D01*
X9479889Y12286081D01*
X9594900Y12286081D01*
X9599879Y12291060D01*
X9599371Y12333071D01*
X9555378Y12333071D01*
X9555378Y12378080D01*
X9600387Y12378080D01*
X9599879Y12419076D01*
X9594900Y12424054D01*
G37*
G36*
X9694875Y12424054D02*
G01*
X9689896Y12419076D01*
X9690404Y12378080D01*
X9734397Y12378080D01*
X9734397Y12333071D01*
X9689896Y12333071D01*
X9689896Y12291060D01*
X9694875Y12286081D01*
X9809886Y12286081D01*
X9814864Y12291060D01*
X9814864Y12419076D01*
X9809886Y12424054D01*
G37*
G36*
X9479889Y9223908D02*
G01*
X9474911Y9218930D01*
X9474911Y9090914D01*
X9479889Y9085935D01*
X9594900Y9085935D01*
X9599879Y9090914D01*
X9599371Y9132925D01*
X9555378Y9132925D01*
X9555378Y9177934D01*
X9600387Y9177934D01*
X9599879Y9218930D01*
X9594900Y9223908D01*
G37*
G36*
X9694875Y9223908D02*
G01*
X9689896Y9218930D01*
X9690404Y9177934D01*
X9734397Y9177934D01*
X9734397Y9132925D01*
X9689896Y9132925D01*
X9689896Y9090914D01*
X9694875Y9085935D01*
X9809886Y9085935D01*
X9814864Y9090914D01*
X9814864Y9218930D01*
X9809886Y9223908D01*
G37*
G36*
X9479889Y6223914D02*
G01*
X9474911Y6218936D01*
X9474911Y6090920D01*
X9479889Y6085941D01*
X9594900Y6085941D01*
X9599879Y6090920D01*
X9599371Y6132931D01*
X9555378Y6132931D01*
X9555378Y6177940D01*
X9600387Y6177940D01*
X9599879Y6218936D01*
X9594900Y6223914D01*
G37*
G36*
X9694875Y6223914D02*
G01*
X9689896Y6218936D01*
X9690404Y6177940D01*
X9734397Y6177940D01*
X9734397Y6132931D01*
X9689896Y6132931D01*
X9689896Y6090920D01*
X9694875Y6085941D01*
X9809886Y6085941D01*
X9814864Y6090920D01*
X9814864Y6218936D01*
X9809886Y6223914D01*
G37*
G36*
X9479889Y3223920D02*
G01*
X9474911Y3218942D01*
X9474911Y3090926D01*
X9479889Y3085947D01*
X9594900Y3085947D01*
X9599879Y3090926D01*
X9599371Y3132937D01*
X9555378Y3132937D01*
X9555378Y3177946D01*
X9600387Y3177946D01*
X9599879Y3218942D01*
X9594900Y3223920D01*
G37*
G36*
X9694875Y3223920D02*
G01*
X9689896Y3218942D01*
X9690404Y3177946D01*
X9734397Y3177946D01*
X9734397Y3132937D01*
X9689896Y3132937D01*
X9689896Y3090926D01*
X9694875Y3085947D01*
X9809886Y3085947D01*
X9814864Y3090926D01*
X9814864Y3218942D01*
X9809886Y3223920D01*
G37*
D10*
G01*
X9549993Y14873020D03*
G01*
X9549993Y14662962D03*
G01*
X9549993Y11873026D03*
G01*
X9549993Y11662968D03*
G01*
X9549993Y8673033D03*
G01*
X9549993Y8462975D03*
G01*
X9549993Y5673039D03*
G01*
X9549993Y5462981D03*
G01*
X9549993Y2673019D03*
G01*
X9549993Y2462961D03*
G01*
X9549993Y16873016D03*
G01*
X9549993Y16662958D03*
D11*
G01*
X10130790Y292100D03*
G01*
X10290809Y292100D03*
M02*
