G04 Layer: TopSolderMaskLayer*
G04 EasyEDA v6.5.9, 2022-07-29 15:52:37*
G04 80419b3afb544e71809359e13b9e66d5,1d0123f043c44c6e98dfa3af7fe3442e,10*
G04 Gerber Generator version 0.2*
G04 Scale: 100 percent, Rotated: No, Reflected: No *
G04 Dimensions in millimeters *
G04 leading zeros omitted , absolute positions ,4 integer and 5 decimal *
%FSLAX45Y45*%
%MOMM*%

%ADD10C,3.2032*%
%ADD11C,1.6764*%
%ADD12C,2.6416*%
%ADD13C,1.9766*%
%ADD14C,2.7032*%
%ADD15C,2.6016*%
%ADD16C,1.6256*%
%ADD17C,6.3017*%
%ADD18C,2.1336*%
%ADD19C,1.6096*%
%ADD20C,2.6000*%
%ADD21C,0.0122*%

%LPD*%
D10*
X10150017Y5568010D02*
G01*
X10150017Y5568010D01*
X10150017Y2567990D02*
G01*
X10150017Y2567990D01*
X10150017Y16767987D02*
G01*
X10150017Y16767987D01*
X10150017Y14767991D02*
G01*
X10150017Y14767991D01*
X10150017Y11767997D02*
G01*
X10150017Y11767997D01*
X10150017Y8568004D02*
G01*
X10150017Y8568004D01*
D11*
G01*
X1968500Y3162300D03*
G01*
X2222500Y3162300D03*
G01*
X2476500Y3162300D03*
G01*
X2730500Y3162300D03*
G01*
X2984500Y3162300D03*
G36*
X3154679Y3078479D02*
G01*
X3154679Y3246120D01*
X3322320Y3246120D01*
X3322320Y3078479D01*
G37*
D12*
G01*
X11201400Y21319998D03*
G01*
X11201400Y20320000D03*
G01*
X11197793Y19320002D03*
G36*
X9679686Y17281144D02*
G01*
X9679686Y17428971D01*
X9803129Y17428971D01*
X9803129Y17281144D01*
G37*
G36*
X9486645Y17281144D02*
G01*
X9486645Y17428971D01*
X9610090Y17428971D01*
X9610090Y17281144D01*
G37*
G36*
X9679686Y15281147D02*
G01*
X9679686Y15428976D01*
X9803129Y15428976D01*
X9803129Y15281147D01*
G37*
G36*
X9486645Y15281147D02*
G01*
X9486645Y15428976D01*
X9610090Y15428976D01*
X9610090Y15281147D01*
G37*
G36*
X9679686Y12281154D02*
G01*
X9679686Y12428981D01*
X9803129Y12428981D01*
X9803129Y12281154D01*
G37*
G36*
X9486645Y12281154D02*
G01*
X9486645Y12428981D01*
X9610090Y12428981D01*
X9610090Y12281154D01*
G37*
G36*
X9679686Y9081008D02*
G01*
X9679686Y9228836D01*
X9803129Y9228836D01*
X9803129Y9081008D01*
G37*
G36*
X9486645Y9081008D02*
G01*
X9486645Y9228836D01*
X9610090Y9228836D01*
X9610090Y9081008D01*
G37*
G36*
X9679686Y6081013D02*
G01*
X9679686Y6228842D01*
X9803129Y6228842D01*
X9803129Y6081013D01*
G37*
G36*
X9486645Y6081013D02*
G01*
X9486645Y6228842D01*
X9610090Y6228842D01*
X9610090Y6081013D01*
G37*
G36*
X9679686Y3081020D02*
G01*
X9679686Y3228847D01*
X9803129Y3228847D01*
X9803129Y3081020D01*
G37*
G36*
X9486645Y3081020D02*
G01*
X9486645Y3228847D01*
X9610090Y3228847D01*
X9610090Y3081020D01*
G37*
D11*
G01*
X5816600Y17233900D03*
G01*
X5816600Y16979900D03*
G01*
X5562600Y17233900D03*
G01*
X5562600Y16979900D03*
G01*
X5308600Y17233900D03*
G36*
X5224779Y16896079D02*
G01*
X5224779Y17063720D01*
X5392420Y17063720D01*
X5392420Y16896079D01*
G37*
G36*
X7965693Y17179289D02*
G01*
X7965693Y17339310D01*
X8163306Y17339310D01*
X8163306Y17179289D01*
G37*
D13*
G01*
X8318500Y17259300D03*
G01*
X8572500Y17259300D03*
G36*
X7965693Y16925289D02*
G01*
X7965693Y17085310D01*
X8163306Y17085310D01*
X8163306Y16925289D01*
G37*
G01*
X8318500Y17005300D03*
G01*
X8572500Y17005300D03*
G36*
X7965693Y16671289D02*
G01*
X7965693Y16831310D01*
X8163306Y16831310D01*
X8163306Y16671289D01*
G37*
G01*
X8318500Y16751300D03*
G01*
X8572500Y16751300D03*
G36*
X7965693Y16417289D02*
G01*
X7965693Y16577310D01*
X8163306Y16577310D01*
X8163306Y16417289D01*
G37*
G01*
X8318500Y16497300D03*
G01*
X8572500Y16497300D03*
G36*
X7965693Y16163289D02*
G01*
X7965693Y16323310D01*
X8163306Y16323310D01*
X8163306Y16163289D01*
G37*
G01*
X8318500Y16243300D03*
G01*
X8572500Y16243300D03*
G36*
X7965693Y15909289D02*
G01*
X7965693Y16069310D01*
X8163306Y16069310D01*
X8163306Y15909289D01*
G37*
G01*
X8318500Y15989300D03*
G01*
X8572500Y15989300D03*
G36*
X9474961Y14802866D02*
G01*
X9474961Y14943074D01*
X9625075Y14943074D01*
X9625075Y14802866D01*
G37*
G36*
X9474961Y14592807D02*
G01*
X9474961Y14733016D01*
X9625075Y14733016D01*
X9625075Y14592807D01*
G37*
G36*
X9474961Y11802871D02*
G01*
X9474961Y11943079D01*
X9625075Y11943079D01*
X9625075Y11802871D01*
G37*
G36*
X9474961Y11592813D02*
G01*
X9474961Y11733021D01*
X9625075Y11733021D01*
X9625075Y11592813D01*
G37*
G36*
X9474961Y8602979D02*
G01*
X9474961Y8743187D01*
X9625075Y8743187D01*
X9625075Y8602979D01*
G37*
G36*
X9474961Y8392921D02*
G01*
X9474961Y8533129D01*
X9625075Y8533129D01*
X9625075Y8392921D01*
G37*
G36*
X9474961Y5602986D02*
G01*
X9474961Y5743194D01*
X9625075Y5743194D01*
X9625075Y5602986D01*
G37*
G36*
X9474961Y5392928D02*
G01*
X9474961Y5533136D01*
X9625075Y5533136D01*
X9625075Y5392928D01*
G37*
G36*
X9474961Y2602992D02*
G01*
X9474961Y2743200D01*
X9625075Y2743200D01*
X9625075Y2602992D01*
G37*
G36*
X9474961Y2392934D02*
G01*
X9474961Y2533142D01*
X9625075Y2533142D01*
X9625075Y2392934D01*
G37*
G36*
X9474961Y16802862D02*
G01*
X9474961Y16943070D01*
X9625075Y16943070D01*
X9625075Y16802862D01*
G37*
G36*
X9474961Y16592804D02*
G01*
X9474961Y16733012D01*
X9625075Y16733012D01*
X9625075Y16592804D01*
G37*
D14*
G01*
X10350017Y6155004D03*
G01*
X10350017Y4955006D03*
D10*
G01*
X11570004Y6155004D03*
G01*
X11574805Y4958410D03*
D14*
G01*
X10350017Y3154984D03*
G01*
X10350017Y1954987D03*
D10*
G01*
X11570004Y3154984D03*
G01*
X11574805Y1958390D03*
D15*
G01*
X13799997Y17499990D03*
G01*
X13799997Y18007990D03*
G01*
X13799997Y18515990D03*
G01*
X13799997Y19023990D03*
G01*
X13799997Y19531990D03*
G01*
X13799997Y14499996D03*
G01*
X13799997Y15007996D03*
G01*
X13799997Y15515996D03*
G01*
X13799997Y16023996D03*
G01*
X13799997Y16531996D03*
G01*
X13799997Y11500002D03*
G01*
X13799997Y12008002D03*
G01*
X13799997Y12516002D03*
G01*
X13799997Y13024002D03*
G01*
X13799997Y13532002D03*
G01*
X13799997Y8300008D03*
G01*
X13799997Y8808008D03*
G01*
X13799997Y9316008D03*
G01*
X13799997Y9824008D03*
G01*
X13799997Y10332008D03*
G01*
X13799997Y5299989D03*
G01*
X13799997Y5807989D03*
G01*
X13799997Y6315989D03*
G01*
X13799997Y6823989D03*
G01*
X13799997Y7331989D03*
G01*
X13799997Y2299995D03*
G01*
X13799997Y2807995D03*
G01*
X13799997Y3315995D03*
G01*
X13799997Y3823995D03*
G01*
X13799997Y4331995D03*
D11*
G01*
X1699996Y16364991D03*
G01*
X1699996Y16618991D03*
G01*
X1699996Y16872991D03*
G01*
X1699996Y17126991D03*
G01*
X1699996Y17380991D03*
G36*
X1616202Y17551145D02*
G01*
X1616202Y17718786D01*
X1783842Y17718786D01*
X1783842Y17551145D01*
G37*
G01*
X1699996Y15634995D03*
G01*
X1699996Y15380995D03*
G01*
X1699996Y15126995D03*
G01*
X1699996Y14872995D03*
G01*
X1699996Y14618995D03*
G36*
X1616202Y14281150D02*
G01*
X1616202Y14448789D01*
X1783842Y14448789D01*
X1783842Y14281150D01*
G37*
D16*
G01*
X1226997Y18567501D03*
G01*
X972997Y18440501D03*
G01*
X1226997Y18313501D03*
G01*
X972997Y18186501D03*
G01*
X1226997Y18059501D03*
G01*
X972997Y17932501D03*
G01*
X1226997Y17067504D03*
G01*
X972997Y16940504D03*
G01*
X1226997Y16813504D03*
G01*
X972997Y16686504D03*
G01*
X1226997Y16559504D03*
G01*
X972997Y16432504D03*
G01*
X1226997Y15567507D03*
G01*
X972997Y15440507D03*
G01*
X1226997Y15313507D03*
G01*
X972997Y15186507D03*
G01*
X1226997Y15059507D03*
G01*
X972997Y14932507D03*
G01*
X1226997Y14067510D03*
G01*
X972997Y13940510D03*
G01*
X1226997Y13813510D03*
G01*
X972997Y13686510D03*
G01*
X1226997Y13559510D03*
G01*
X972997Y13432510D03*
D17*
G01*
X7663992Y7399477D03*
G01*
X1865172Y7399477D03*
G01*
X1865172Y2499817D03*
G01*
X7663992Y2499817D03*
G36*
X7096252Y2546857D02*
G01*
X7096252Y2706878D01*
X7256272Y2706878D01*
X7256272Y2546857D01*
G37*
G36*
X6842252Y2546857D02*
G01*
X6842252Y2706878D01*
X7002272Y2706878D01*
X7002272Y2546857D01*
G37*
G36*
X6588252Y2546857D02*
G01*
X6588252Y2706878D01*
X6748272Y2706878D01*
X6748272Y2546857D01*
G37*
G36*
X6334252Y2546857D02*
G01*
X6334252Y2706878D01*
X6494272Y2706878D01*
X6494272Y2546857D01*
G37*
G36*
X6080252Y2546857D02*
G01*
X6080252Y2706878D01*
X6240272Y2706878D01*
X6240272Y2546857D01*
G37*
G36*
X5826252Y2546857D02*
G01*
X5826252Y2706878D01*
X5986272Y2706878D01*
X5986272Y2546857D01*
G37*
G36*
X7096252Y2292857D02*
G01*
X7096252Y2452878D01*
X7256272Y2452878D01*
X7256272Y2292857D01*
G37*
G36*
X6842252Y2292857D02*
G01*
X6842252Y2452878D01*
X7002272Y2452878D01*
X7002272Y2292857D01*
G37*
G36*
X6588252Y2292857D02*
G01*
X6588252Y2452878D01*
X6748272Y2452878D01*
X6748272Y2292857D01*
G37*
G36*
X6334252Y2292857D02*
G01*
X6334252Y2452878D01*
X6494272Y2452878D01*
X6494272Y2292857D01*
G37*
G36*
X6080252Y2292857D02*
G01*
X6080252Y2452878D01*
X6240272Y2452878D01*
X6240272Y2292857D01*
G37*
G36*
X5826252Y2292857D02*
G01*
X5826252Y2452878D01*
X5986272Y2452878D01*
X5986272Y2292857D01*
G37*
G36*
X5572252Y2546857D02*
G01*
X5572252Y2706878D01*
X5732272Y2706878D01*
X5732272Y2546857D01*
G37*
G36*
X5572252Y2292857D02*
G01*
X5572252Y2452878D01*
X5732272Y2452878D01*
X5732272Y2292857D01*
G37*
G36*
X5318252Y2546857D02*
G01*
X5318252Y2706878D01*
X5478272Y2706878D01*
X5478272Y2546857D01*
G37*
G36*
X5064252Y2546857D02*
G01*
X5064252Y2706878D01*
X5224272Y2706878D01*
X5224272Y2546857D01*
G37*
G36*
X4810252Y2546857D02*
G01*
X4810252Y2706878D01*
X4970272Y2706878D01*
X4970272Y2546857D01*
G37*
G36*
X4556252Y2546857D02*
G01*
X4556252Y2706878D01*
X4716272Y2706878D01*
X4716272Y2546857D01*
G37*
G36*
X4302252Y2546857D02*
G01*
X4302252Y2706878D01*
X4462272Y2706878D01*
X4462272Y2546857D01*
G37*
G36*
X4048252Y2546857D02*
G01*
X4048252Y2706878D01*
X4208272Y2706878D01*
X4208272Y2546857D01*
G37*
G36*
X5318252Y2292857D02*
G01*
X5318252Y2452878D01*
X5478272Y2452878D01*
X5478272Y2292857D01*
G37*
G36*
X5064252Y2292857D02*
G01*
X5064252Y2452878D01*
X5224272Y2452878D01*
X5224272Y2292857D01*
G37*
G36*
X4810252Y2292857D02*
G01*
X4810252Y2452878D01*
X4970272Y2452878D01*
X4970272Y2292857D01*
G37*
G36*
X4556252Y2292857D02*
G01*
X4556252Y2452878D01*
X4716272Y2452878D01*
X4716272Y2292857D01*
G37*
G36*
X4302252Y2292857D02*
G01*
X4302252Y2452878D01*
X4462272Y2452878D01*
X4462272Y2292857D01*
G37*
G36*
X4048252Y2292857D02*
G01*
X4048252Y2452878D01*
X4208272Y2452878D01*
X4208272Y2292857D01*
G37*
G36*
X3794252Y2546857D02*
G01*
X3794252Y2706878D01*
X3954272Y2706878D01*
X3954272Y2546857D01*
G37*
G36*
X3794252Y2292857D02*
G01*
X3794252Y2452878D01*
X3954272Y2452878D01*
X3954272Y2292857D01*
G37*
G36*
X3540252Y2546857D02*
G01*
X3540252Y2706878D01*
X3700272Y2706878D01*
X3700272Y2546857D01*
G37*
G36*
X3286252Y2546857D02*
G01*
X3286252Y2706878D01*
X3446272Y2706878D01*
X3446272Y2546857D01*
G37*
G36*
X3032252Y2546857D02*
G01*
X3032252Y2706878D01*
X3192272Y2706878D01*
X3192272Y2546857D01*
G37*
G36*
X2778252Y2546857D02*
G01*
X2778252Y2706878D01*
X2938272Y2706878D01*
X2938272Y2546857D01*
G37*
G36*
X2524252Y2546857D02*
G01*
X2524252Y2706878D01*
X2684272Y2706878D01*
X2684272Y2546857D01*
G37*
G36*
X2270252Y2546857D02*
G01*
X2270252Y2706878D01*
X2430272Y2706878D01*
X2430272Y2546857D01*
G37*
G36*
X3540252Y2292857D02*
G01*
X3540252Y2452878D01*
X3700272Y2452878D01*
X3700272Y2292857D01*
G37*
G36*
X3286252Y2292857D02*
G01*
X3286252Y2452878D01*
X3446272Y2452878D01*
X3446272Y2292857D01*
G37*
G36*
X3032252Y2292857D02*
G01*
X3032252Y2452878D01*
X3192272Y2452878D01*
X3192272Y2292857D01*
G37*
G36*
X2778252Y2292857D02*
G01*
X2778252Y2452878D01*
X2938272Y2452878D01*
X2938272Y2292857D01*
G37*
G36*
X2524252Y2292857D02*
G01*
X2524252Y2452878D01*
X2684272Y2452878D01*
X2684272Y2292857D01*
G37*
G36*
X2270252Y2292857D02*
G01*
X2270252Y2452878D01*
X2430272Y2452878D01*
X2430272Y2292857D01*
G37*
G36*
X6129020Y12936220D02*
G01*
X6129020Y13149579D01*
X6342379Y13149579D01*
X6342379Y12936220D01*
G37*
D18*
G01*
X5885179Y13042900D03*
G01*
X5534659Y13042900D03*
G01*
X5186679Y13042900D03*
G01*
X4836159Y13042900D03*
G01*
X4485640Y13042900D03*
G01*
X4135120Y13042900D03*
G01*
X3784600Y13042900D03*
G36*
X2964179Y1287779D02*
G01*
X2964179Y1455420D01*
X3131820Y1455420D01*
X3131820Y1287779D01*
G37*
D11*
G01*
X2794000Y1371600D03*
G01*
X2540000Y1371600D03*
G01*
X2286000Y1371600D03*
G36*
X6647179Y1338579D02*
G01*
X6647179Y1506220D01*
X6814820Y1506220D01*
X6814820Y1338579D01*
G37*
G01*
X6477000Y1422400D03*
G01*
X6223000Y1422400D03*
G01*
X5969000Y1422400D03*
G36*
X2964179Y576579D02*
G01*
X2964179Y744220D01*
X3131820Y744220D01*
X3131820Y576579D01*
G37*
G01*
X2794000Y660400D03*
G01*
X2540000Y660400D03*
G01*
X2286000Y660400D03*
G36*
X5186679Y906779D02*
G01*
X5186679Y1074420D01*
X5354320Y1074420D01*
X5354320Y906779D01*
G37*
G01*
X5016500Y990600D03*
G01*
X4762500Y990600D03*
G01*
X4508500Y990600D03*
G01*
X4254500Y990600D03*
G01*
X4000500Y990600D03*
G01*
X3746500Y990600D03*
G01*
X3492500Y990600D03*
D14*
G01*
X10350017Y17354981D03*
G01*
X10350017Y16154984D03*
D10*
G01*
X11570004Y17354981D03*
G01*
X11574805Y16158387D03*
D14*
G01*
X10350017Y15354985D03*
G01*
X10350017Y14154988D03*
D10*
G01*
X11570004Y15354985D03*
G01*
X11574805Y14158391D03*
D14*
G01*
X10350017Y12354991D03*
G01*
X10350017Y11154994D03*
D10*
G01*
X11570004Y12354991D03*
G01*
X11574805Y11158397D03*
D14*
G01*
X10350017Y9154998D03*
G01*
X10350017Y7955000D03*
D10*
G01*
X11570004Y9154998D03*
G01*
X11574805Y7958404D03*
G36*
X2624581Y14270481D02*
G01*
X2624581Y14431518D01*
X2785618Y14431518D01*
X2785618Y14270481D01*
G37*
D19*
G01*
X2959100Y14351000D03*
G01*
X3213100Y14351000D03*
G01*
X3467100Y14351000D03*
G01*
X3721100Y14351000D03*
G01*
X3975100Y14351000D03*
G01*
X4229100Y14351000D03*
G01*
X4483100Y14351000D03*
G01*
X4737100Y14351000D03*
G01*
X4991100Y14351000D03*
G01*
X5245100Y14351000D03*
G01*
X5499100Y14351000D03*
G01*
X2705100Y15875000D03*
G01*
X2959100Y15875000D03*
G01*
X3213100Y15875000D03*
G01*
X3467100Y15875000D03*
G01*
X3721100Y15875000D03*
G01*
X3975100Y15875000D03*
G01*
X4483100Y15875000D03*
G01*
X4737100Y15875000D03*
G01*
X5245100Y15875000D03*
G01*
X5499100Y15875000D03*
G01*
X4991100Y15875000D03*
G01*
X4229100Y15875000D03*
G01*
X5753100Y14351000D03*
G01*
X6007100Y14351000D03*
G01*
X6261100Y14351000D03*
G01*
X5753100Y15875000D03*
G01*
X6007100Y15875000D03*
G01*
X6261100Y15875000D03*
D20*
G01*
X2843199Y18282488D03*
G01*
X2843199Y19182486D03*
G01*
X8993200Y18282488D03*
G01*
X8993200Y18832474D03*
G36*
X10061702Y221995D02*
G01*
X10061702Y362204D01*
X10199877Y362204D01*
X10199877Y221995D01*
G37*
G36*
X10221722Y221995D02*
G01*
X10221722Y362204D01*
X10359897Y362204D01*
X10359897Y221995D01*
G37*
D17*
G01*
X7663992Y4799990D03*
G01*
X1865172Y4799990D03*
M02*
