G04 Layer: BottomPasteMaskLayer*
G04 EasyEDA v6.5.9, 2022-07-29 15:52:37*
G04 80419b3afb544e71809359e13b9e66d5,1d0123f043c44c6e98dfa3af7fe3442e,10*
G04 Gerber Generator version 0.2*
G04 Scale: 100 percent, Rotated: No, Reflected: No *
G04 Dimensions in millimeters *
G04 leading zeros omitted , absolute positions ,4 integer and 5 decimal *
%FSLAX45Y45*%
%MOMM*%

%ADD10C,0.0001*%

%LPD*%
G36*
X2581859Y943660D02*
G01*
X2525268Y887120D01*
X2525268Y880059D01*
X2581859Y823468D01*
X2588920Y823468D01*
X2645511Y880059D01*
X2645511Y887120D01*
X2628392Y904240D01*
X2602230Y878078D01*
X2578862Y901395D01*
X2605024Y927557D01*
X2588920Y943660D01*
G37*
G36*
X2694279Y1056132D02*
G01*
X2638399Y1000252D01*
X2638399Y993190D01*
X2654554Y977087D01*
X2681427Y1003909D01*
X2704744Y980592D01*
X2677871Y953719D01*
X2694990Y936599D01*
X2702052Y936599D01*
X2757932Y992479D01*
X2757932Y999540D01*
X2701340Y1056132D01*
G37*
G36*
X2465222Y1124508D02*
G01*
X2460193Y1119479D01*
X2460193Y1095298D01*
X2497175Y1095298D01*
X2497175Y1062278D01*
X2460193Y1062278D01*
X2460193Y1039520D01*
X2465222Y1034491D01*
X2545181Y1034491D01*
X2550210Y1039520D01*
X2550210Y1119479D01*
X2545181Y1124508D01*
G37*
G36*
X2306218Y1124508D02*
G01*
X2301189Y1119479D01*
X2301189Y1039520D01*
X2306218Y1034491D01*
X2385212Y1034491D01*
X2390190Y1039520D01*
X2390190Y1062278D01*
X2352192Y1062278D01*
X2352192Y1095298D01*
X2390190Y1095298D01*
X2390190Y1119479D01*
X2385212Y1124508D01*
G37*
G36*
X6944512Y2952699D02*
G01*
X6944512Y2907690D01*
X6899503Y2907690D01*
X6899503Y2951683D01*
X6857492Y2952191D01*
X6852513Y2947212D01*
X6852513Y2832201D01*
X6857492Y2827172D01*
X6985508Y2827172D01*
X6990486Y2832201D01*
X6990486Y2947212D01*
X6985508Y2952191D01*
G37*
G36*
X6857492Y3167176D02*
G01*
X6852513Y3162198D01*
X6852513Y3047187D01*
X6857492Y3042208D01*
X6899503Y3042208D01*
X6899503Y3086709D01*
X6944512Y3086709D01*
X6944512Y3042716D01*
X6985508Y3042208D01*
X6990486Y3047187D01*
X6990486Y3162198D01*
X6985508Y3167176D01*
G37*
G36*
X6690512Y2952699D02*
G01*
X6690512Y2907690D01*
X6645503Y2907690D01*
X6645503Y2951683D01*
X6603492Y2952191D01*
X6598513Y2947212D01*
X6598513Y2832201D01*
X6603492Y2827172D01*
X6731508Y2827172D01*
X6736486Y2832201D01*
X6736486Y2947212D01*
X6731508Y2952191D01*
G37*
G36*
X6603492Y3167176D02*
G01*
X6598513Y3162198D01*
X6598513Y3047187D01*
X6603492Y3042208D01*
X6645503Y3042208D01*
X6645503Y3086709D01*
X6690512Y3086709D01*
X6690512Y3042716D01*
X6731508Y3042208D01*
X6736486Y3047187D01*
X6736486Y3162198D01*
X6731508Y3167176D01*
G37*
G36*
X612444Y17766995D02*
G01*
X607466Y17761966D01*
X607466Y17634000D01*
X612444Y17628971D01*
X727456Y17628971D01*
X732434Y17634000D01*
X732942Y17674996D01*
X687933Y17674996D01*
X687933Y17720005D01*
X731977Y17720005D01*
X732434Y17761966D01*
X727456Y17766995D01*
G37*
G36*
X827430Y17766995D02*
G01*
X822452Y17761966D01*
X822452Y17720005D01*
X866952Y17720005D01*
X866952Y17674996D01*
X822960Y17674996D01*
X822452Y17634000D01*
X827430Y17628971D01*
X942441Y17628971D01*
X947470Y17634000D01*
X947470Y17761966D01*
X942441Y17766995D01*
G37*
G36*
X612444Y16267125D02*
G01*
X607466Y16262096D01*
X607466Y16134130D01*
X612444Y16129101D01*
X727456Y16129101D01*
X732434Y16134130D01*
X732942Y16175126D01*
X687933Y16175126D01*
X687933Y16220135D01*
X731977Y16220135D01*
X732434Y16262096D01*
X727456Y16267125D01*
G37*
G36*
X827430Y16267125D02*
G01*
X822452Y16262096D01*
X822452Y16220135D01*
X866952Y16220135D01*
X866952Y16175126D01*
X822960Y16175126D01*
X822452Y16134130D01*
X827430Y16129101D01*
X942441Y16129101D01*
X947470Y16134130D01*
X947470Y16262096D01*
X942441Y16267125D01*
G37*
G36*
X612444Y14767001D02*
G01*
X607466Y14761972D01*
X607466Y14634006D01*
X612444Y14628977D01*
X727456Y14628977D01*
X732434Y14634006D01*
X732942Y14675002D01*
X687933Y14675002D01*
X687933Y14720011D01*
X731977Y14720011D01*
X732434Y14761972D01*
X727456Y14767001D01*
G37*
G36*
X827430Y14767001D02*
G01*
X822452Y14761972D01*
X822452Y14720011D01*
X866952Y14720011D01*
X866952Y14675002D01*
X822960Y14675002D01*
X822452Y14634006D01*
X827430Y14628977D01*
X942441Y14628977D01*
X947470Y14634006D01*
X947470Y14761972D01*
X942441Y14767001D01*
G37*
G36*
X612444Y13266877D02*
G01*
X607466Y13261848D01*
X607466Y13133882D01*
X612444Y13128853D01*
X727456Y13128853D01*
X732434Y13133882D01*
X732942Y13174878D01*
X687933Y13174878D01*
X687933Y13219887D01*
X731977Y13219887D01*
X732434Y13261848D01*
X727456Y13266877D01*
G37*
G36*
X827430Y13266877D02*
G01*
X822452Y13261848D01*
X822452Y13219887D01*
X866952Y13219887D01*
X866952Y13174878D01*
X822960Y13174878D01*
X822452Y13133882D01*
X827430Y13128853D01*
X942441Y13128853D01*
X947470Y13133882D01*
X947470Y13261848D01*
X942441Y13266877D01*
G37*
G36*
X5992520Y3445306D02*
G01*
X5987491Y3440277D01*
X5987491Y3360318D01*
X5992520Y3355289D01*
X6072479Y3355289D01*
X6077508Y3360318D01*
X6077508Y3440277D01*
X6072479Y3445306D01*
X6048298Y3445306D01*
X6048298Y3408273D01*
X6015278Y3408273D01*
X6015278Y3445306D01*
G37*
G36*
X5992520Y3604310D02*
G01*
X5987491Y3599281D01*
X5987491Y3520287D01*
X5992520Y3515309D01*
X6015278Y3515309D01*
X6015278Y3553307D01*
X6048298Y3553307D01*
X6048298Y3515309D01*
X6072479Y3515309D01*
X6077508Y3520287D01*
X6077508Y3599281D01*
X6072479Y3604310D01*
G37*
G36*
X5995822Y3181908D02*
G01*
X5990793Y3176879D01*
X5990793Y3152698D01*
X6027775Y3152698D01*
X6027775Y3119678D01*
X5990793Y3119678D01*
X5990793Y3096920D01*
X5995822Y3091891D01*
X6075781Y3091891D01*
X6080810Y3096920D01*
X6080810Y3176879D01*
X6075781Y3181908D01*
G37*
G36*
X5836818Y3181908D02*
G01*
X5831789Y3176879D01*
X5831789Y3096920D01*
X5836818Y3091891D01*
X5915812Y3091891D01*
X5920790Y3096920D01*
X5920790Y3119678D01*
X5882792Y3119678D01*
X5882792Y3152698D01*
X5920790Y3152698D01*
X5920790Y3176879D01*
X5915812Y3181908D01*
G37*
G36*
X5194401Y16769486D02*
G01*
X5189372Y16764507D01*
X5189372Y16636492D01*
X5194401Y16631513D01*
X5309412Y16631513D01*
X5314391Y16636492D01*
X5314899Y16677487D01*
X5269890Y16677487D01*
X5269890Y16722496D01*
X5313883Y16722496D01*
X5314391Y16764507D01*
X5309412Y16769486D01*
G37*
G36*
X5409387Y16769486D02*
G01*
X5404408Y16764507D01*
X5404408Y16722496D01*
X5448909Y16722496D01*
X5448909Y16677487D01*
X5404916Y16677487D01*
X5404408Y16636492D01*
X5409387Y16631513D01*
X5524398Y16631513D01*
X5529376Y16636492D01*
X5529376Y16764507D01*
X5524398Y16769486D01*
G37*
G36*
X5194401Y17582286D02*
G01*
X5189372Y17577308D01*
X5189372Y17449292D01*
X5194401Y17444313D01*
X5309412Y17444313D01*
X5314391Y17449292D01*
X5314899Y17490287D01*
X5269890Y17490287D01*
X5269890Y17535296D01*
X5313883Y17535296D01*
X5314391Y17577308D01*
X5309412Y17582286D01*
G37*
G36*
X5409387Y17582286D02*
G01*
X5404408Y17577308D01*
X5404408Y17535296D01*
X5448909Y17535296D01*
X5448909Y17490287D01*
X5404916Y17490287D01*
X5404408Y17449292D01*
X5409387Y17444313D01*
X5524398Y17444313D01*
X5529376Y17449292D01*
X5529376Y17577308D01*
X5524398Y17582286D01*
G37*
G36*
X5600801Y16769486D02*
G01*
X5595772Y16764507D01*
X5595772Y16636492D01*
X5600801Y16631513D01*
X5715812Y16631513D01*
X5720791Y16636492D01*
X5721299Y16677487D01*
X5676290Y16677487D01*
X5676290Y16722496D01*
X5720283Y16722496D01*
X5720791Y16764507D01*
X5715812Y16769486D01*
G37*
G36*
X5815787Y16769486D02*
G01*
X5810808Y16764507D01*
X5810808Y16722496D01*
X5855309Y16722496D01*
X5855309Y16677487D01*
X5811316Y16677487D01*
X5810808Y16636492D01*
X5815787Y16631513D01*
X5930798Y16631513D01*
X5935776Y16636492D01*
X5935776Y16764507D01*
X5930798Y16769486D01*
G37*
G36*
X5600801Y17582286D02*
G01*
X5595772Y17577308D01*
X5595772Y17449292D01*
X5600801Y17444313D01*
X5715812Y17444313D01*
X5720791Y17449292D01*
X5721299Y17490287D01*
X5676290Y17490287D01*
X5676290Y17535296D01*
X5720283Y17535296D01*
X5720791Y17577308D01*
X5715812Y17582286D01*
G37*
G36*
X5815787Y17582286D02*
G01*
X5810808Y17577308D01*
X5810808Y17535296D01*
X5855309Y17535296D01*
X5855309Y17490287D01*
X5811316Y17490287D01*
X5810808Y17449292D01*
X5815787Y17444313D01*
X5930798Y17444313D01*
X5935776Y17449292D01*
X5935776Y17577308D01*
X5930798Y17582286D01*
G37*
G36*
X5398922Y15711728D02*
G01*
X5393893Y15706699D01*
X5393893Y15682518D01*
X5430875Y15682518D01*
X5430875Y15649498D01*
X5393893Y15649498D01*
X5393893Y15626740D01*
X5398922Y15621711D01*
X5478881Y15621711D01*
X5483910Y15626740D01*
X5483910Y15706699D01*
X5478881Y15711728D01*
G37*
G36*
X5239918Y15711728D02*
G01*
X5234889Y15706699D01*
X5234889Y15626740D01*
X5239918Y15621711D01*
X5318912Y15621711D01*
X5323890Y15626740D01*
X5323890Y15649498D01*
X5285892Y15649498D01*
X5285892Y15682518D01*
X5323890Y15682518D01*
X5323890Y15706699D01*
X5318912Y15711728D01*
G37*
G36*
X5398922Y15493288D02*
G01*
X5393893Y15488259D01*
X5393893Y15464078D01*
X5430875Y15464078D01*
X5430875Y15431058D01*
X5393893Y15431058D01*
X5393893Y15408300D01*
X5398922Y15403271D01*
X5478881Y15403271D01*
X5483910Y15408300D01*
X5483910Y15488259D01*
X5478881Y15493288D01*
G37*
G36*
X5239918Y15493288D02*
G01*
X5234889Y15488259D01*
X5234889Y15408300D01*
X5239918Y15403271D01*
X5318912Y15403271D01*
X5323890Y15408300D01*
X5323890Y15431058D01*
X5285892Y15431058D01*
X5285892Y15464078D01*
X5323890Y15464078D01*
X5323890Y15488259D01*
X5318912Y15493288D01*
G37*
G36*
X5398922Y15274848D02*
G01*
X5393893Y15269819D01*
X5393893Y15245638D01*
X5430875Y15245638D01*
X5430875Y15212618D01*
X5393893Y15212618D01*
X5393893Y15189860D01*
X5398922Y15184831D01*
X5478881Y15184831D01*
X5483910Y15189860D01*
X5483910Y15269819D01*
X5478881Y15274848D01*
G37*
G36*
X5239918Y15274848D02*
G01*
X5234889Y15269819D01*
X5234889Y15189860D01*
X5239918Y15184831D01*
X5318912Y15184831D01*
X5323890Y15189860D01*
X5323890Y15212618D01*
X5285892Y15212618D01*
X5285892Y15245638D01*
X5323890Y15245638D01*
X5323890Y15269819D01*
X5318912Y15274848D01*
G37*
G36*
X5398922Y15056408D02*
G01*
X5393893Y15051379D01*
X5393893Y15027198D01*
X5430875Y15027198D01*
X5430875Y14994178D01*
X5393893Y14994178D01*
X5393893Y14971420D01*
X5398922Y14966391D01*
X5478881Y14966391D01*
X5483910Y14971420D01*
X5483910Y15051379D01*
X5478881Y15056408D01*
G37*
G36*
X5239918Y15056408D02*
G01*
X5234889Y15051379D01*
X5234889Y14971420D01*
X5239918Y14966391D01*
X5318912Y14966391D01*
X5323890Y14971420D01*
X5323890Y14994178D01*
X5285892Y14994178D01*
X5285892Y15027198D01*
X5323890Y15027198D01*
X5323890Y15051379D01*
X5318912Y15056408D01*
G37*
G36*
X5398922Y14837968D02*
G01*
X5393893Y14832939D01*
X5393893Y14808758D01*
X5430875Y14808758D01*
X5430875Y14775738D01*
X5393893Y14775738D01*
X5393893Y14752980D01*
X5398922Y14747951D01*
X5478881Y14747951D01*
X5483910Y14752980D01*
X5483910Y14832939D01*
X5478881Y14837968D01*
G37*
G36*
X5239918Y14837968D02*
G01*
X5234889Y14832939D01*
X5234889Y14752980D01*
X5239918Y14747951D01*
X5318912Y14747951D01*
X5323890Y14752980D01*
X5323890Y14775738D01*
X5285892Y14775738D01*
X5285892Y14808758D01*
X5323890Y14808758D01*
X5323890Y14832939D01*
X5318912Y14837968D01*
G37*
G36*
X5398922Y14619528D02*
G01*
X5393893Y14614499D01*
X5393893Y14590318D01*
X5430875Y14590318D01*
X5430875Y14557298D01*
X5393893Y14557298D01*
X5393893Y14534540D01*
X5398922Y14529511D01*
X5478881Y14529511D01*
X5483910Y14534540D01*
X5483910Y14614499D01*
X5478881Y14619528D01*
G37*
G36*
X5239918Y14619528D02*
G01*
X5234889Y14614499D01*
X5234889Y14534540D01*
X5239918Y14529511D01*
X5318912Y14529511D01*
X5323890Y14534540D01*
X5323890Y14557298D01*
X5285892Y14557298D01*
X5285892Y14590318D01*
X5323890Y14590318D01*
X5323890Y14614499D01*
X5318912Y14619528D01*
G37*
G36*
X1483512Y17430699D02*
G01*
X1483512Y17385690D01*
X1438503Y17385690D01*
X1438503Y17429683D01*
X1396492Y17430191D01*
X1391513Y17425212D01*
X1391513Y17310201D01*
X1396492Y17305172D01*
X1524508Y17305172D01*
X1529486Y17310201D01*
X1529486Y17425212D01*
X1524508Y17430191D01*
G37*
G36*
X1396492Y17645176D02*
G01*
X1391513Y17640198D01*
X1391513Y17525187D01*
X1396492Y17520208D01*
X1438503Y17520208D01*
X1438503Y17564709D01*
X1483512Y17564709D01*
X1483512Y17520716D01*
X1524508Y17520208D01*
X1529486Y17525187D01*
X1529486Y17640198D01*
X1524508Y17645176D01*
G37*
G36*
X1396492Y17200727D02*
G01*
X1391513Y17195698D01*
X1391513Y17080687D01*
X1396492Y17075708D01*
X1437487Y17075200D01*
X1437487Y17120209D01*
X1482496Y17120209D01*
X1482496Y17076216D01*
X1524508Y17075708D01*
X1529486Y17080687D01*
X1529486Y17195698D01*
X1524508Y17200727D01*
G37*
G36*
X1396492Y16985691D02*
G01*
X1391513Y16980712D01*
X1391513Y16865701D01*
X1396492Y16860723D01*
X1524508Y16860723D01*
X1529486Y16865701D01*
X1529486Y16980712D01*
X1524508Y16985691D01*
X1482496Y16985691D01*
X1482496Y16941190D01*
X1437487Y16941190D01*
X1437487Y16985183D01*
G37*
G36*
X1396492Y15587827D02*
G01*
X1391513Y15582798D01*
X1391513Y15467787D01*
X1396492Y15462808D01*
X1437487Y15462300D01*
X1437487Y15507309D01*
X1482496Y15507309D01*
X1482496Y15463316D01*
X1524508Y15462808D01*
X1529486Y15467787D01*
X1529486Y15582798D01*
X1524508Y15587827D01*
G37*
G36*
X1396492Y15372791D02*
G01*
X1391513Y15367812D01*
X1391513Y15252801D01*
X1396492Y15247823D01*
X1524508Y15247823D01*
X1529486Y15252801D01*
X1529486Y15367812D01*
X1524508Y15372791D01*
X1482496Y15372791D01*
X1482496Y15328290D01*
X1437487Y15328290D01*
X1437487Y15372283D01*
G37*
G36*
X1396492Y14089227D02*
G01*
X1391513Y14084198D01*
X1391513Y13969187D01*
X1396492Y13964208D01*
X1437487Y13963700D01*
X1437487Y14008709D01*
X1482496Y14008709D01*
X1482496Y13964716D01*
X1524508Y13964208D01*
X1529486Y13969187D01*
X1529486Y14084198D01*
X1524508Y14089227D01*
G37*
G36*
X1396492Y13874191D02*
G01*
X1391513Y13869212D01*
X1391513Y13754201D01*
X1396492Y13749223D01*
X1524508Y13749223D01*
X1529486Y13754201D01*
X1529486Y13869212D01*
X1524508Y13874191D01*
X1482496Y13874191D01*
X1482496Y13829690D01*
X1437487Y13829690D01*
X1437487Y13873683D01*
G37*
G36*
X5557672Y13519099D02*
G01*
X5557672Y13474090D01*
X5512663Y13474090D01*
X5512663Y13518083D01*
X5470652Y13518591D01*
X5465673Y13513612D01*
X5465673Y13398601D01*
X5470652Y13393572D01*
X5598668Y13393572D01*
X5603646Y13398601D01*
X5603646Y13513612D01*
X5598668Y13518591D01*
G37*
G36*
X5470652Y13733576D02*
G01*
X5465673Y13728598D01*
X5465673Y13613587D01*
X5470652Y13608608D01*
X5512663Y13608608D01*
X5512663Y13653109D01*
X5557672Y13653109D01*
X5557672Y13609116D01*
X5598668Y13608608D01*
X5603646Y13613587D01*
X5603646Y13728598D01*
X5598668Y13733576D01*
G37*
G36*
X5557672Y12477699D02*
G01*
X5557672Y12432690D01*
X5512663Y12432690D01*
X5512663Y12476683D01*
X5470652Y12477191D01*
X5465673Y12472212D01*
X5465673Y12357201D01*
X5470652Y12352172D01*
X5598668Y12352172D01*
X5603646Y12357201D01*
X5603646Y12472212D01*
X5598668Y12477191D01*
G37*
G36*
X5470652Y12692176D02*
G01*
X5465673Y12687198D01*
X5465673Y12572187D01*
X5470652Y12567208D01*
X5512663Y12567208D01*
X5512663Y12611709D01*
X5557672Y12611709D01*
X5557672Y12567716D01*
X5598668Y12567208D01*
X5603646Y12572187D01*
X5603646Y12687198D01*
X5598668Y12692176D01*
G37*
G36*
X5209692Y12477699D02*
G01*
X5209692Y12432690D01*
X5164683Y12432690D01*
X5164683Y12476683D01*
X5122672Y12477191D01*
X5117693Y12472212D01*
X5117693Y12357201D01*
X5122672Y12352172D01*
X5250688Y12352172D01*
X5255666Y12357201D01*
X5255666Y12472212D01*
X5250688Y12477191D01*
G37*
G36*
X5122672Y12692176D02*
G01*
X5117693Y12687198D01*
X5117693Y12572187D01*
X5122672Y12567208D01*
X5164683Y12567208D01*
X5164683Y12611709D01*
X5209692Y12611709D01*
X5209692Y12567716D01*
X5250688Y12567208D01*
X5255666Y12572187D01*
X5255666Y12687198D01*
X5250688Y12692176D01*
G37*
G36*
X5209692Y13519099D02*
G01*
X5209692Y13474090D01*
X5164683Y13474090D01*
X5164683Y13518083D01*
X5122672Y13518591D01*
X5117693Y13513612D01*
X5117693Y13398601D01*
X5122672Y13393572D01*
X5250688Y13393572D01*
X5255666Y13398601D01*
X5255666Y13513612D01*
X5250688Y13518591D01*
G37*
G36*
X5122672Y13733576D02*
G01*
X5117693Y13728598D01*
X5117693Y13613587D01*
X5122672Y13608608D01*
X5164683Y13608608D01*
X5164683Y13653109D01*
X5209692Y13653109D01*
X5209692Y13609116D01*
X5250688Y13608608D01*
X5255666Y13613587D01*
X5255666Y13728598D01*
X5250688Y13733576D01*
G37*
G36*
X4859172Y12477699D02*
G01*
X4859172Y12432690D01*
X4814163Y12432690D01*
X4814163Y12476683D01*
X4772152Y12477191D01*
X4767173Y12472212D01*
X4767173Y12357201D01*
X4772152Y12352172D01*
X4900168Y12352172D01*
X4905146Y12357201D01*
X4905146Y12472212D01*
X4900168Y12477191D01*
G37*
G36*
X4772152Y12692176D02*
G01*
X4767173Y12687198D01*
X4767173Y12572187D01*
X4772152Y12567208D01*
X4814163Y12567208D01*
X4814163Y12611709D01*
X4859172Y12611709D01*
X4859172Y12567716D01*
X4900168Y12567208D01*
X4905146Y12572187D01*
X4905146Y12687198D01*
X4900168Y12692176D01*
G37*
G36*
X4859172Y13519099D02*
G01*
X4859172Y13474090D01*
X4814163Y13474090D01*
X4814163Y13518083D01*
X4772152Y13518591D01*
X4767173Y13513612D01*
X4767173Y13398601D01*
X4772152Y13393572D01*
X4900168Y13393572D01*
X4905146Y13398601D01*
X4905146Y13513612D01*
X4900168Y13518591D01*
G37*
G36*
X4772152Y13733576D02*
G01*
X4767173Y13728598D01*
X4767173Y13613587D01*
X4772152Y13608608D01*
X4814163Y13608608D01*
X4814163Y13653109D01*
X4859172Y13653109D01*
X4859172Y13609116D01*
X4900168Y13608608D01*
X4905146Y13613587D01*
X4905146Y13728598D01*
X4900168Y13733576D01*
G37*
G36*
X4508652Y12477699D02*
G01*
X4508652Y12432690D01*
X4463643Y12432690D01*
X4463643Y12476683D01*
X4421632Y12477191D01*
X4416653Y12472212D01*
X4416653Y12357201D01*
X4421632Y12352172D01*
X4549648Y12352172D01*
X4554626Y12357201D01*
X4554626Y12472212D01*
X4549648Y12477191D01*
G37*
G36*
X4421632Y12692176D02*
G01*
X4416653Y12687198D01*
X4416653Y12572187D01*
X4421632Y12567208D01*
X4463643Y12567208D01*
X4463643Y12611709D01*
X4508652Y12611709D01*
X4508652Y12567716D01*
X4549648Y12567208D01*
X4554626Y12572187D01*
X4554626Y12687198D01*
X4549648Y12692176D01*
G37*
G36*
X4508652Y13519099D02*
G01*
X4508652Y13474090D01*
X4463643Y13474090D01*
X4463643Y13518083D01*
X4421632Y13518591D01*
X4416653Y13513612D01*
X4416653Y13398601D01*
X4421632Y13393572D01*
X4549648Y13393572D01*
X4554626Y13398601D01*
X4554626Y13513612D01*
X4549648Y13518591D01*
G37*
G36*
X4421632Y13733576D02*
G01*
X4416653Y13728598D01*
X4416653Y13613587D01*
X4421632Y13608608D01*
X4463643Y13608608D01*
X4463643Y13653109D01*
X4508652Y13653109D01*
X4508652Y13609116D01*
X4549648Y13608608D01*
X4554626Y13613587D01*
X4554626Y13728598D01*
X4549648Y13733576D01*
G37*
G36*
X8927592Y15752927D02*
G01*
X8922613Y15747898D01*
X8922613Y15632887D01*
X8927592Y15627908D01*
X8968587Y15627400D01*
X8968587Y15672409D01*
X9013596Y15672409D01*
X9013596Y15628416D01*
X9055608Y15627908D01*
X9060586Y15632887D01*
X9060586Y15747898D01*
X9055608Y15752927D01*
G37*
G36*
X8927592Y15537891D02*
G01*
X8922613Y15532912D01*
X8922613Y15417901D01*
X8927592Y15412923D01*
X9055608Y15412923D01*
X9060586Y15417901D01*
X9060586Y15532912D01*
X9055608Y15537891D01*
X9013596Y15537891D01*
X9013596Y15493390D01*
X8968587Y15493390D01*
X8968587Y15537383D01*
G37*
G36*
X9014612Y15119299D02*
G01*
X9014612Y15074290D01*
X8969603Y15074290D01*
X8969603Y15118283D01*
X8927592Y15118791D01*
X8922613Y15113812D01*
X8922613Y14998801D01*
X8927592Y14993772D01*
X9055608Y14993772D01*
X9060586Y14998801D01*
X9060586Y15113812D01*
X9055608Y15118791D01*
G37*
G36*
X8927592Y15333776D02*
G01*
X8922613Y15328798D01*
X8922613Y15213787D01*
X8927592Y15208808D01*
X8969603Y15208808D01*
X8969603Y15253309D01*
X9014612Y15253309D01*
X9014612Y15209316D01*
X9055608Y15208808D01*
X9060586Y15213787D01*
X9060586Y15328798D01*
X9055608Y15333776D01*
G37*
G36*
X9001912Y12210999D02*
G01*
X9001912Y12165990D01*
X8956903Y12165990D01*
X8956903Y12209983D01*
X8914892Y12210491D01*
X8909913Y12205512D01*
X8909913Y12090501D01*
X8914892Y12085472D01*
X9042908Y12085472D01*
X9047886Y12090501D01*
X9047886Y12205512D01*
X9042908Y12210491D01*
G37*
G36*
X8914892Y12425476D02*
G01*
X8909913Y12420498D01*
X8909913Y12305487D01*
X8914892Y12300508D01*
X8956903Y12300508D01*
X8956903Y12345009D01*
X9001912Y12345009D01*
X9001912Y12301016D01*
X9042908Y12300508D01*
X9047886Y12305487D01*
X9047886Y12420498D01*
X9042908Y12425476D01*
G37*
G36*
X9014612Y9010599D02*
G01*
X9014612Y8965590D01*
X8969603Y8965590D01*
X8969603Y9009583D01*
X8927592Y9010091D01*
X8922613Y9005112D01*
X8922613Y8890101D01*
X8927592Y8885072D01*
X9055608Y8885072D01*
X9060586Y8890101D01*
X9060586Y9005112D01*
X9055608Y9010091D01*
G37*
G36*
X8927592Y9225076D02*
G01*
X8922613Y9220098D01*
X8922613Y9105087D01*
X8927592Y9100108D01*
X8969603Y9100108D01*
X8969603Y9144609D01*
X9014612Y9144609D01*
X9014612Y9100616D01*
X9055608Y9100108D01*
X9060586Y9105087D01*
X9060586Y9220098D01*
X9055608Y9225076D01*
G37*
G36*
X9014612Y6013399D02*
G01*
X9014612Y5968390D01*
X8969603Y5968390D01*
X8969603Y6012383D01*
X8927592Y6012891D01*
X8922613Y6007912D01*
X8922613Y5892901D01*
X8927592Y5887872D01*
X9055608Y5887872D01*
X9060586Y5892901D01*
X9060586Y6007912D01*
X9055608Y6012891D01*
G37*
G36*
X8927592Y6227876D02*
G01*
X8922613Y6222898D01*
X8922613Y6107887D01*
X8927592Y6102908D01*
X8969603Y6102908D01*
X8969603Y6147409D01*
X9014612Y6147409D01*
X9014612Y6103416D01*
X9055608Y6102908D01*
X9060586Y6107887D01*
X9060586Y6222898D01*
X9055608Y6227876D01*
G37*
G36*
X9027312Y3016199D02*
G01*
X9027312Y2971190D01*
X8982303Y2971190D01*
X8982303Y3015183D01*
X8940292Y3015691D01*
X8935313Y3010712D01*
X8935313Y2895701D01*
X8940292Y2890672D01*
X9068308Y2890672D01*
X9073286Y2895701D01*
X9073286Y3010712D01*
X9068308Y3015691D01*
G37*
G36*
X8940292Y3230676D02*
G01*
X8935313Y3225698D01*
X8935313Y3110687D01*
X8940292Y3105708D01*
X8982303Y3105708D01*
X8982303Y3150209D01*
X9027312Y3150209D01*
X9027312Y3106216D01*
X9068308Y3105708D01*
X9073286Y3110687D01*
X9073286Y3225698D01*
X9068308Y3230676D01*
G37*
G36*
X5824931Y13802055D02*
G01*
X5814923Y13792047D01*
X5814923Y13462152D01*
X5824931Y13452144D01*
X5945581Y13452144D01*
X5955588Y13462152D01*
X5955588Y13557605D01*
X5945581Y13567613D01*
X5917793Y13567613D01*
X5907786Y13577620D01*
X5907786Y13676579D01*
X5917793Y13686586D01*
X5945581Y13686586D01*
X5955588Y13696594D01*
X5955588Y13792047D01*
X5945581Y13802055D01*
G37*
G36*
X6195618Y13802055D02*
G01*
X6185611Y13792047D01*
X6185611Y13696594D01*
X6195618Y13686586D01*
X6223406Y13686586D01*
X6233414Y13676579D01*
X6233414Y13577620D01*
X6223406Y13567613D01*
X6195618Y13567613D01*
X6185611Y13557605D01*
X6185611Y13462152D01*
X6195618Y13452144D01*
X6316268Y13452144D01*
X6326276Y13462152D01*
X6326276Y13792047D01*
X6316268Y13802055D01*
G37*
G36*
X684885Y18819012D02*
G01*
X679856Y18814034D01*
X679856Y18686018D01*
X684885Y18681039D01*
X799896Y18681039D01*
X804875Y18686018D01*
X805383Y18727013D01*
X760374Y18727013D01*
X760374Y18772022D01*
X804367Y18772022D01*
X804875Y18814034D01*
X799896Y18819012D01*
G37*
G36*
X899871Y18819012D02*
G01*
X894892Y18814034D01*
X894892Y18772022D01*
X939393Y18772022D01*
X939393Y18727013D01*
X895400Y18727013D01*
X894892Y18686018D01*
X899871Y18681039D01*
X1014882Y18681039D01*
X1019860Y18686018D01*
X1019860Y18814034D01*
X1014882Y18819012D01*
G37*
G36*
X684885Y17318888D02*
G01*
X679856Y17313910D01*
X679856Y17185894D01*
X684885Y17180915D01*
X799896Y17180915D01*
X804875Y17185894D01*
X805383Y17226889D01*
X760374Y17226889D01*
X760374Y17271898D01*
X804367Y17271898D01*
X804875Y17313910D01*
X799896Y17318888D01*
G37*
G36*
X899871Y17318888D02*
G01*
X894892Y17313910D01*
X894892Y17271898D01*
X939393Y17271898D01*
X939393Y17226889D01*
X895400Y17226889D01*
X894892Y17185894D01*
X899871Y17180915D01*
X1014882Y17180915D01*
X1019860Y17185894D01*
X1019860Y17313910D01*
X1014882Y17318888D01*
G37*
G36*
X684885Y15819018D02*
G01*
X679856Y15814040D01*
X679856Y15686024D01*
X684885Y15681045D01*
X799896Y15681045D01*
X804875Y15686024D01*
X805383Y15727019D01*
X760374Y15727019D01*
X760374Y15772028D01*
X804367Y15772028D01*
X804875Y15814040D01*
X799896Y15819018D01*
G37*
G36*
X899871Y15819018D02*
G01*
X894892Y15814040D01*
X894892Y15772028D01*
X939393Y15772028D01*
X939393Y15727019D01*
X895400Y15727019D01*
X894892Y15686024D01*
X899871Y15681045D01*
X1014882Y15681045D01*
X1019860Y15686024D01*
X1019860Y15814040D01*
X1014882Y15819018D01*
G37*
G36*
X684885Y14318894D02*
G01*
X679856Y14313916D01*
X679856Y14185900D01*
X684885Y14180921D01*
X799896Y14180921D01*
X804875Y14185900D01*
X805383Y14226895D01*
X760374Y14226895D01*
X760374Y14271904D01*
X804367Y14271904D01*
X804875Y14313916D01*
X799896Y14318894D01*
G37*
G36*
X899871Y14318894D02*
G01*
X894892Y14313916D01*
X894892Y14271904D01*
X939393Y14271904D01*
X939393Y14226895D01*
X895400Y14226895D01*
X894892Y14185900D01*
X899871Y14180921D01*
X1014882Y14180921D01*
X1019860Y14185900D01*
X1019860Y14313916D01*
X1014882Y14318894D01*
G37*
G36*
X624992Y16924985D02*
G01*
X614984Y16914977D01*
X614984Y16819473D01*
X624992Y16809466D01*
X652830Y16809466D01*
X662838Y16799509D01*
X662838Y16700500D01*
X652830Y16690492D01*
X624992Y16690492D01*
X614984Y16680535D01*
X614984Y16585031D01*
X624992Y16575024D01*
X745642Y16575024D01*
X755650Y16585031D01*
X755650Y16914977D01*
X745642Y16924985D01*
G37*
G36*
X254355Y16924985D02*
G01*
X244348Y16914977D01*
X244348Y16585031D01*
X254355Y16575024D01*
X375005Y16575024D01*
X385013Y16585031D01*
X385013Y16680535D01*
X375005Y16690492D01*
X347167Y16690492D01*
X337159Y16700500D01*
X337159Y16799509D01*
X347167Y16809466D01*
X375005Y16809466D01*
X385013Y16819473D01*
X385013Y16914977D01*
X375005Y16924985D01*
G37*
G36*
X624992Y18424956D02*
G01*
X614984Y18414949D01*
X614984Y18319496D01*
X624992Y18309488D01*
X652830Y18309488D01*
X662838Y18299480D01*
X662838Y18200522D01*
X652830Y18190514D01*
X624992Y18190514D01*
X614984Y18180507D01*
X614984Y18085054D01*
X624992Y18075046D01*
X745642Y18075046D01*
X755650Y18085054D01*
X755650Y18414949D01*
X745642Y18424956D01*
G37*
G36*
X254355Y18424956D02*
G01*
X244348Y18414949D01*
X244348Y18085054D01*
X254355Y18075046D01*
X375005Y18075046D01*
X385013Y18085054D01*
X385013Y18180507D01*
X375005Y18190514D01*
X347167Y18190514D01*
X337159Y18200522D01*
X337159Y18299480D01*
X347167Y18309488D01*
X375005Y18309488D01*
X385013Y18319496D01*
X385013Y18414949D01*
X375005Y18424956D01*
G37*
G36*
X624992Y15424962D02*
G01*
X614984Y15414955D01*
X614984Y15319501D01*
X624992Y15309494D01*
X652830Y15309494D01*
X662838Y15299486D01*
X662838Y15200528D01*
X652830Y15190520D01*
X624992Y15190520D01*
X614984Y15180513D01*
X614984Y15085060D01*
X624992Y15075052D01*
X745642Y15075052D01*
X755650Y15085060D01*
X755650Y15414955D01*
X745642Y15424962D01*
G37*
G36*
X254355Y15424962D02*
G01*
X244348Y15414955D01*
X244348Y15085060D01*
X254355Y15075052D01*
X375005Y15075052D01*
X385013Y15085060D01*
X385013Y15180513D01*
X375005Y15190520D01*
X347167Y15190520D01*
X337159Y15200528D01*
X337159Y15299486D01*
X347167Y15309494D01*
X375005Y15309494D01*
X385013Y15319501D01*
X385013Y15414955D01*
X375005Y15424962D01*
G37*
G36*
X624992Y13924940D02*
G01*
X614984Y13914983D01*
X614984Y13819479D01*
X624992Y13809472D01*
X652830Y13809472D01*
X662838Y13799464D01*
X662838Y13700506D01*
X652830Y13690498D01*
X624992Y13690498D01*
X614984Y13680490D01*
X614984Y13585037D01*
X624992Y13575030D01*
X745642Y13575030D01*
X755650Y13585037D01*
X755650Y13914983D01*
X745642Y13924940D01*
G37*
G36*
X254355Y13924940D02*
G01*
X244348Y13914983D01*
X244348Y13585037D01*
X254355Y13575030D01*
X375005Y13575030D01*
X385013Y13585037D01*
X385013Y13680490D01*
X375005Y13690498D01*
X347167Y13690498D01*
X337159Y13700506D01*
X337159Y13799464D01*
X347167Y13809472D01*
X375005Y13809472D01*
X385013Y13819479D01*
X385013Y13914983D01*
X375005Y13924940D01*
G37*
G36*
X5048910Y1339494D02*
G01*
X5043881Y1334516D01*
X5043881Y1206500D01*
X5048910Y1201521D01*
X5163921Y1201521D01*
X5168900Y1206500D01*
X5168900Y1248511D01*
X5124399Y1248511D01*
X5124399Y1293520D01*
X5168392Y1293520D01*
X5168900Y1334516D01*
X5163921Y1339494D01*
G37*
G36*
X5379110Y1339494D02*
G01*
X5374081Y1334516D01*
X5373573Y1293520D01*
X5418582Y1293520D01*
X5418582Y1248511D01*
X5374589Y1248511D01*
X5374081Y1206500D01*
X5379110Y1201521D01*
X5494121Y1201521D01*
X5499100Y1206500D01*
X5499100Y1334516D01*
X5494121Y1339494D01*
G37*
G36*
X9587158Y5605068D02*
G01*
X9587158Y5820968D01*
X9312838Y5820968D01*
X9312838Y5605068D01*
G37*
G36*
X9587158Y6047028D02*
G01*
X9587158Y6262928D01*
X9312838Y6262928D01*
X9312838Y6047028D01*
G37*
G36*
X9587158Y2605069D02*
G01*
X9587158Y2820969D01*
X9312838Y2820969D01*
X9312838Y2605069D01*
G37*
G36*
X9587158Y3047029D02*
G01*
X9587158Y3262929D01*
X9312838Y3262929D01*
X9312838Y3047029D01*
G37*
G36*
X9652497Y4764999D02*
G01*
X9882497Y4764999D01*
X9882497Y5144998D01*
X9652497Y5144998D01*
G37*
G36*
X9032499Y4894999D02*
G01*
X9232498Y4894999D01*
X9232498Y5014998D01*
X9032499Y5014998D01*
G37*
G36*
X9032499Y5124996D02*
G01*
X9232498Y5124996D01*
X9232498Y5244995D01*
X9032499Y5244995D01*
G37*
G36*
X9032499Y4665002D02*
G01*
X9232498Y4665002D01*
X9232498Y4785001D01*
X9032499Y4785001D01*
G37*
G36*
X9652497Y1765000D02*
G01*
X9882497Y1765000D01*
X9882497Y2144999D01*
X9652497Y2144999D01*
G37*
G36*
X9032499Y1895000D02*
G01*
X9232498Y1895000D01*
X9232498Y2014999D01*
X9032499Y2014999D01*
G37*
G36*
X9032499Y2124997D02*
G01*
X9232498Y2124997D01*
X9232498Y2244996D01*
X9032499Y2244996D01*
G37*
G36*
X9032499Y1665003D02*
G01*
X9232498Y1665003D01*
X9232498Y1785002D01*
X9032499Y1785002D01*
G37*
G36*
X9587158Y16805069D02*
G01*
X9587158Y17020969D01*
X9312838Y17020969D01*
X9312838Y16805069D01*
G37*
G36*
X9587158Y17247029D02*
G01*
X9587158Y17462929D01*
X9312838Y17462929D01*
X9312838Y17247029D01*
G37*
G36*
X9587158Y14805070D02*
G01*
X9587158Y15020970D01*
X9312838Y15020970D01*
X9312838Y14805070D01*
G37*
G36*
X9587158Y15247030D02*
G01*
X9587158Y15462930D01*
X9312838Y15462930D01*
X9312838Y15247030D01*
G37*
G36*
X9587158Y11805069D02*
G01*
X9587158Y12020969D01*
X9312838Y12020969D01*
X9312838Y11805069D01*
G37*
G36*
X9587158Y12247029D02*
G01*
X9587158Y12462929D01*
X9312838Y12462929D01*
X9312838Y12247029D01*
G37*
G36*
X9587158Y8605070D02*
G01*
X9587158Y8820970D01*
X9312838Y8820970D01*
X9312838Y8605070D01*
G37*
G36*
X9587158Y9047030D02*
G01*
X9587158Y9262930D01*
X9312838Y9262930D01*
X9312838Y9047030D01*
G37*
G36*
X9652497Y15964999D02*
G01*
X9882497Y15964999D01*
X9882497Y16344999D01*
X9652497Y16344999D01*
G37*
G36*
X9032499Y16094999D02*
G01*
X9232498Y16094999D01*
X9232498Y16214999D01*
X9032499Y16214999D01*
G37*
G36*
X9032499Y16324996D02*
G01*
X9232498Y16324996D01*
X9232498Y16444996D01*
X9032499Y16444996D01*
G37*
G36*
X9032499Y15865002D02*
G01*
X9232498Y15865002D01*
X9232498Y15985002D01*
X9032499Y15985002D01*
G37*
G36*
X9652497Y13965001D02*
G01*
X9882497Y13965001D01*
X9882497Y14345000D01*
X9652497Y14345000D01*
G37*
G36*
X9032499Y14095001D02*
G01*
X9232498Y14095001D01*
X9232498Y14215000D01*
X9032499Y14215000D01*
G37*
G36*
X9032499Y14324998D02*
G01*
X9232498Y14324998D01*
X9232498Y14444997D01*
X9032499Y14444997D01*
G37*
G36*
X9032499Y13865004D02*
G01*
X9232498Y13865004D01*
X9232498Y13985003D01*
X9032499Y13985003D01*
G37*
G36*
X9652497Y10964999D02*
G01*
X9882497Y10964999D01*
X9882497Y11344998D01*
X9652497Y11344998D01*
G37*
G36*
X9032499Y11094999D02*
G01*
X9232498Y11094999D01*
X9232498Y11214999D01*
X9032499Y11214999D01*
G37*
G36*
X9032499Y11324996D02*
G01*
X9232498Y11324996D01*
X9232498Y11444996D01*
X9032499Y11444996D01*
G37*
G36*
X9032499Y10865002D02*
G01*
X9232498Y10865002D01*
X9232498Y10985002D01*
X9032499Y10985002D01*
G37*
G36*
X9652497Y7765000D02*
G01*
X9882497Y7765000D01*
X9882497Y8145000D01*
X9652497Y8145000D01*
G37*
G36*
X9032499Y7895000D02*
G01*
X9232498Y7895000D01*
X9232498Y8015000D01*
X9032499Y8015000D01*
G37*
G36*
X9032499Y8124997D02*
G01*
X9232498Y8124997D01*
X9232498Y8244997D01*
X9032499Y8244997D01*
G37*
G36*
X9032499Y7665003D02*
G01*
X9232498Y7665003D01*
X9232498Y7785003D01*
X9032499Y7785003D01*
G37*
M02*
