G04 Layer: BottomSilkscreenLayer*
G04 EasyEDA v6.5.9, 2022-07-29 15:52:37*
G04 80419b3afb544e71809359e13b9e66d5,1d0123f043c44c6e98dfa3af7fe3442e,10*
G04 Gerber Generator version 0.2*
G04 Scale: 100 percent, Rotated: No, Reflected: No *
G04 Dimensions in millimeters *
G04 leading zeros omitted , absolute positions ,4 integer and 5 decimal *
%FSLAX45Y45*%
%MOMM*%

%ADD10C,0.2032*%
%ADD11C,0.1524*%
%ADD12C,2.5000*%
%ADD13C,0.3000*%
%ADD14C,1.0000*%
%ADD15C,0.2540*%
%ADD16C,0.1520*%
%ADD17C,0.1270*%
%ADD18C,0.0132*%

%LPD*%
G36*
X870762Y12985699D02*
G01*
X870762Y12831622D01*
X929741Y12831622D01*
X929741Y12985699D01*
G37*
G36*
X1160983Y12887350D02*
G01*
X1158189Y12885470D01*
X1152042Y12880136D01*
X1132027Y12861290D01*
X1105154Y12834874D01*
X1052779Y12782397D01*
X1096975Y12738252D01*
X1205128Y12846253D01*
X1184757Y12866776D01*
X1176578Y12874752D01*
X1169365Y12881305D01*
X1163878Y12885724D01*
G37*
G36*
X639521Y12887350D02*
G01*
X636625Y12885724D01*
X631139Y12881305D01*
X623925Y12874752D01*
X615746Y12866776D01*
X595376Y12846253D01*
X703529Y12738252D01*
X747725Y12782397D01*
X688238Y12841986D01*
X662635Y12866878D01*
X652576Y12876377D01*
X645007Y12883184D01*
X640486Y12886842D01*
G37*
G36*
X895350Y12799060D02*
G01*
X882497Y12798552D01*
X870051Y12797434D01*
X858266Y12795707D01*
X847394Y12793319D01*
X842416Y12791948D01*
X830021Y12787782D01*
X818032Y12783007D01*
X806399Y12777622D01*
X795223Y12771678D01*
X784504Y12765125D01*
X774192Y12758064D01*
X764387Y12750444D01*
X755040Y12742367D01*
X746201Y12733731D01*
X737920Y12724638D01*
X730097Y12715087D01*
X722884Y12705080D01*
X716229Y12694615D01*
X710133Y12683744D01*
X704646Y12672517D01*
X699719Y12660884D01*
X695502Y12648844D01*
X691896Y12636500D01*
X690676Y12631318D01*
X689610Y12625578D01*
X687984Y12613030D01*
X687019Y12599314D01*
X686734Y12586462D01*
X746455Y12586462D01*
X746760Y12591846D01*
X748538Y12604140D01*
X751281Y12617145D01*
X754532Y12629134D01*
X758494Y12641122D01*
X762558Y12651740D01*
X764540Y12656058D01*
X769772Y12665456D01*
X775970Y12674650D01*
X783183Y12683540D01*
X787044Y12687808D01*
X795426Y12696037D01*
X799846Y12700000D01*
X809193Y12707416D01*
X818997Y12714224D01*
X829259Y12720370D01*
X839825Y12725704D01*
X850595Y12730175D01*
X861466Y12733680D01*
X866902Y12735102D01*
X880821Y12737642D01*
X888593Y12738658D01*
X895858Y12739217D01*
X902919Y12739319D01*
X909878Y12738963D01*
X917092Y12738201D01*
X924712Y12736931D01*
X938885Y12733782D01*
X944626Y12732156D01*
X955802Y12728244D01*
X966571Y12723469D01*
X976833Y12717983D01*
X986586Y12711734D01*
X991311Y12708382D01*
X1000252Y12701117D01*
X1004519Y12697307D01*
X1012545Y12689179D01*
X1020013Y12680492D01*
X1026769Y12671298D01*
X1032865Y12661696D01*
X1038250Y12651638D01*
X1042873Y12641224D01*
X1046734Y12630505D01*
X1049731Y12619532D01*
X1051966Y12608255D01*
X1053287Y12596876D01*
X1053693Y12585293D01*
X1053185Y12573660D01*
X1051712Y12561925D01*
X1049070Y12549530D01*
X1047445Y12543485D01*
X1043482Y12531750D01*
X1038656Y12520523D01*
X1033018Y12509754D01*
X1026617Y12499543D01*
X1019505Y12489942D01*
X1011682Y12480950D01*
X1003300Y12472568D01*
X994308Y12464948D01*
X989584Y12461341D01*
X979830Y12454788D01*
X969619Y12448997D01*
X964336Y12446355D01*
X953516Y12441783D01*
X942340Y12438024D01*
X930859Y12435179D01*
X925017Y12434112D01*
X913180Y12432690D01*
X907186Y12432284D01*
X895096Y12432334D01*
X882903Y12433350D01*
X870559Y12435484D01*
X858418Y12438532D01*
X846734Y12442393D01*
X835558Y12447066D01*
X824839Y12452553D01*
X814730Y12458801D01*
X805180Y12465761D01*
X796239Y12473432D01*
X791972Y12477496D01*
X783996Y12486132D01*
X776681Y12495428D01*
X773277Y12500254D01*
X767080Y12510414D01*
X761593Y12521133D01*
X756920Y12532360D01*
X754837Y12538151D01*
X751382Y12550089D01*
X748792Y12562433D01*
X746912Y12575590D01*
X746506Y12581128D01*
X746455Y12586462D01*
X686734Y12586462D01*
X686816Y12577876D01*
X687476Y12563805D01*
X688797Y12550495D01*
X690778Y12538557D01*
X691997Y12533223D01*
X695248Y12521996D01*
X699160Y12510973D01*
X703681Y12500203D01*
X708761Y12489688D01*
X714400Y12479477D01*
X720547Y12469571D01*
X727252Y12459970D01*
X734415Y12450775D01*
X742035Y12441936D01*
X750062Y12433554D01*
X758545Y12425578D01*
X767384Y12418060D01*
X776630Y12410998D01*
X786180Y12404496D01*
X796086Y12398451D01*
X806246Y12393015D01*
X816711Y12388138D01*
X827379Y12383871D01*
X838301Y12380214D01*
X849426Y12377216D01*
X862177Y12374676D01*
X875639Y12372949D01*
X882548Y12372340D01*
X896619Y12371781D01*
X903732Y12371781D01*
X917854Y12372441D01*
X924864Y12373000D01*
X938479Y12374778D01*
X951433Y12377318D01*
X964590Y12380925D01*
X971346Y12383058D01*
X984199Y12387884D01*
X996340Y12393472D01*
X1007973Y12399873D01*
X1019251Y12407290D01*
X1024839Y12411354D01*
X1035913Y12420346D01*
X1047089Y12430607D01*
X1057198Y12440767D01*
X1065479Y12449962D01*
X1073099Y12459360D01*
X1080058Y12468961D01*
X1086358Y12478766D01*
X1091946Y12488773D01*
X1096924Y12499035D01*
X1101293Y12509550D01*
X1104950Y12520320D01*
X1108049Y12531445D01*
X1110488Y12542875D01*
X1112316Y12554661D01*
X1113536Y12566802D01*
X1114196Y12579299D01*
X1114247Y12592050D01*
X1113637Y12604496D01*
X1112367Y12616637D01*
X1110488Y12628524D01*
X1107897Y12640157D01*
X1104646Y12651486D01*
X1100683Y12662560D01*
X1096111Y12673431D01*
X1090828Y12683998D01*
X1087983Y12689230D01*
X1081684Y12699441D01*
X1074724Y12709448D01*
X1067054Y12719253D01*
X1058722Y12728803D01*
X1049731Y12738150D01*
X1040130Y12747142D01*
X1030274Y12755321D01*
X1020114Y12762788D01*
X1009497Y12769545D01*
X998372Y12775742D01*
X986637Y12781330D01*
X974191Y12786410D01*
X960983Y12791033D01*
X956005Y12792557D01*
X945235Y12795046D01*
X933500Y12796926D01*
X921105Y12798247D01*
X908303Y12798958D01*
G37*
G36*
X1146149Y12615214D02*
G01*
X1146149Y12552781D01*
X1298600Y12554559D01*
X1300480Y12615214D01*
G37*
G36*
X500024Y12615214D02*
G01*
X501904Y12554559D01*
X654354Y12552781D01*
X654354Y12615214D01*
G37*
G36*
X1096924Y12431623D02*
G01*
X1094536Y12429896D01*
X1082344Y12418568D01*
X1052830Y12388900D01*
X1125778Y12316155D01*
X1147876Y12295022D01*
X1155395Y12288215D01*
X1159865Y12284557D01*
X1160780Y12284049D01*
X1163675Y12285675D01*
X1169111Y12290044D01*
X1176375Y12296546D01*
X1205230Y12324892D01*
X1124864Y12405106D01*
X1105103Y12424308D01*
X1099312Y12429693D01*
G37*
G36*
X703681Y12431623D02*
G01*
X701294Y12429693D01*
X686816Y12415977D01*
X662838Y12392507D01*
X595376Y12325146D01*
X615746Y12304623D01*
X623925Y12296648D01*
X631139Y12290094D01*
X636625Y12285675D01*
X639521Y12284049D01*
X642315Y12285929D01*
X657301Y12299442D01*
X668477Y12310059D01*
X695299Y12336475D01*
X747674Y12388900D01*
X718159Y12418568D01*
X705967Y12429896D01*
G37*
G36*
X870762Y12339777D02*
G01*
X870762Y12185700D01*
X929741Y12185700D01*
X929741Y12339777D01*
G37*
G36*
X10044988Y19506387D02*
G01*
X10000437Y19506184D01*
X9972192Y19505625D01*
X9962946Y19505168D01*
X9956342Y19504609D01*
X9951821Y19503847D01*
X9949027Y19502932D01*
X9947402Y19501815D01*
X9945573Y19499630D01*
X9944150Y19497090D01*
X9943134Y19494550D01*
X9942779Y19492264D01*
X9945116Y19487489D01*
X9951669Y19476110D01*
X9975342Y19437045D01*
X10009632Y19381927D01*
X10116007Y19213779D01*
X9980168Y19211493D01*
X9959746Y19210832D01*
X9945522Y19209867D01*
X9940391Y19209258D01*
X9936378Y19208445D01*
X9933381Y19207480D01*
X9931196Y19206362D01*
X9929723Y19204990D01*
X9928809Y19203416D01*
X9928352Y19201587D01*
X9928098Y19197066D01*
X9929266Y19194678D01*
X9932670Y19189750D01*
X9945116Y19173342D01*
X9963607Y19150380D01*
X10002062Y19104356D01*
X10377525Y18658382D01*
X10389108Y18645073D01*
X10401706Y18631712D01*
X10407497Y18626683D01*
X10409682Y18625210D01*
X10411510Y18624346D01*
X10412984Y18624092D01*
X10417708Y18625515D01*
X10422636Y18629071D01*
X10426496Y18633541D01*
X10428071Y18637910D01*
X10427055Y18641314D01*
X10419943Y18660008D01*
X10407802Y18689828D01*
X10268000Y19022060D01*
X10263327Y19034201D01*
X10266121Y19034658D01*
X10286187Y19035369D01*
X10320477Y19035776D01*
X10370058Y19035928D01*
X10391190Y19036182D01*
X10405821Y19036690D01*
X10415168Y19037503D01*
X10418267Y19038062D01*
X10420604Y19038773D01*
X10422229Y19039535D01*
X10423448Y19040449D01*
X10425226Y19042583D01*
X10426700Y19044970D01*
X10427716Y19047307D01*
X10428071Y19049288D01*
X10426446Y19053352D01*
X10414457Y19078651D01*
X10364927Y19179336D01*
X10332720Y19244157D01*
X10255148Y19398640D01*
X10228630Y19450812D01*
X10209631Y19487692D01*
X10200487Y19504202D01*
X10198354Y19504558D01*
X10185247Y19505168D01*
X10162133Y19505726D01*
X10131196Y19506133D01*
G37*
D10*
X1914659Y1437624D02*
G01*
X2043968Y1437624D01*
X2090150Y1437624D02*
G01*
X2099386Y1446860D01*
X2108621Y1437624D01*
X2099386Y1428386D01*
X2090150Y1437624D01*
X1914659Y1256591D02*
G01*
X1914659Y1348955D01*
X1997786Y1358191D01*
X1988550Y1348955D01*
X1979312Y1321244D01*
X1979312Y1293535D01*
X1988550Y1265826D01*
X2007021Y1247355D01*
X2034730Y1238117D01*
X2053203Y1238117D01*
X2080912Y1247355D01*
X2099386Y1265826D01*
X2108621Y1293535D01*
X2108621Y1321244D01*
X2099386Y1348955D01*
X2090150Y1358191D01*
X2071677Y1367426D01*
X1914659Y1177157D02*
G01*
X2108621Y1103266D01*
X1914659Y1029375D02*
G01*
X2108621Y1103266D01*
X1960841Y829871D02*
G01*
X1942368Y839106D01*
X1923895Y857580D01*
X1914659Y876053D01*
X1914659Y912997D01*
X1923895Y931471D01*
X1942368Y949944D01*
X1960841Y959180D01*
X1988550Y968415D01*
X2034730Y968415D01*
X2062441Y959180D01*
X2080912Y949944D01*
X2099386Y931471D01*
X2108621Y912997D01*
X2108621Y876053D01*
X2099386Y857580D01*
X2080912Y839106D01*
X2062441Y829871D01*
X1960841Y630364D02*
G01*
X1942368Y639602D01*
X1923895Y658075D01*
X1914659Y676546D01*
X1914659Y713493D01*
X1923895Y731964D01*
X1942368Y750437D01*
X1960841Y759675D01*
X1988550Y768911D01*
X2034730Y768911D01*
X2062441Y759675D01*
X2080912Y750437D01*
X2099386Y731964D01*
X2108621Y713493D01*
X2108621Y676546D01*
X2099386Y658075D01*
X2080912Y639602D01*
X2062441Y630364D01*
X1914659Y560169D02*
G01*
X2043968Y560169D01*
X2090150Y560169D02*
G01*
X2099386Y569404D01*
X2108621Y560169D01*
X2099386Y550933D01*
X2090150Y560169D01*
D11*
X2900146Y1695411D02*
G01*
X2900146Y1549941D01*
X2900146Y1695411D02*
G01*
X2837802Y1695411D01*
X2817020Y1688485D01*
X2810090Y1681558D01*
X2803164Y1667703D01*
X2803164Y1646923D01*
X2810090Y1633067D01*
X2817020Y1626141D01*
X2837802Y1619211D01*
X2900146Y1619211D01*
X2757444Y1695411D02*
G01*
X2722808Y1549941D01*
X2688170Y1695411D02*
G01*
X2722808Y1549941D01*
X2688170Y1695411D02*
G01*
X2653535Y1549941D01*
X2618900Y1695411D02*
G01*
X2653535Y1549941D01*
X2573180Y1695411D02*
G01*
X2573180Y1549941D01*
X2573180Y1695411D02*
G01*
X2517762Y1549941D01*
X2462342Y1695411D02*
G01*
X2517762Y1549941D01*
X2462342Y1695411D02*
G01*
X2462342Y1549941D01*
X3235782Y455993D02*
G01*
X3235782Y352084D01*
X3228855Y331304D01*
X3214999Y317449D01*
X3194217Y310522D01*
X3180364Y310522D01*
X3159582Y317449D01*
X3145726Y331304D01*
X3138799Y352084D01*
X3138799Y455993D01*
X3037662Y455993D02*
G01*
X3093079Y310522D01*
X3037662Y455993D02*
G01*
X2982244Y310522D01*
X3072297Y359013D02*
G01*
X3003026Y359013D01*
X2936524Y455993D02*
G01*
X2936524Y310522D01*
X2936524Y455993D02*
G01*
X2874177Y455993D01*
X2853397Y449066D01*
X2846468Y442140D01*
X2839542Y428284D01*
X2839542Y414431D01*
X2846468Y400575D01*
X2853397Y393649D01*
X2874177Y386722D01*
X2936524Y386722D01*
X2888033Y386722D02*
G01*
X2839542Y310522D01*
X2745331Y455993D02*
G01*
X2745331Y310522D01*
X2793822Y455993D02*
G01*
X2696839Y455993D01*
X2495948Y483704D02*
G01*
X2509804Y469849D01*
X2523657Y449066D01*
X2537513Y421358D01*
X2544439Y386722D01*
X2544439Y359013D01*
X2537513Y324375D01*
X2523657Y296666D01*
X2509804Y275884D01*
X2495948Y262031D01*
X2450228Y407504D02*
G01*
X2450228Y262031D01*
X2450228Y386722D02*
G01*
X2436375Y400575D01*
X2422519Y407504D01*
X2401737Y407504D01*
X2387884Y400575D01*
X2374028Y386722D01*
X2367102Y365940D01*
X2367102Y352084D01*
X2374028Y331304D01*
X2387884Y317449D01*
X2401737Y310522D01*
X2422519Y310522D01*
X2436375Y317449D01*
X2450228Y331304D01*
X2321382Y455993D02*
G01*
X2314455Y449066D01*
X2307526Y455993D01*
X2314455Y462922D01*
X2321382Y455993D01*
X2314455Y407504D02*
G01*
X2314455Y310522D01*
X2192535Y455993D02*
G01*
X2261806Y359013D01*
X2157897Y359013D01*
X2192535Y455993D02*
G01*
X2192535Y310522D01*
X2112177Y483704D02*
G01*
X2098324Y469849D01*
X2084468Y449066D01*
X2070615Y421358D01*
X2063686Y386722D01*
X2063686Y359013D01*
X2070615Y324375D01*
X2084468Y296666D01*
X2098324Y275884D01*
X2112177Y262031D01*
X5572920Y1543011D02*
G01*
X5642190Y1543011D01*
X5649120Y1480667D01*
X5642190Y1487594D01*
X5621411Y1494523D01*
X5600628Y1494523D01*
X5579846Y1487594D01*
X5565990Y1473741D01*
X5559064Y1452958D01*
X5559064Y1439103D01*
X5565990Y1418323D01*
X5579846Y1404467D01*
X5600628Y1397541D01*
X5621411Y1397541D01*
X5642190Y1404467D01*
X5649120Y1411394D01*
X5656046Y1425249D01*
X5513344Y1543011D02*
G01*
X5457926Y1397541D01*
X5402508Y1543011D02*
G01*
X5457926Y1397541D01*
X5236253Y1543011D02*
G01*
X5160053Y1543011D01*
X5201617Y1487594D01*
X5180835Y1487594D01*
X5166982Y1480667D01*
X5160053Y1473741D01*
X5153126Y1452958D01*
X5153126Y1439103D01*
X5160053Y1418323D01*
X5173908Y1404467D01*
X5194691Y1397541D01*
X5215470Y1397541D01*
X5236253Y1404467D01*
X5243182Y1411394D01*
X5250108Y1425249D01*
X5107406Y1543011D02*
G01*
X5051988Y1397541D01*
X4996571Y1543011D02*
G01*
X5051988Y1397541D01*
X4936995Y1543011D02*
G01*
X4860795Y1543011D01*
X4902360Y1487594D01*
X4881577Y1487594D01*
X4867722Y1480667D01*
X4860795Y1473741D01*
X4853868Y1452958D01*
X4853868Y1439103D01*
X4860795Y1418323D01*
X4874651Y1404467D01*
X4895430Y1397541D01*
X4916213Y1397541D01*
X4936995Y1404467D01*
X4943922Y1411394D01*
X4950851Y1425249D01*
D10*
X4943251Y17307389D02*
G01*
X5109504Y17307389D01*
X5026378Y17390516D02*
G01*
X5026378Y17224260D01*
X4915542Y17052465D02*
G01*
X4915542Y17144829D01*
X4998669Y17154065D01*
X4989433Y17144829D01*
X4980195Y17117120D01*
X4980195Y17089412D01*
X4989433Y17061700D01*
X5007904Y17043229D01*
X5035613Y17033991D01*
X5054086Y17033991D01*
X5081795Y17043229D01*
X5100269Y17061700D01*
X5109504Y17089412D01*
X5109504Y17117120D01*
X5100269Y17144829D01*
X5091033Y17154065D01*
X5072560Y17163300D01*
X4915542Y16973031D02*
G01*
X5109504Y16899140D01*
X4915542Y16825252D02*
G01*
X5109504Y16899140D01*
X6066624Y17213872D02*
G01*
X6048151Y17223107D01*
X6029678Y17241580D01*
X6020442Y17260051D01*
X6020442Y17296998D01*
X6029678Y17315472D01*
X6048151Y17333942D01*
X6066624Y17343180D01*
X6094333Y17352416D01*
X6140513Y17352416D01*
X6168224Y17343180D01*
X6186695Y17333942D01*
X6205169Y17315472D01*
X6214404Y17296998D01*
X6214404Y17260051D01*
X6205169Y17241580D01*
X6186695Y17223107D01*
X6168224Y17213872D01*
X6140513Y17213872D01*
X6140513Y17260051D02*
G01*
X6140513Y17213872D01*
X6020442Y17152912D02*
G01*
X6214404Y17152912D01*
X6020442Y17152912D02*
G01*
X6214404Y17023600D01*
X6020442Y17023600D02*
G01*
X6214404Y17023600D01*
X6020442Y16962640D02*
G01*
X6214404Y16962640D01*
X6020442Y16962640D02*
G01*
X6020442Y16897987D01*
X6029678Y16870278D01*
X6048151Y16851805D01*
X6066624Y16842569D01*
X6094333Y16833331D01*
X6140513Y16833331D01*
X6168224Y16842569D01*
X6186695Y16851805D01*
X6205169Y16870278D01*
X6214404Y16897987D01*
X6214404Y16962640D01*
D11*
X5746356Y11209007D02*
G01*
X5670156Y11209007D01*
X5711720Y11153589D01*
X5690938Y11153589D01*
X5677085Y11146662D01*
X5670156Y11139736D01*
X5663229Y11118954D01*
X5663229Y11105098D01*
X5670156Y11084318D01*
X5684011Y11070462D01*
X5704794Y11063536D01*
X5725576Y11063536D01*
X5746356Y11070462D01*
X5753285Y11077389D01*
X5760211Y11091245D01*
X5575947Y11209007D02*
G01*
X5596727Y11202080D01*
X5610583Y11181298D01*
X5617509Y11146662D01*
X5617509Y11125880D01*
X5610583Y11091245D01*
X5596727Y11070462D01*
X5575947Y11063536D01*
X5562091Y11063536D01*
X5541309Y11070462D01*
X5527456Y11091245D01*
X5520527Y11125880D01*
X5520527Y11146662D01*
X5527456Y11181298D01*
X5541309Y11202080D01*
X5562091Y11209007D01*
X5575947Y11209007D01*
X5474807Y11160518D02*
G01*
X5398607Y11063536D01*
X5398607Y11160518D02*
G01*
X5474807Y11063536D01*
X5283616Y11209007D02*
G01*
X5352887Y11112027D01*
X5248978Y11112027D01*
X5283616Y11209007D02*
G01*
X5283616Y11063536D01*
X5161696Y11209007D02*
G01*
X5182476Y11202080D01*
X5196331Y11181298D01*
X5203258Y11146662D01*
X5203258Y11125880D01*
X5196331Y11091245D01*
X5182476Y11070462D01*
X5161696Y11063536D01*
X5147840Y11063536D01*
X5127058Y11070462D01*
X5113205Y11091245D01*
X5106276Y11125880D01*
X5106276Y11146662D01*
X5113205Y11181298D01*
X5127058Y11202080D01*
X5147840Y11209007D01*
X5161696Y11209007D01*
X5060556Y11160518D02*
G01*
X5060556Y11063536D01*
X5060556Y11132807D02*
G01*
X5039776Y11153589D01*
X5025920Y11160518D01*
X5005138Y11160518D01*
X4991285Y11153589D01*
X4984356Y11132807D01*
X4984356Y11063536D01*
X4984356Y11132807D02*
G01*
X4963576Y11153589D01*
X4949720Y11160518D01*
X4928938Y11160518D01*
X4915085Y11153589D01*
X4908156Y11132807D01*
X4908156Y11063536D01*
X4862436Y11160518D02*
G01*
X4862436Y11063536D01*
X4862436Y11132807D02*
G01*
X4841656Y11153589D01*
X4827800Y11160518D01*
X4807018Y11160518D01*
X4793165Y11153589D01*
X4786236Y11132807D01*
X4786236Y11063536D01*
X4786236Y11132807D02*
G01*
X4765456Y11153589D01*
X4751600Y11160518D01*
X4730818Y11160518D01*
X4716965Y11153589D01*
X4710036Y11132807D01*
X4710036Y11063536D01*
X5760211Y10955007D02*
G01*
X5760211Y10809536D01*
X5760211Y10955007D02*
G01*
X5704794Y10809536D01*
X5649376Y10955007D02*
G01*
X5704794Y10809536D01*
X5649376Y10955007D02*
G01*
X5649376Y10809536D01*
X5589800Y10955007D02*
G01*
X5513600Y10955007D01*
X5555165Y10899589D01*
X5534383Y10899589D01*
X5520527Y10892662D01*
X5513600Y10885736D01*
X5506674Y10864954D01*
X5506674Y10851098D01*
X5513600Y10830318D01*
X5527456Y10816462D01*
X5548236Y10809536D01*
X5569018Y10809536D01*
X5589800Y10816462D01*
X5596727Y10823389D01*
X5603656Y10837245D01*
D10*
X11644977Y21221476D02*
G01*
X11741957Y21053498D01*
X11644977Y21221476D02*
G01*
X11677964Y21016554D01*
X11516992Y21147585D02*
G01*
X11677964Y21016554D01*
X11516992Y21147585D02*
G01*
X11613974Y20979607D01*
X11400208Y21080158D02*
G01*
X11561180Y20949127D01*
X11400208Y21080158D02*
G01*
X11433197Y20875236D01*
X11504858Y20991266D02*
G01*
X11424869Y20945083D01*
X11283424Y21012734D02*
G01*
X11380406Y20844756D01*
X11230630Y20982254D02*
G01*
X11327612Y20814276D01*
X11230630Y20982254D02*
G01*
X11215629Y20749623D01*
X11118646Y20917598D02*
G01*
X11215629Y20749623D01*
X10967722Y20798467D02*
G01*
X10974486Y20823702D01*
X10993864Y20845556D01*
X11025858Y20864027D01*
X11054476Y20869884D01*
X11079708Y20863123D01*
X11088944Y20847123D01*
X11090183Y20826509D01*
X11086802Y20813892D01*
X11075423Y20796656D01*
X11036665Y20752950D01*
X11025286Y20735714D01*
X11021905Y20723098D01*
X11023140Y20702480D01*
X11036995Y20678485D01*
X11062230Y20671723D01*
X11090843Y20677578D01*
X11122840Y20696052D01*
X11142220Y20717906D01*
X11148979Y20743138D01*
X10777893Y20720865D02*
G01*
X10810882Y20515943D01*
X10649910Y20646974D02*
G01*
X10810882Y20515943D01*
X10549122Y20588785D02*
G01*
X10569740Y20590022D01*
X10594975Y20583260D01*
X10612208Y20571881D01*
X10634063Y20552501D01*
X10657151Y20512509D01*
X10663008Y20483893D01*
X10664245Y20463278D01*
X10657484Y20438043D01*
X10646105Y20420807D01*
X10614108Y20402336D01*
X10593494Y20401097D01*
X10568259Y20407858D01*
X10551025Y20419237D01*
X10529171Y20438618D01*
X10506080Y20478612D01*
X10500225Y20507225D01*
X10498985Y20527843D01*
X10505747Y20553078D01*
X10517129Y20570311D01*
X10549122Y20588785D01*
X10416341Y20512123D02*
G01*
X10513324Y20344147D01*
X10513324Y20344147D02*
G01*
X10417335Y20288727D01*
X10211569Y20393898D02*
G01*
X10308551Y20225920D01*
X10267561Y20426225D02*
G01*
X10155575Y20361569D01*
X10038791Y20294145D02*
G01*
X10199763Y20163114D01*
X10038791Y20294145D02*
G01*
X10071780Y20089223D01*
X10143441Y20205250D02*
G01*
X10063452Y20159068D01*
X9825116Y20117452D02*
G01*
X9823876Y20138067D01*
X9830638Y20163302D01*
X9842019Y20180538D01*
X9874013Y20199009D01*
X9894630Y20200249D01*
X9919865Y20193487D01*
X9937099Y20182105D01*
X9958953Y20162728D01*
X9982042Y20122733D01*
X9987899Y20094117D01*
X9989136Y20073503D01*
X9982375Y20048268D01*
X9970996Y20031034D01*
X9938999Y20012560D01*
X9918385Y20011323D01*
X9893150Y20018085D01*
X9875916Y20029464D01*
X9862060Y20053462D01*
X9902055Y20076553D02*
G01*
X9862060Y20053462D01*
X9749231Y20126967D02*
G01*
X9846213Y19958989D01*
X9749231Y20126967D02*
G01*
X9645246Y20066929D01*
X9795413Y20046977D02*
G01*
X9731420Y20010033D01*
X9846213Y19958989D02*
G01*
X9742225Y19898954D01*
D11*
X2957202Y1091125D02*
G01*
X3034253Y1014074D01*
X2957202Y1091125D02*
G01*
X2924154Y1058077D01*
X2916791Y1043531D01*
X2916791Y1035987D01*
X2920563Y1025029D01*
X2927926Y1017666D01*
X2938884Y1013894D01*
X2946247Y1014074D01*
X2960794Y1021438D01*
X2993842Y1054486D01*
X2968157Y1028801D02*
G01*
X2982887Y962708D01*
X2844769Y978692D02*
G01*
X2932955Y964143D01*
X2877817Y909005D01*
X2844769Y978692D02*
G01*
X2921820Y901641D01*
X2794840Y928761D02*
G01*
X2754429Y888352D01*
X2805976Y880986D01*
X2794840Y869850D01*
X2791068Y858895D01*
X2791068Y851712D01*
X2798432Y836805D01*
X2805795Y829439D01*
X2820522Y822256D01*
X2835252Y822256D01*
X2849798Y829619D01*
X2860934Y840755D01*
X2868297Y855304D01*
X2868297Y862487D01*
X2864705Y873622D01*
X2455265Y982192D02*
G01*
X2455265Y873226D01*
X2455265Y982192D02*
G01*
X2408529Y982192D01*
X2393035Y977112D01*
X2387701Y971778D01*
X2382621Y961364D01*
X2382621Y950950D01*
X2387701Y940536D01*
X2393035Y935456D01*
X2408529Y930376D01*
X2455265Y930376D01*
X2418943Y930376D02*
G01*
X2382621Y873226D01*
X2296261Y982192D02*
G01*
X2348331Y909548D01*
X2270353Y909548D01*
X2296261Y982192D02*
G01*
X2296261Y873226D01*
X2183993Y982192D02*
G01*
X2236063Y909548D01*
X2158085Y909548D01*
X2183993Y982192D02*
G01*
X2183993Y873226D01*
X6975983Y3249513D02*
G01*
X6867016Y3249513D01*
X6975983Y3249513D02*
G01*
X6975983Y3296249D01*
X6970902Y3311743D01*
X6965568Y3317077D01*
X6955154Y3322157D01*
X6944740Y3322157D01*
X6934327Y3317077D01*
X6929247Y3311743D01*
X6924166Y3296249D01*
X6924166Y3249513D01*
X6924166Y3285835D02*
G01*
X6867016Y3322157D01*
X6975983Y3408517D02*
G01*
X6903338Y3356447D01*
X6903338Y3434425D01*
X6975983Y3408517D02*
G01*
X6867016Y3408517D01*
X6955154Y3468715D02*
G01*
X6960488Y3479129D01*
X6975983Y3494623D01*
X6867016Y3494623D01*
X6721983Y3249513D02*
G01*
X6613016Y3249513D01*
X6721983Y3249513D02*
G01*
X6721983Y3296249D01*
X6716902Y3311743D01*
X6711568Y3317077D01*
X6701154Y3322157D01*
X6690740Y3322157D01*
X6680327Y3317077D01*
X6675247Y3311743D01*
X6670166Y3296249D01*
X6670166Y3249513D01*
X6670166Y3285835D02*
G01*
X6613016Y3322157D01*
X6721983Y3408517D02*
G01*
X6649338Y3356447D01*
X6649338Y3434425D01*
X6721983Y3408517D02*
G01*
X6613016Y3408517D01*
X6696075Y3474049D02*
G01*
X6701154Y3474049D01*
X6711568Y3479129D01*
X6716902Y3484463D01*
X6721983Y3494623D01*
X6721983Y3515451D01*
X6716902Y3525865D01*
X6711568Y3531199D01*
X6701154Y3536279D01*
X6690740Y3536279D01*
X6680327Y3531199D01*
X6664833Y3520785D01*
X6613016Y3468715D01*
X6613016Y3541613D01*
X1062451Y17727985D02*
G01*
X1067648Y17738377D01*
X1078039Y17748768D01*
X1088428Y17753962D01*
X1109210Y17753962D01*
X1119601Y17748768D01*
X1129992Y17738377D01*
X1135189Y17727985D01*
X1140383Y17712397D01*
X1140383Y17686421D01*
X1135189Y17670835D01*
X1129992Y17660444D01*
X1119601Y17650053D01*
X1109210Y17644859D01*
X1088428Y17644859D01*
X1078039Y17650053D01*
X1067648Y17660444D01*
X1062451Y17670835D01*
X1028161Y17733180D02*
G01*
X1017770Y17738377D01*
X1002184Y17753962D01*
X1002184Y17644859D01*
X1121887Y16227988D02*
G01*
X1127084Y16238380D01*
X1137475Y16248771D01*
X1147864Y16253965D01*
X1168646Y16253965D01*
X1179037Y16248771D01*
X1189428Y16238380D01*
X1194625Y16227988D01*
X1199819Y16212400D01*
X1199819Y16186424D01*
X1194625Y16170838D01*
X1189428Y16160447D01*
X1179037Y16150056D01*
X1168646Y16144862D01*
X1147864Y16144862D01*
X1137475Y16150056D01*
X1127084Y16160447D01*
X1121887Y16170838D01*
X1082403Y16227988D02*
G01*
X1082403Y16233183D01*
X1077206Y16243574D01*
X1072012Y16248771D01*
X1061620Y16253965D01*
X1040838Y16253965D01*
X1030447Y16248771D01*
X1025253Y16243574D01*
X1020056Y16233183D01*
X1020056Y16222792D01*
X1025253Y16212400D01*
X1035644Y16196815D01*
X1087597Y16144862D01*
X1014862Y16144862D01*
X1109187Y14727991D02*
G01*
X1114384Y14738383D01*
X1124775Y14748774D01*
X1135164Y14753968D01*
X1155946Y14753968D01*
X1166337Y14748774D01*
X1176728Y14738383D01*
X1181925Y14727991D01*
X1187119Y14712403D01*
X1187119Y14686427D01*
X1181925Y14670841D01*
X1176728Y14660450D01*
X1166337Y14650059D01*
X1155946Y14644865D01*
X1135164Y14644865D01*
X1124775Y14650059D01*
X1114384Y14660450D01*
X1109187Y14670841D01*
X1064506Y14753968D02*
G01*
X1007356Y14753968D01*
X1038529Y14712403D01*
X1022944Y14712403D01*
X1012553Y14707209D01*
X1007356Y14702015D01*
X1002162Y14686427D01*
X1002162Y14676036D01*
X1007356Y14660450D01*
X1017747Y14650059D01*
X1033335Y14644865D01*
X1048920Y14644865D01*
X1064506Y14650059D01*
X1069703Y14655253D01*
X1074897Y14665645D01*
X1114521Y13227994D02*
G01*
X1119718Y13238386D01*
X1130109Y13248777D01*
X1140498Y13253971D01*
X1161280Y13253971D01*
X1171671Y13248777D01*
X1182062Y13238386D01*
X1187259Y13227994D01*
X1192453Y13212406D01*
X1192453Y13186430D01*
X1187259Y13170844D01*
X1182062Y13160453D01*
X1171671Y13150062D01*
X1161280Y13144868D01*
X1140498Y13144868D01*
X1130109Y13150062D01*
X1119718Y13160453D01*
X1114521Y13170844D01*
X1028278Y13253971D02*
G01*
X1080231Y13181236D01*
X1002299Y13181236D01*
X1028278Y13253971D02*
G01*
X1028278Y13144868D01*
X5933897Y3477867D02*
G01*
X5933897Y3368763D01*
X5933897Y3477867D02*
G01*
X5887138Y3477867D01*
X5871552Y3472672D01*
X5866356Y3467475D01*
X5861161Y3457084D01*
X5861161Y3446693D01*
X5866356Y3436302D01*
X5871552Y3431108D01*
X5887138Y3425913D01*
X5933897Y3425913D01*
X5897529Y3425913D02*
G01*
X5861161Y3368763D01*
X5826871Y3457084D02*
G01*
X5816480Y3462281D01*
X5800892Y3477867D01*
X5800892Y3368763D01*
X5910249Y3336363D02*
G01*
X5910249Y3227260D01*
X5910249Y3336363D02*
G01*
X5863490Y3336363D01*
X5847905Y3331169D01*
X5842708Y3325972D01*
X5837514Y3315581D01*
X5837514Y3305190D01*
X5842708Y3294799D01*
X5847905Y3289604D01*
X5863490Y3284410D01*
X5910249Y3284410D01*
X5873882Y3284410D02*
G01*
X5837514Y3227260D01*
X5798027Y3310387D02*
G01*
X5798027Y3315581D01*
X5792833Y3325972D01*
X5787636Y3331169D01*
X5777245Y3336363D01*
X5756465Y3336363D01*
X5746074Y3331169D01*
X5740877Y3325972D01*
X5735683Y3315581D01*
X5735683Y3305190D01*
X5740877Y3294799D01*
X5751268Y3279213D01*
X5803224Y3227260D01*
X5730486Y3227260D01*
X5449290Y16532603D02*
G01*
X5449290Y16423500D01*
X5449290Y16532603D02*
G01*
X5402531Y16532603D01*
X5386946Y16527409D01*
X5381749Y16522212D01*
X5376555Y16511821D01*
X5376555Y16501430D01*
X5381749Y16491038D01*
X5386946Y16485844D01*
X5402531Y16480650D01*
X5449290Y16480650D01*
X5412922Y16480650D02*
G01*
X5376555Y16423500D01*
X5331874Y16532603D02*
G01*
X5274724Y16532603D01*
X5305894Y16491038D01*
X5290309Y16491038D01*
X5279918Y16485844D01*
X5274724Y16480650D01*
X5269527Y16465062D01*
X5269527Y16454671D01*
X5274724Y16439085D01*
X5285115Y16428694D01*
X5300700Y16423500D01*
X5316286Y16423500D01*
X5331874Y16428694D01*
X5337068Y16433888D01*
X5342265Y16444280D01*
X5451856Y17790182D02*
G01*
X5451856Y17681079D01*
X5451856Y17790182D02*
G01*
X5405097Y17790182D01*
X5389511Y17784988D01*
X5384314Y17779791D01*
X5379120Y17769400D01*
X5379120Y17759009D01*
X5384314Y17748618D01*
X5389511Y17743424D01*
X5405097Y17738229D01*
X5451856Y17738229D01*
X5415488Y17738229D02*
G01*
X5379120Y17681079D01*
X5292874Y17790182D02*
G01*
X5344830Y17717447D01*
X5266898Y17717447D01*
X5292874Y17790182D02*
G01*
X5292874Y17681079D01*
X5855690Y16532603D02*
G01*
X5855690Y16423500D01*
X5855690Y16532603D02*
G01*
X5808931Y16532603D01*
X5793346Y16527409D01*
X5788149Y16522212D01*
X5782955Y16511821D01*
X5782955Y16501430D01*
X5788149Y16491038D01*
X5793346Y16485844D01*
X5808931Y16480650D01*
X5855690Y16480650D01*
X5819322Y16480650D02*
G01*
X5782955Y16423500D01*
X5686318Y16532603D02*
G01*
X5738274Y16532603D01*
X5743468Y16485844D01*
X5738274Y16491038D01*
X5722686Y16496235D01*
X5707100Y16496235D01*
X5691515Y16491038D01*
X5681124Y16480650D01*
X5675927Y16465062D01*
X5675927Y16454671D01*
X5681124Y16439085D01*
X5691515Y16428694D01*
X5707100Y16423500D01*
X5722686Y16423500D01*
X5738274Y16428694D01*
X5743468Y16433888D01*
X5748665Y16444280D01*
X5853049Y17790182D02*
G01*
X5853049Y17681079D01*
X5853049Y17790182D02*
G01*
X5806290Y17790182D01*
X5790704Y17784988D01*
X5785507Y17779791D01*
X5780313Y17769400D01*
X5780313Y17759009D01*
X5785507Y17748618D01*
X5790704Y17743424D01*
X5806290Y17738229D01*
X5853049Y17738229D01*
X5816681Y17738229D02*
G01*
X5780313Y17681079D01*
X5683676Y17774597D02*
G01*
X5688873Y17784988D01*
X5704459Y17790182D01*
X5714850Y17790182D01*
X5730435Y17784988D01*
X5740826Y17769400D01*
X5746023Y17743424D01*
X5746023Y17717447D01*
X5740826Y17696665D01*
X5730435Y17686274D01*
X5714850Y17681079D01*
X5709653Y17681079D01*
X5694067Y17686274D01*
X5683676Y17696665D01*
X5678482Y17712250D01*
X5678482Y17717447D01*
X5683676Y17733032D01*
X5694067Y17743424D01*
X5709653Y17748618D01*
X5714850Y17748618D01*
X5730435Y17743424D01*
X5740826Y17733032D01*
X5746023Y17717447D01*
X5144693Y15721225D02*
G01*
X5144693Y15612122D01*
X5144693Y15721225D02*
G01*
X5097934Y15721225D01*
X5082349Y15716031D01*
X5077152Y15710834D01*
X5071958Y15700443D01*
X5071958Y15690052D01*
X5077152Y15679661D01*
X5082349Y15674467D01*
X5097934Y15669272D01*
X5144693Y15669272D01*
X5108326Y15669272D02*
G01*
X5071958Y15612122D01*
X4964930Y15721225D02*
G01*
X5016886Y15612122D01*
X5037668Y15721225D02*
G01*
X4964930Y15721225D01*
X5144693Y15502785D02*
G01*
X5144693Y15393682D01*
X5144693Y15502785D02*
G01*
X5097934Y15502785D01*
X5082349Y15497591D01*
X5077152Y15492394D01*
X5071958Y15482003D01*
X5071958Y15471612D01*
X5077152Y15461221D01*
X5082349Y15456027D01*
X5097934Y15450832D01*
X5144693Y15450832D01*
X5108326Y15450832D02*
G01*
X5071958Y15393682D01*
X5011689Y15502785D02*
G01*
X5027277Y15497591D01*
X5032471Y15487200D01*
X5032471Y15476809D01*
X5027277Y15466418D01*
X5016886Y15461221D01*
X4996103Y15456027D01*
X4980518Y15450832D01*
X4970127Y15440441D01*
X4964930Y15430050D01*
X4964930Y15414462D01*
X4970127Y15404071D01*
X4975321Y15398877D01*
X4990909Y15393682D01*
X5011689Y15393682D01*
X5027277Y15398877D01*
X5032471Y15404071D01*
X5037668Y15414462D01*
X5037668Y15430050D01*
X5032471Y15440441D01*
X5022080Y15450832D01*
X5006494Y15456027D01*
X4985712Y15461221D01*
X4975321Y15466418D01*
X4970127Y15476809D01*
X4970127Y15487200D01*
X4975321Y15497591D01*
X4990909Y15502785D01*
X5011689Y15502785D01*
X5144693Y15284345D02*
G01*
X5144693Y15175242D01*
X5144693Y15284345D02*
G01*
X5097934Y15284345D01*
X5082349Y15279151D01*
X5077152Y15273954D01*
X5071958Y15263563D01*
X5071958Y15253172D01*
X5077152Y15242781D01*
X5082349Y15237587D01*
X5097934Y15232392D01*
X5144693Y15232392D01*
X5108326Y15232392D02*
G01*
X5071958Y15175242D01*
X4970127Y15247978D02*
G01*
X4975321Y15232392D01*
X4985712Y15222001D01*
X5001298Y15216804D01*
X5006494Y15216804D01*
X5022080Y15222001D01*
X5032471Y15232392D01*
X5037668Y15247978D01*
X5037668Y15253172D01*
X5032471Y15268760D01*
X5022080Y15279151D01*
X5006494Y15284345D01*
X5001298Y15284345D01*
X4985712Y15279151D01*
X4975321Y15268760D01*
X4970127Y15247978D01*
X4970127Y15222001D01*
X4975321Y15196022D01*
X4985712Y15180437D01*
X5001298Y15175242D01*
X5011689Y15175242D01*
X5027277Y15180437D01*
X5032471Y15190828D01*
X5144693Y15065905D02*
G01*
X5144693Y14956802D01*
X5144693Y15065905D02*
G01*
X5097934Y15065905D01*
X5082349Y15060711D01*
X5077152Y15055514D01*
X5071958Y15045123D01*
X5071958Y15034732D01*
X5077152Y15024341D01*
X5082349Y15019146D01*
X5097934Y15013952D01*
X5144693Y15013952D01*
X5108326Y15013952D02*
G01*
X5071958Y14956802D01*
X5037668Y15045123D02*
G01*
X5027277Y15050320D01*
X5011689Y15065905D01*
X5011689Y14956802D01*
X4946228Y15065905D02*
G01*
X4961813Y15060711D01*
X4972204Y15045123D01*
X4977399Y15019146D01*
X4977399Y15003561D01*
X4972204Y14977582D01*
X4961813Y14961996D01*
X4946228Y14956802D01*
X4935837Y14956802D01*
X4920249Y14961996D01*
X4909858Y14977582D01*
X4904663Y15003561D01*
X4904663Y15019146D01*
X4909858Y15045123D01*
X4920249Y15060711D01*
X4935837Y15065905D01*
X4946228Y15065905D01*
X5144693Y14847465D02*
G01*
X5144693Y14738362D01*
X5144693Y14847465D02*
G01*
X5097934Y14847465D01*
X5082349Y14842271D01*
X5077152Y14837074D01*
X5071958Y14826683D01*
X5071958Y14816292D01*
X5077152Y14805901D01*
X5082349Y14800706D01*
X5097934Y14795512D01*
X5144693Y14795512D01*
X5108326Y14795512D02*
G01*
X5071958Y14738362D01*
X5037668Y14826683D02*
G01*
X5027277Y14831880D01*
X5011689Y14847465D01*
X5011689Y14738362D01*
X4977399Y14826683D02*
G01*
X4967008Y14831880D01*
X4951422Y14847465D01*
X4951422Y14738362D01*
X5144693Y14629025D02*
G01*
X5144693Y14519922D01*
X5144693Y14629025D02*
G01*
X5097934Y14629025D01*
X5082349Y14623831D01*
X5077152Y14618634D01*
X5071958Y14608243D01*
X5071958Y14597852D01*
X5077152Y14587461D01*
X5082349Y14582267D01*
X5097934Y14577072D01*
X5144693Y14577072D01*
X5108326Y14577072D02*
G01*
X5071958Y14519922D01*
X5037668Y14608243D02*
G01*
X5027277Y14613440D01*
X5011689Y14629025D01*
X5011689Y14519922D01*
X4972204Y14603049D02*
G01*
X4972204Y14608243D01*
X4967008Y14618634D01*
X4961813Y14623831D01*
X4951422Y14629025D01*
X4930640Y14629025D01*
X4920249Y14623831D01*
X4915054Y14618634D01*
X4909858Y14608243D01*
X4909858Y14597852D01*
X4915054Y14587461D01*
X4925446Y14571875D01*
X4977399Y14519922D01*
X4904663Y14519922D01*
X1392430Y17921452D02*
G01*
X1501533Y17921452D01*
X1392430Y17921452D02*
G01*
X1392430Y17874693D01*
X1397624Y17859108D01*
X1402821Y17853911D01*
X1413212Y17848717D01*
X1423603Y17848717D01*
X1433995Y17853911D01*
X1439189Y17859108D01*
X1444383Y17874693D01*
X1444383Y17921452D01*
X1444383Y17885084D02*
G01*
X1501533Y17848717D01*
X1413212Y17814427D02*
G01*
X1408015Y17804036D01*
X1392430Y17788448D01*
X1501533Y17788448D01*
X1428798Y17686616D02*
G01*
X1444383Y17691813D01*
X1454774Y17702204D01*
X1459971Y17717790D01*
X1459971Y17722987D01*
X1454774Y17738572D01*
X1444383Y17748963D01*
X1428798Y17754158D01*
X1423603Y17754158D01*
X1408015Y17748963D01*
X1397624Y17738572D01*
X1392430Y17722987D01*
X1392430Y17717790D01*
X1397624Y17702204D01*
X1408015Y17691813D01*
X1428798Y17686616D01*
X1454774Y17686616D01*
X1480753Y17691813D01*
X1496339Y17702204D01*
X1501533Y17717790D01*
X1501533Y17728181D01*
X1496339Y17743766D01*
X1485948Y17748963D01*
X1416763Y16813021D02*
G01*
X1525866Y16813021D01*
X1416763Y16813021D02*
G01*
X1416763Y16766263D01*
X1421958Y16750677D01*
X1427154Y16745480D01*
X1437546Y16740286D01*
X1447937Y16740286D01*
X1458328Y16745480D01*
X1463522Y16750677D01*
X1468716Y16766263D01*
X1468716Y16813021D01*
X1468716Y16776654D02*
G01*
X1525866Y16740286D01*
X1442740Y16700799D02*
G01*
X1437546Y16700799D01*
X1427154Y16695605D01*
X1421958Y16690408D01*
X1416763Y16680017D01*
X1416763Y16659237D01*
X1421958Y16648846D01*
X1427154Y16643649D01*
X1437546Y16638455D01*
X1447937Y16638455D01*
X1458328Y16643649D01*
X1473913Y16654040D01*
X1525866Y16705996D01*
X1525866Y16633258D01*
X1416763Y16567797D02*
G01*
X1421958Y16583383D01*
X1437546Y16593774D01*
X1463522Y16598968D01*
X1479108Y16598968D01*
X1505087Y16593774D01*
X1520672Y16583383D01*
X1525866Y16567797D01*
X1525866Y16557406D01*
X1520672Y16541818D01*
X1505087Y16531427D01*
X1479108Y16526233D01*
X1463522Y16526233D01*
X1437546Y16531427D01*
X1421958Y16541818D01*
X1416763Y16557406D01*
X1416763Y16567797D01*
X1407264Y15871799D02*
G01*
X1516367Y15871799D01*
X1407264Y15871799D02*
G01*
X1407264Y15825040D01*
X1412458Y15809455D01*
X1417655Y15804258D01*
X1428046Y15799064D01*
X1438437Y15799064D01*
X1448828Y15804258D01*
X1454022Y15809455D01*
X1459217Y15825040D01*
X1459217Y15871799D01*
X1459217Y15835431D02*
G01*
X1516367Y15799064D01*
X1433240Y15759577D02*
G01*
X1428046Y15759577D01*
X1417655Y15754383D01*
X1412458Y15749186D01*
X1407264Y15738795D01*
X1407264Y15718015D01*
X1412458Y15707624D01*
X1417655Y15702427D01*
X1428046Y15697233D01*
X1438437Y15697233D01*
X1448828Y15702427D01*
X1464414Y15712818D01*
X1516367Y15764774D01*
X1516367Y15692036D01*
X1428046Y15657746D02*
G01*
X1422849Y15647355D01*
X1407264Y15631769D01*
X1516367Y15631769D01*
X1407264Y14411299D02*
G01*
X1516367Y14411299D01*
X1407264Y14411299D02*
G01*
X1407264Y14364540D01*
X1412458Y14348955D01*
X1417655Y14343758D01*
X1428046Y14338564D01*
X1438437Y14338564D01*
X1448828Y14343758D01*
X1454022Y14348955D01*
X1459217Y14364540D01*
X1459217Y14411299D01*
X1459217Y14374931D02*
G01*
X1516367Y14338564D01*
X1433240Y14299077D02*
G01*
X1428046Y14299077D01*
X1417655Y14293883D01*
X1412458Y14288686D01*
X1407264Y14278295D01*
X1407264Y14257515D01*
X1412458Y14247124D01*
X1417655Y14241927D01*
X1428046Y14236733D01*
X1438437Y14236733D01*
X1448828Y14241927D01*
X1464414Y14252318D01*
X1516367Y14304274D01*
X1516367Y14231536D01*
X1433240Y14192051D02*
G01*
X1428046Y14192051D01*
X1417655Y14186855D01*
X1412458Y14181660D01*
X1407264Y14171269D01*
X1407264Y14150487D01*
X1412458Y14140096D01*
X1417655Y14134901D01*
X1428046Y14129705D01*
X1438437Y14129705D01*
X1448828Y14134901D01*
X1464414Y14145293D01*
X1516367Y14197246D01*
X1516367Y14124510D01*
X5589165Y13815923D02*
G01*
X5480062Y13815923D01*
X5589165Y13815923D02*
G01*
X5589165Y13862682D01*
X5583971Y13878267D01*
X5578774Y13883464D01*
X5568383Y13888659D01*
X5557992Y13888659D01*
X5547601Y13883464D01*
X5542406Y13878267D01*
X5537212Y13862682D01*
X5537212Y13815923D01*
X5537212Y13852291D02*
G01*
X5480062Y13888659D01*
X5563189Y13928145D02*
G01*
X5568383Y13928145D01*
X5578774Y13933340D01*
X5583971Y13938537D01*
X5589165Y13948928D01*
X5589165Y13969707D01*
X5583971Y13980099D01*
X5578774Y13985295D01*
X5568383Y13990490D01*
X5557992Y13990490D01*
X5547601Y13985295D01*
X5532015Y13974904D01*
X5480062Y13922949D01*
X5480062Y13995687D01*
X5589165Y14102712D02*
G01*
X5480062Y14050759D01*
X5589165Y14029977D02*
G01*
X5589165Y14102712D01*
X5589165Y11983110D02*
G01*
X5480062Y11983110D01*
X5589165Y11983110D02*
G01*
X5589165Y12029869D01*
X5583971Y12045454D01*
X5578774Y12050651D01*
X5568383Y12055845D01*
X5557992Y12055845D01*
X5547601Y12050651D01*
X5542406Y12045454D01*
X5537212Y12029869D01*
X5537212Y11983110D01*
X5537212Y12019478D02*
G01*
X5480062Y12055845D01*
X5563189Y12095332D02*
G01*
X5568383Y12095332D01*
X5578774Y12100526D01*
X5583971Y12105723D01*
X5589165Y12116114D01*
X5589165Y12136894D01*
X5583971Y12147285D01*
X5578774Y12152482D01*
X5568383Y12157676D01*
X5557992Y12157676D01*
X5547601Y12152482D01*
X5532015Y12142091D01*
X5480062Y12090135D01*
X5480062Y12162873D01*
X5589165Y12223140D02*
G01*
X5583971Y12207554D01*
X5573580Y12202358D01*
X5563189Y12202358D01*
X5552798Y12207554D01*
X5547601Y12217946D01*
X5542406Y12238725D01*
X5537212Y12254313D01*
X5526821Y12264704D01*
X5516430Y12269899D01*
X5500842Y12269899D01*
X5490451Y12264704D01*
X5485256Y12259508D01*
X5480062Y12243922D01*
X5480062Y12223140D01*
X5485256Y12207554D01*
X5490451Y12202358D01*
X5500842Y12197163D01*
X5516430Y12197163D01*
X5526821Y12202358D01*
X5537212Y12212749D01*
X5542406Y12228334D01*
X5547601Y12249116D01*
X5552798Y12259508D01*
X5563189Y12264704D01*
X5573580Y12264704D01*
X5583971Y12259508D01*
X5589165Y12243922D01*
X5589165Y12223140D01*
X5241185Y11988190D02*
G01*
X5132082Y11988190D01*
X5241185Y11988190D02*
G01*
X5241185Y12034949D01*
X5235991Y12050534D01*
X5230794Y12055731D01*
X5220403Y12060925D01*
X5210012Y12060925D01*
X5199621Y12055731D01*
X5194427Y12050534D01*
X5189232Y12034949D01*
X5189232Y11988190D01*
X5189232Y12024558D02*
G01*
X5132082Y12060925D01*
X5215209Y12100412D02*
G01*
X5220403Y12100412D01*
X5230794Y12105606D01*
X5235991Y12110803D01*
X5241185Y12121194D01*
X5241185Y12141974D01*
X5235991Y12152365D01*
X5230794Y12157562D01*
X5220403Y12162756D01*
X5210012Y12162756D01*
X5199621Y12157562D01*
X5184035Y12147171D01*
X5132082Y12095215D01*
X5132082Y12167953D01*
X5204818Y12269784D02*
G01*
X5189232Y12264588D01*
X5178841Y12254196D01*
X5173644Y12238611D01*
X5173644Y12233414D01*
X5178841Y12217829D01*
X5189232Y12207438D01*
X5204818Y12202243D01*
X5210012Y12202243D01*
X5225600Y12207438D01*
X5235991Y12217829D01*
X5241185Y12233414D01*
X5241185Y12238611D01*
X5235991Y12254196D01*
X5225600Y12264588D01*
X5204818Y12269784D01*
X5178841Y12269784D01*
X5152862Y12264588D01*
X5137277Y12254196D01*
X5132082Y12238611D01*
X5132082Y12228220D01*
X5137277Y12212634D01*
X5147668Y12207438D01*
X5241185Y13815923D02*
G01*
X5132082Y13815923D01*
X5241185Y13815923D02*
G01*
X5241185Y13862682D01*
X5235991Y13878267D01*
X5230794Y13883464D01*
X5220403Y13888659D01*
X5210012Y13888659D01*
X5199621Y13883464D01*
X5194427Y13878267D01*
X5189232Y13862682D01*
X5189232Y13815923D01*
X5189232Y13852291D02*
G01*
X5132082Y13888659D01*
X5241185Y13933340D02*
G01*
X5241185Y13990490D01*
X5199621Y13959319D01*
X5199621Y13974904D01*
X5194427Y13985295D01*
X5189232Y13990490D01*
X5173644Y13995687D01*
X5163253Y13995687D01*
X5147668Y13990490D01*
X5137277Y13980099D01*
X5132082Y13964513D01*
X5132082Y13948928D01*
X5137277Y13933340D01*
X5142471Y13928145D01*
X5152862Y13922949D01*
X5241185Y14061147D02*
G01*
X5235991Y14045562D01*
X5220403Y14035171D01*
X5194427Y14029977D01*
X5178841Y14029977D01*
X5152862Y14035171D01*
X5137277Y14045562D01*
X5132082Y14061147D01*
X5132082Y14071539D01*
X5137277Y14087127D01*
X5152862Y14097518D01*
X5178841Y14102712D01*
X5194427Y14102712D01*
X5220403Y14097518D01*
X5235991Y14087127D01*
X5241185Y14071539D01*
X5241185Y14061147D01*
X4890665Y12029846D02*
G01*
X4781562Y12029846D01*
X4890665Y12029846D02*
G01*
X4890665Y12076605D01*
X4885471Y12092190D01*
X4880274Y12097387D01*
X4869883Y12102581D01*
X4859492Y12102581D01*
X4849101Y12097387D01*
X4843906Y12092190D01*
X4838712Y12076605D01*
X4838712Y12029846D01*
X4838712Y12066214D02*
G01*
X4781562Y12102581D01*
X4890665Y12147262D02*
G01*
X4890665Y12204412D01*
X4849101Y12173242D01*
X4849101Y12188827D01*
X4843906Y12199218D01*
X4838712Y12204412D01*
X4823124Y12209609D01*
X4812733Y12209609D01*
X4797148Y12204412D01*
X4786756Y12194021D01*
X4781562Y12178436D01*
X4781562Y12162850D01*
X4786756Y12147262D01*
X4791951Y12142068D01*
X4802342Y12136871D01*
X4869883Y12243899D02*
G01*
X4875080Y12254290D01*
X4890665Y12269876D01*
X4781562Y12269876D01*
X4890665Y13815923D02*
G01*
X4781562Y13815923D01*
X4890665Y13815923D02*
G01*
X4890665Y13862682D01*
X4885471Y13878267D01*
X4880274Y13883464D01*
X4869883Y13888659D01*
X4859492Y13888659D01*
X4849101Y13883464D01*
X4843906Y13878267D01*
X4838712Y13862682D01*
X4838712Y13815923D01*
X4838712Y13852291D02*
G01*
X4781562Y13888659D01*
X4890665Y13933340D02*
G01*
X4890665Y13990490D01*
X4849101Y13959319D01*
X4849101Y13974904D01*
X4843906Y13985295D01*
X4838712Y13990490D01*
X4823124Y13995687D01*
X4812733Y13995687D01*
X4797148Y13990490D01*
X4786756Y13980099D01*
X4781562Y13964513D01*
X4781562Y13948928D01*
X4786756Y13933340D01*
X4791951Y13928145D01*
X4802342Y13922949D01*
X4864689Y14035171D02*
G01*
X4869883Y14035171D01*
X4880274Y14040368D01*
X4885471Y14045562D01*
X4890665Y14055953D01*
X4890665Y14076735D01*
X4885471Y14087127D01*
X4880274Y14092321D01*
X4869883Y14097518D01*
X4859492Y14097518D01*
X4849101Y14092321D01*
X4833515Y14081930D01*
X4781562Y14029977D01*
X4781562Y14102712D01*
X4540145Y11983110D02*
G01*
X4431042Y11983110D01*
X4540145Y11983110D02*
G01*
X4540145Y12029869D01*
X4534951Y12045454D01*
X4529754Y12050651D01*
X4519363Y12055845D01*
X4508972Y12055845D01*
X4498581Y12050651D01*
X4493386Y12045454D01*
X4488192Y12029869D01*
X4488192Y11983110D01*
X4488192Y12019478D02*
G01*
X4431042Y12055845D01*
X4540145Y12100526D02*
G01*
X4540145Y12157676D01*
X4498581Y12126506D01*
X4498581Y12142091D01*
X4493386Y12152482D01*
X4488192Y12157676D01*
X4472604Y12162873D01*
X4462213Y12162873D01*
X4446628Y12157676D01*
X4436236Y12147285D01*
X4431042Y12131700D01*
X4431042Y12116114D01*
X4436236Y12100526D01*
X4441431Y12095332D01*
X4451822Y12090135D01*
X4540145Y12207554D02*
G01*
X4540145Y12264704D01*
X4498581Y12233531D01*
X4498581Y12249116D01*
X4493386Y12259508D01*
X4488192Y12264704D01*
X4472604Y12269899D01*
X4462213Y12269899D01*
X4446628Y12264704D01*
X4436236Y12254313D01*
X4431042Y12238725D01*
X4431042Y12223140D01*
X4436236Y12207554D01*
X4441431Y12202358D01*
X4451822Y12197163D01*
X4540145Y13815923D02*
G01*
X4431042Y13815923D01*
X4540145Y13815923D02*
G01*
X4540145Y13862682D01*
X4534951Y13878267D01*
X4529754Y13883464D01*
X4519363Y13888659D01*
X4508972Y13888659D01*
X4498581Y13883464D01*
X4493386Y13878267D01*
X4488192Y13862682D01*
X4488192Y13815923D01*
X4488192Y13852291D02*
G01*
X4431042Y13888659D01*
X4540145Y13933340D02*
G01*
X4540145Y13990490D01*
X4498581Y13959319D01*
X4498581Y13974904D01*
X4493386Y13985295D01*
X4488192Y13990490D01*
X4472604Y13995687D01*
X4462213Y13995687D01*
X4446628Y13990490D01*
X4436236Y13980099D01*
X4431042Y13964513D01*
X4431042Y13948928D01*
X4436236Y13933340D01*
X4441431Y13928145D01*
X4451822Y13922949D01*
X4540145Y14081930D02*
G01*
X4467410Y14029977D01*
X4467410Y14107909D01*
X4540145Y14081930D02*
G01*
X4431042Y14081930D01*
X8853167Y15425242D02*
G01*
X8744064Y15425242D01*
X8853167Y15425242D02*
G01*
X8853167Y15472001D01*
X8847973Y15487586D01*
X8842776Y15492783D01*
X8832385Y15497977D01*
X8821994Y15497977D01*
X8811602Y15492783D01*
X8806408Y15487586D01*
X8801214Y15472001D01*
X8801214Y15425242D01*
X8801214Y15461609D02*
G01*
X8744064Y15497977D01*
X8853167Y15542658D02*
G01*
X8853167Y15599808D01*
X8811602Y15568637D01*
X8811602Y15584223D01*
X8806408Y15594614D01*
X8801214Y15599808D01*
X8785626Y15605005D01*
X8775235Y15605005D01*
X8759649Y15599808D01*
X8749258Y15589417D01*
X8744064Y15573832D01*
X8744064Y15558246D01*
X8749258Y15542658D01*
X8754452Y15537464D01*
X8764844Y15532267D01*
X8853167Y15701639D02*
G01*
X8853167Y15649686D01*
X8806408Y15644489D01*
X8811602Y15649686D01*
X8816799Y15665272D01*
X8816799Y15680857D01*
X8811602Y15696445D01*
X8801214Y15706836D01*
X8785626Y15712031D01*
X8775235Y15712031D01*
X8759649Y15706836D01*
X8749258Y15696445D01*
X8744064Y15680857D01*
X8744064Y15665272D01*
X8749258Y15649686D01*
X8754452Y15644489D01*
X8764844Y15639295D01*
X8860533Y15000808D02*
G01*
X8751430Y15000808D01*
X8860533Y15000808D02*
G01*
X8860533Y15047567D01*
X8855339Y15063152D01*
X8850142Y15068349D01*
X8839751Y15073543D01*
X8829360Y15073543D01*
X8818968Y15068349D01*
X8813774Y15063152D01*
X8808580Y15047567D01*
X8808580Y15000808D01*
X8808580Y15037175D02*
G01*
X8751430Y15073543D01*
X8860533Y15118224D02*
G01*
X8860533Y15175374D01*
X8818968Y15144203D01*
X8818968Y15159789D01*
X8813774Y15170180D01*
X8808580Y15175374D01*
X8792992Y15180571D01*
X8782601Y15180571D01*
X8767015Y15175374D01*
X8756624Y15164983D01*
X8751430Y15149398D01*
X8751430Y15133812D01*
X8756624Y15118224D01*
X8761818Y15113030D01*
X8772210Y15107833D01*
X8844948Y15277205D02*
G01*
X8855339Y15272011D01*
X8860533Y15256423D01*
X8860533Y15246032D01*
X8855339Y15230447D01*
X8839751Y15220055D01*
X8813774Y15214861D01*
X8787798Y15214861D01*
X8767015Y15220055D01*
X8756624Y15230447D01*
X8751430Y15246032D01*
X8751430Y15251229D01*
X8756624Y15266814D01*
X8767015Y15277205D01*
X8782601Y15282402D01*
X8787798Y15282402D01*
X8803383Y15277205D01*
X8813774Y15266814D01*
X8818968Y15251229D01*
X8818968Y15246032D01*
X8813774Y15230447D01*
X8803383Y15220055D01*
X8787798Y15214861D01*
X8822433Y12117908D02*
G01*
X8713330Y12117908D01*
X8822433Y12117908D02*
G01*
X8822433Y12164667D01*
X8817239Y12180252D01*
X8812042Y12185449D01*
X8801651Y12190643D01*
X8791260Y12190643D01*
X8780868Y12185449D01*
X8775674Y12180252D01*
X8770480Y12164667D01*
X8770480Y12117908D01*
X8770480Y12154275D02*
G01*
X8713330Y12190643D01*
X8822433Y12235324D02*
G01*
X8822433Y12292474D01*
X8780868Y12261303D01*
X8780868Y12276889D01*
X8775674Y12287280D01*
X8770480Y12292474D01*
X8754892Y12297671D01*
X8744501Y12297671D01*
X8728915Y12292474D01*
X8718524Y12282083D01*
X8713330Y12266498D01*
X8713330Y12250912D01*
X8718524Y12235324D01*
X8723718Y12230130D01*
X8734110Y12224933D01*
X8822433Y12404697D02*
G01*
X8713330Y12352743D01*
X8822433Y12331961D02*
G01*
X8822433Y12404697D01*
X8847833Y8930208D02*
G01*
X8738730Y8930208D01*
X8847833Y8930208D02*
G01*
X8847833Y8976967D01*
X8842639Y8992552D01*
X8837442Y8997749D01*
X8827051Y9002943D01*
X8816660Y9002943D01*
X8806268Y8997749D01*
X8801074Y8992552D01*
X8795880Y8976967D01*
X8795880Y8930208D01*
X8795880Y8966575D02*
G01*
X8738730Y9002943D01*
X8847833Y9047624D02*
G01*
X8847833Y9104774D01*
X8806268Y9073603D01*
X8806268Y9089189D01*
X8801074Y9099580D01*
X8795880Y9104774D01*
X8780292Y9109971D01*
X8769901Y9109971D01*
X8754315Y9104774D01*
X8743924Y9094383D01*
X8738730Y9078798D01*
X8738730Y9063212D01*
X8743924Y9047624D01*
X8749118Y9042430D01*
X8759510Y9037233D01*
X8847833Y9170238D02*
G01*
X8842639Y9154652D01*
X8832248Y9149455D01*
X8821856Y9149455D01*
X8811465Y9154652D01*
X8806268Y9165043D01*
X8801074Y9185823D01*
X8795880Y9201411D01*
X8785489Y9211802D01*
X8775098Y9216997D01*
X8759510Y9216997D01*
X8749118Y9211802D01*
X8743924Y9206605D01*
X8738730Y9191020D01*
X8738730Y9170238D01*
X8743924Y9154652D01*
X8749118Y9149455D01*
X8759510Y9144261D01*
X8775098Y9144261D01*
X8785489Y9149455D01*
X8795880Y9159847D01*
X8801074Y9175432D01*
X8806268Y9196214D01*
X8811465Y9206605D01*
X8821856Y9211802D01*
X8832248Y9211802D01*
X8842639Y9206605D01*
X8847833Y9191020D01*
X8847833Y9170238D01*
X8809733Y5945708D02*
G01*
X8700630Y5945708D01*
X8809733Y5945708D02*
G01*
X8809733Y5992467D01*
X8804539Y6008052D01*
X8799342Y6013249D01*
X8788951Y6018443D01*
X8778560Y6018443D01*
X8768168Y6013249D01*
X8762974Y6008052D01*
X8757780Y5992467D01*
X8757780Y5945708D01*
X8757780Y5982075D02*
G01*
X8700630Y6018443D01*
X8809733Y6063124D02*
G01*
X8809733Y6120274D01*
X8768168Y6089103D01*
X8768168Y6104689D01*
X8762974Y6115080D01*
X8757780Y6120274D01*
X8742192Y6125471D01*
X8731801Y6125471D01*
X8716215Y6120274D01*
X8705824Y6109883D01*
X8700630Y6094298D01*
X8700630Y6078712D01*
X8705824Y6063124D01*
X8711018Y6057930D01*
X8721410Y6052733D01*
X8773365Y6227302D02*
G01*
X8757780Y6222105D01*
X8747389Y6211714D01*
X8742192Y6196129D01*
X8742192Y6190932D01*
X8747389Y6175347D01*
X8757780Y6164955D01*
X8773365Y6159761D01*
X8778560Y6159761D01*
X8794148Y6164955D01*
X8804539Y6175347D01*
X8809733Y6190932D01*
X8809733Y6196129D01*
X8804539Y6211714D01*
X8794148Y6222105D01*
X8773365Y6227302D01*
X8747389Y6227302D01*
X8721410Y6222105D01*
X8705824Y6211714D01*
X8700630Y6196129D01*
X8700630Y6185738D01*
X8705824Y6170152D01*
X8716215Y6164955D01*
X8860533Y2923108D02*
G01*
X8751430Y2923108D01*
X8860533Y2923108D02*
G01*
X8860533Y2969867D01*
X8855339Y2985452D01*
X8850142Y2990649D01*
X8839751Y2995843D01*
X8829360Y2995843D01*
X8818968Y2990649D01*
X8813774Y2985452D01*
X8808580Y2969867D01*
X8808580Y2923108D01*
X8808580Y2959475D02*
G01*
X8751430Y2995843D01*
X8860533Y3082089D02*
G01*
X8787798Y3030133D01*
X8787798Y3108065D01*
X8860533Y3082089D02*
G01*
X8751430Y3082089D01*
X8860533Y3173529D02*
G01*
X8855339Y3157943D01*
X8839751Y3147552D01*
X8813774Y3142355D01*
X8798189Y3142355D01*
X8772210Y3147552D01*
X8756624Y3157943D01*
X8751430Y3173529D01*
X8751430Y3183920D01*
X8756624Y3199505D01*
X8772210Y3209897D01*
X8798189Y3215093D01*
X8813774Y3215093D01*
X8839751Y3209897D01*
X8855339Y3199505D01*
X8860533Y3183920D01*
X8860533Y3173529D01*
X6070600Y13971016D02*
G01*
X6070600Y13862050D01*
X6070600Y13971016D02*
G01*
X6003036Y13971016D01*
X6070600Y13919200D02*
G01*
X6028943Y13919200D01*
X5906515Y13971016D02*
G01*
X5958331Y13971016D01*
X5963665Y13924279D01*
X5958331Y13929360D01*
X5942838Y13934694D01*
X5927090Y13934694D01*
X5911595Y13929360D01*
X5901181Y13919200D01*
X5896102Y13903452D01*
X5896102Y13893037D01*
X5901181Y13877544D01*
X5911595Y13867129D01*
X5927090Y13862050D01*
X5942838Y13862050D01*
X5958331Y13867129D01*
X5963665Y13872210D01*
X5968745Y13882624D01*
X1243711Y18851572D02*
G01*
X1243711Y18742469D01*
X1243711Y18851572D02*
G01*
X1196952Y18851572D01*
X1181366Y18846378D01*
X1176169Y18841181D01*
X1170975Y18830790D01*
X1170975Y18820399D01*
X1176169Y18810008D01*
X1181366Y18804813D01*
X1196952Y18799619D01*
X1243711Y18799619D01*
X1207343Y18799619D02*
G01*
X1170975Y18742469D01*
X1131488Y18825596D02*
G01*
X1131488Y18830790D01*
X1126294Y18841181D01*
X1121097Y18846378D01*
X1110706Y18851572D01*
X1089926Y18851572D01*
X1079535Y18846378D01*
X1074338Y18841181D01*
X1069144Y18830790D01*
X1069144Y18820399D01*
X1074338Y18810008D01*
X1084729Y18794422D01*
X1136685Y18742469D01*
X1063947Y18742469D01*
X1019266Y18851572D02*
G01*
X962116Y18851572D01*
X993289Y18810008D01*
X977704Y18810008D01*
X967313Y18804813D01*
X962116Y18799619D01*
X956922Y18784031D01*
X956922Y18773640D01*
X962116Y18758054D01*
X972507Y18747663D01*
X988095Y18742469D01*
X1003680Y18742469D01*
X1019266Y18747663D01*
X1024463Y18752858D01*
X1029657Y18763249D01*
X1291844Y17405652D02*
G01*
X1291844Y17296549D01*
X1291844Y17405652D02*
G01*
X1245085Y17405652D01*
X1229499Y17400457D01*
X1224302Y17395261D01*
X1219108Y17384869D01*
X1219108Y17374478D01*
X1224302Y17364087D01*
X1229499Y17358893D01*
X1245085Y17353699D01*
X1291844Y17353699D01*
X1255476Y17353699D02*
G01*
X1219108Y17296549D01*
X1179621Y17379675D02*
G01*
X1179621Y17384869D01*
X1174427Y17395261D01*
X1169230Y17400457D01*
X1158839Y17405652D01*
X1138059Y17405652D01*
X1127668Y17400457D01*
X1122471Y17395261D01*
X1117277Y17384869D01*
X1117277Y17374478D01*
X1122471Y17364087D01*
X1132862Y17348502D01*
X1184818Y17296549D01*
X1112080Y17296549D01*
X1025837Y17405652D02*
G01*
X1077790Y17332916D01*
X999858Y17332916D01*
X1025837Y17405652D02*
G01*
X1025837Y17296549D01*
X1291844Y15905655D02*
G01*
X1291844Y15796552D01*
X1291844Y15905655D02*
G01*
X1245085Y15905655D01*
X1229499Y15900460D01*
X1224302Y15895264D01*
X1219108Y15884872D01*
X1219108Y15874481D01*
X1224302Y15864090D01*
X1229499Y15858896D01*
X1245085Y15853702D01*
X1291844Y15853702D01*
X1255476Y15853702D02*
G01*
X1219108Y15796552D01*
X1179621Y15879678D02*
G01*
X1179621Y15884872D01*
X1174427Y15895264D01*
X1169230Y15900460D01*
X1158839Y15905655D01*
X1138059Y15905655D01*
X1127668Y15900460D01*
X1122471Y15895264D01*
X1117277Y15884872D01*
X1117277Y15874481D01*
X1122471Y15864090D01*
X1132862Y15848505D01*
X1184818Y15796552D01*
X1112080Y15796552D01*
X1015446Y15905655D02*
G01*
X1067399Y15905655D01*
X1072596Y15858896D01*
X1067399Y15864090D01*
X1051813Y15869287D01*
X1036228Y15869287D01*
X1020640Y15864090D01*
X1010249Y15853702D01*
X1005055Y15838114D01*
X1005055Y15827722D01*
X1010249Y15812137D01*
X1020640Y15801746D01*
X1036228Y15796552D01*
X1051813Y15796552D01*
X1067399Y15801746D01*
X1072596Y15806940D01*
X1077790Y15817331D01*
X1297025Y14405658D02*
G01*
X1297025Y14296555D01*
X1297025Y14405658D02*
G01*
X1250266Y14405658D01*
X1234681Y14400463D01*
X1229484Y14395267D01*
X1224290Y14384875D01*
X1224290Y14374484D01*
X1229484Y14364093D01*
X1234681Y14358899D01*
X1250266Y14353705D01*
X1297025Y14353705D01*
X1260657Y14353705D02*
G01*
X1224290Y14296555D01*
X1184803Y14379681D02*
G01*
X1184803Y14384875D01*
X1179609Y14395267D01*
X1174412Y14400463D01*
X1164021Y14405658D01*
X1143241Y14405658D01*
X1132850Y14400463D01*
X1127653Y14395267D01*
X1122459Y14384875D01*
X1122459Y14374484D01*
X1127653Y14364093D01*
X1138044Y14348508D01*
X1190000Y14296555D01*
X1117262Y14296555D01*
X1020627Y14390072D02*
G01*
X1025822Y14400463D01*
X1041410Y14405658D01*
X1051801Y14405658D01*
X1067386Y14400463D01*
X1077777Y14384875D01*
X1082972Y14358899D01*
X1082972Y14332922D01*
X1077777Y14312140D01*
X1067386Y14301749D01*
X1051801Y14296555D01*
X1046604Y14296555D01*
X1031019Y14301749D01*
X1020627Y14312140D01*
X1015431Y14327725D01*
X1015431Y14332922D01*
X1020627Y14348508D01*
X1031019Y14358899D01*
X1046604Y14364093D01*
X1051801Y14364093D01*
X1067386Y14358899D01*
X1077777Y14348508D01*
X1082972Y14332922D01*
X773303Y17092858D02*
G01*
X773303Y16983892D01*
X773303Y17092858D02*
G01*
X705738Y17092858D01*
X773303Y17041042D02*
G01*
X731646Y17041042D01*
X666369Y17066950D02*
G01*
X666369Y17072030D01*
X661035Y17082444D01*
X655954Y17087778D01*
X645540Y17092858D01*
X624712Y17092858D01*
X614298Y17087778D01*
X609219Y17082444D01*
X603885Y17072030D01*
X603885Y17061616D01*
X609219Y17051202D01*
X619632Y17035708D01*
X671448Y16983892D01*
X598804Y16983892D01*
X764667Y18580150D02*
G01*
X764667Y18471184D01*
X764667Y18580150D02*
G01*
X697103Y18580150D01*
X764667Y18528334D02*
G01*
X723011Y18528334D01*
X662812Y18559322D02*
G01*
X652398Y18564656D01*
X636904Y18580150D01*
X636904Y18471184D01*
X773300Y15592864D02*
G01*
X773300Y15483898D01*
X773300Y15592864D02*
G01*
X705736Y15592864D01*
X773300Y15541048D02*
G01*
X731644Y15541048D01*
X661032Y15592864D02*
G01*
X603882Y15592864D01*
X635124Y15551208D01*
X619630Y15551208D01*
X609216Y15546128D01*
X603882Y15541048D01*
X598802Y15525300D01*
X598802Y15514886D01*
X603882Y15499392D01*
X614296Y15488978D01*
X629790Y15483898D01*
X645538Y15483898D01*
X661032Y15488978D01*
X666366Y15494058D01*
X671446Y15504472D01*
X499998Y13406084D02*
G01*
X499998Y13515050D01*
X499998Y13406084D02*
G01*
X567562Y13406084D01*
X499998Y13457900D02*
G01*
X541654Y13457900D01*
X653669Y13406084D02*
G01*
X601853Y13478728D01*
X679830Y13478728D01*
X653669Y13406084D02*
G01*
X653669Y13515050D01*
X5624220Y1136040D02*
G01*
X5634634Y1146454D01*
X5650128Y1151534D01*
X5670956Y1151534D01*
X5686450Y1146454D01*
X5696864Y1136040D01*
X5696864Y1125626D01*
X5691784Y1115212D01*
X5686450Y1109878D01*
X5676036Y1104798D01*
X5644794Y1094384D01*
X5634634Y1089304D01*
X5629300Y1083970D01*
X5624220Y1073556D01*
X5624220Y1058062D01*
X5634634Y1047648D01*
X5650128Y1042568D01*
X5670956Y1042568D01*
X5686450Y1047648D01*
X5696864Y1058062D01*
X5589930Y1151534D02*
G01*
X5589930Y1042568D01*
X5589930Y1151534D02*
G01*
X5543194Y1151534D01*
X5527446Y1146454D01*
X5522366Y1141120D01*
X5517032Y1130706D01*
X5517032Y1120292D01*
X5522366Y1109878D01*
X5527446Y1104798D01*
X5543194Y1099718D01*
X5589930Y1099718D02*
G01*
X5543194Y1099718D01*
X5527446Y1094384D01*
X5522366Y1089304D01*
X5517032Y1078890D01*
X5517032Y1063142D01*
X5522366Y1052728D01*
X5527446Y1047648D01*
X5543194Y1042568D01*
X5589930Y1042568D01*
X5477662Y1125626D02*
G01*
X5477662Y1130706D01*
X5472328Y1141120D01*
X5467248Y1146454D01*
X5456834Y1151534D01*
X5436006Y1151534D01*
X5425592Y1146454D01*
X5420512Y1141120D01*
X5415178Y1130706D01*
X5415178Y1120292D01*
X5420512Y1109878D01*
X5430926Y1094384D01*
X5482742Y1042568D01*
X5410098Y1042568D01*
X9539914Y6448092D02*
G01*
X9539914Y6339126D01*
X9539914Y6448092D02*
G01*
X9503592Y6448092D01*
X9487844Y6443012D01*
X9477684Y6432598D01*
X9472350Y6422184D01*
X9467270Y6406436D01*
X9467270Y6380528D01*
X9472350Y6365034D01*
X9477684Y6354620D01*
X9487844Y6344206D01*
X9503592Y6339126D01*
X9539914Y6339126D01*
X9370496Y6448092D02*
G01*
X9422566Y6448092D01*
X9427646Y6401356D01*
X9422566Y6406436D01*
X9406818Y6411770D01*
X9391324Y6411770D01*
X9375830Y6406436D01*
X9365416Y6396276D01*
X9360082Y6380528D01*
X9360082Y6370114D01*
X9365416Y6354620D01*
X9375830Y6344206D01*
X9391324Y6339126D01*
X9406818Y6339126D01*
X9422566Y6344206D01*
X9427646Y6349286D01*
X9432980Y6359700D01*
X9537247Y3448093D02*
G01*
X9537247Y3339127D01*
X9537247Y3448093D02*
G01*
X9500925Y3448093D01*
X9485177Y3443013D01*
X9475017Y3432599D01*
X9469683Y3422185D01*
X9464603Y3406437D01*
X9464603Y3380529D01*
X9469683Y3365035D01*
X9475017Y3354621D01*
X9485177Y3344207D01*
X9500925Y3339127D01*
X9537247Y3339127D01*
X9367829Y3432599D02*
G01*
X9373163Y3443013D01*
X9388657Y3448093D01*
X9399071Y3448093D01*
X9414565Y3443013D01*
X9424979Y3427265D01*
X9430313Y3401357D01*
X9430313Y3375449D01*
X9424979Y3354621D01*
X9414565Y3344207D01*
X9399071Y3339127D01*
X9393737Y3339127D01*
X9378243Y3344207D01*
X9367829Y3354621D01*
X9362749Y3370115D01*
X9362749Y3375449D01*
X9367829Y3390943D01*
X9378243Y3401357D01*
X9393737Y3406437D01*
X9399071Y3406437D01*
X9414565Y3401357D01*
X9424979Y3390943D01*
X9430313Y3375449D01*
X9521385Y5470558D02*
G01*
X9531799Y5465478D01*
X9542213Y5455064D01*
X9547293Y5444650D01*
X9552627Y5428902D01*
X9552627Y5402994D01*
X9547293Y5387500D01*
X9542213Y5377086D01*
X9531799Y5366672D01*
X9521385Y5361592D01*
X9500557Y5361592D01*
X9490143Y5366672D01*
X9479729Y5377086D01*
X9474649Y5387500D01*
X9469315Y5402994D01*
X9469315Y5428902D01*
X9474649Y5444650D01*
X9479729Y5455064D01*
X9490143Y5465478D01*
X9500557Y5470558D01*
X9521385Y5470558D01*
X9505891Y5382166D02*
G01*
X9474649Y5351178D01*
X9372795Y5470558D02*
G01*
X9424865Y5470558D01*
X9429945Y5423822D01*
X9424865Y5428902D01*
X9409117Y5434236D01*
X9393623Y5434236D01*
X9377875Y5428902D01*
X9367715Y5418742D01*
X9362381Y5402994D01*
X9362381Y5392580D01*
X9367715Y5377086D01*
X9377875Y5366672D01*
X9393623Y5361592D01*
X9409117Y5361592D01*
X9424865Y5366672D01*
X9429945Y5371752D01*
X9435025Y5382166D01*
X9518718Y2470558D02*
G01*
X9529132Y2465478D01*
X9539546Y2455064D01*
X9544626Y2444650D01*
X9549960Y2428902D01*
X9549960Y2402994D01*
X9544626Y2387500D01*
X9539546Y2377086D01*
X9529132Y2366672D01*
X9518718Y2361592D01*
X9497890Y2361592D01*
X9487476Y2366672D01*
X9477062Y2377086D01*
X9471982Y2387500D01*
X9466648Y2402994D01*
X9466648Y2428902D01*
X9471982Y2444650D01*
X9477062Y2455064D01*
X9487476Y2465478D01*
X9497890Y2470558D01*
X9518718Y2470558D01*
X9503224Y2382166D02*
G01*
X9471982Y2351178D01*
X9370128Y2455064D02*
G01*
X9375208Y2465478D01*
X9390956Y2470558D01*
X9401370Y2470558D01*
X9416864Y2465478D01*
X9427278Y2449730D01*
X9432358Y2423822D01*
X9432358Y2397914D01*
X9427278Y2377086D01*
X9416864Y2366672D01*
X9401370Y2361592D01*
X9396036Y2361592D01*
X9380542Y2366672D01*
X9370128Y2377086D01*
X9365048Y2392580D01*
X9365048Y2397914D01*
X9370128Y2413408D01*
X9380542Y2423822D01*
X9396036Y2428902D01*
X9401370Y2428902D01*
X9416864Y2423822D01*
X9427278Y2413408D01*
X9432358Y2397914D01*
X9516549Y17660160D02*
G01*
X9516549Y17551194D01*
X9516549Y17660160D02*
G01*
X9480227Y17660160D01*
X9464479Y17655080D01*
X9454319Y17644666D01*
X9448985Y17634252D01*
X9443905Y17618504D01*
X9443905Y17592596D01*
X9448985Y17577102D01*
X9454319Y17566688D01*
X9464479Y17556274D01*
X9480227Y17551194D01*
X9516549Y17551194D01*
X9409615Y17639332D02*
G01*
X9399201Y17644666D01*
X9383453Y17660160D01*
X9383453Y17551194D01*
X9539914Y15648094D02*
G01*
X9539914Y15539128D01*
X9539914Y15648094D02*
G01*
X9503592Y15648094D01*
X9487844Y15643014D01*
X9477684Y15632600D01*
X9472350Y15622186D01*
X9467270Y15606438D01*
X9467270Y15580530D01*
X9472350Y15565036D01*
X9477684Y15554622D01*
X9487844Y15544208D01*
X9503592Y15539128D01*
X9539914Y15539128D01*
X9427646Y15622186D02*
G01*
X9427646Y15627266D01*
X9422566Y15637680D01*
X9417232Y15643014D01*
X9406818Y15648094D01*
X9386244Y15648094D01*
X9375830Y15643014D01*
X9370496Y15637680D01*
X9365416Y15627266D01*
X9365416Y15616852D01*
X9370496Y15606438D01*
X9380910Y15590944D01*
X9432980Y15539128D01*
X9360082Y15539128D01*
X9539914Y12648092D02*
G01*
X9539914Y12539126D01*
X9539914Y12648092D02*
G01*
X9503592Y12648092D01*
X9487844Y12643012D01*
X9477684Y12632598D01*
X9472350Y12622184D01*
X9467270Y12606436D01*
X9467270Y12580528D01*
X9472350Y12565034D01*
X9477684Y12554620D01*
X9487844Y12544206D01*
X9503592Y12539126D01*
X9539914Y12539126D01*
X9422566Y12648092D02*
G01*
X9365416Y12648092D01*
X9396404Y12606436D01*
X9380910Y12606436D01*
X9370496Y12601356D01*
X9365416Y12596276D01*
X9360082Y12580528D01*
X9360082Y12570114D01*
X9365416Y12554620D01*
X9375830Y12544206D01*
X9391324Y12539126D01*
X9406818Y12539126D01*
X9422566Y12544206D01*
X9427646Y12549286D01*
X9432980Y12559700D01*
X9542454Y9448096D02*
G01*
X9542454Y9339130D01*
X9542454Y9448096D02*
G01*
X9506132Y9448096D01*
X9490384Y9443016D01*
X9480224Y9432602D01*
X9474890Y9422188D01*
X9469810Y9406440D01*
X9469810Y9380532D01*
X9474890Y9365038D01*
X9480224Y9354624D01*
X9490384Y9344210D01*
X9506132Y9339130D01*
X9542454Y9339130D01*
X9383450Y9448096D02*
G01*
X9435520Y9375452D01*
X9357542Y9375452D01*
X9383450Y9448096D02*
G01*
X9383450Y9339130D01*
X9498032Y16670578D02*
G01*
X9508446Y16665498D01*
X9518860Y16655084D01*
X9524194Y16644670D01*
X9529274Y16628922D01*
X9529274Y16603014D01*
X9524194Y16587520D01*
X9518860Y16577106D01*
X9508446Y16566692D01*
X9498032Y16561612D01*
X9477204Y16561612D01*
X9467044Y16566692D01*
X9456630Y16577106D01*
X9451296Y16587520D01*
X9446216Y16603014D01*
X9446216Y16628922D01*
X9451296Y16644670D01*
X9456630Y16655084D01*
X9467044Y16665498D01*
X9477204Y16670578D01*
X9498032Y16670578D01*
X9482538Y16582186D02*
G01*
X9451296Y16551198D01*
X9411926Y16649750D02*
G01*
X9401512Y16655084D01*
X9385764Y16670578D01*
X9385764Y16561612D01*
X9521385Y14670559D02*
G01*
X9531799Y14665479D01*
X9542213Y14655065D01*
X9547547Y14644651D01*
X9552627Y14628903D01*
X9552627Y14602995D01*
X9547547Y14587501D01*
X9542213Y14577087D01*
X9531799Y14566673D01*
X9521385Y14561593D01*
X9500557Y14561593D01*
X9490397Y14566673D01*
X9479983Y14577087D01*
X9474649Y14587501D01*
X9469569Y14602995D01*
X9469569Y14628903D01*
X9474649Y14644651D01*
X9479983Y14655065D01*
X9490397Y14665479D01*
X9500557Y14670559D01*
X9521385Y14670559D01*
X9505891Y14582167D02*
G01*
X9474649Y14551179D01*
X9429945Y14644651D02*
G01*
X9429945Y14649731D01*
X9424865Y14660145D01*
X9419531Y14665479D01*
X9409117Y14670559D01*
X9388543Y14670559D01*
X9378129Y14665479D01*
X9372795Y14660145D01*
X9367715Y14649731D01*
X9367715Y14639317D01*
X9372795Y14628903D01*
X9383209Y14613409D01*
X9435279Y14561593D01*
X9362381Y14561593D01*
X9521385Y11670558D02*
G01*
X9531799Y11665478D01*
X9542213Y11655064D01*
X9547547Y11644650D01*
X9552627Y11628902D01*
X9552627Y11602994D01*
X9547547Y11587500D01*
X9542213Y11577086D01*
X9531799Y11566672D01*
X9521385Y11561592D01*
X9500557Y11561592D01*
X9490397Y11566672D01*
X9479983Y11577086D01*
X9474649Y11587500D01*
X9469569Y11602994D01*
X9469569Y11628902D01*
X9474649Y11644650D01*
X9479983Y11655064D01*
X9490397Y11665478D01*
X9500557Y11670558D01*
X9521385Y11670558D01*
X9505891Y11582166D02*
G01*
X9474649Y11551178D01*
X9424865Y11670558D02*
G01*
X9367715Y11670558D01*
X9398957Y11628902D01*
X9383209Y11628902D01*
X9372795Y11623822D01*
X9367715Y11618742D01*
X9362381Y11602994D01*
X9362381Y11592580D01*
X9367715Y11577086D01*
X9378129Y11566672D01*
X9393623Y11561592D01*
X9409117Y11561592D01*
X9424865Y11566672D01*
X9429945Y11571752D01*
X9435279Y11582166D01*
X9523928Y8470559D02*
G01*
X9534342Y8465479D01*
X9544756Y8455065D01*
X9550090Y8444651D01*
X9555170Y8428903D01*
X9555170Y8402995D01*
X9550090Y8387501D01*
X9544756Y8377087D01*
X9534342Y8366673D01*
X9523928Y8361593D01*
X9503100Y8361593D01*
X9492940Y8366673D01*
X9482526Y8377087D01*
X9477192Y8387501D01*
X9472112Y8402995D01*
X9472112Y8428903D01*
X9477192Y8444651D01*
X9482526Y8455065D01*
X9492940Y8465479D01*
X9503100Y8470559D01*
X9523928Y8470559D01*
X9508434Y8382167D02*
G01*
X9477192Y8351179D01*
X9385752Y8470559D02*
G01*
X9437822Y8397915D01*
X9359844Y8397915D01*
X9385752Y8470559D02*
G01*
X9385752Y8361593D01*
G36*
X8663178Y21844000D02*
G01*
X8677706Y19162471D01*
X9118092Y19162522D01*
X9118092Y21844000D01*
G37*
D12*
X8993200Y17952499D02*
G01*
X10349979Y17952499D01*
D13*
X3288284Y8684260D02*
G01*
X2157984Y8684260D01*
X2157984Y9192260D01*
X4711700Y11315700D02*
G01*
X5842000Y11315700D01*
X5842000Y10807700D01*
D12*
X8663200Y18282498D02*
G01*
X8663200Y21844000D01*
D14*
X8496300Y18999200D02*
G01*
X8496300Y21818600D01*
D15*
X1965599Y19499999D02*
G01*
X1965599Y12500000D01*
D11*
X2658173Y862949D02*
G01*
X2590370Y795146D01*
X2496947Y888570D01*
X2564749Y956373D01*
X2718450Y923226D02*
G01*
X2786252Y991029D01*
X2692829Y1084453D01*
X2625026Y1016650D01*
X2468321Y1145560D02*
G01*
X2564208Y1145560D01*
X2564208Y1013439D01*
X2468321Y1013439D01*
X2383078Y1145560D02*
G01*
X2287191Y1145560D01*
X2287191Y1013439D01*
X2383078Y1013439D01*
X6829790Y3044819D02*
G01*
X6829790Y3173313D01*
X7013209Y3173313D01*
X7013209Y3044819D01*
X6829790Y2949580D02*
G01*
X6829790Y2821086D01*
X7013209Y2821086D01*
X7013209Y2949580D01*
X6575790Y3044819D02*
G01*
X6575790Y3173313D01*
X6759209Y3173313D01*
X6759209Y3044819D01*
X6575790Y2949580D02*
G01*
X6575790Y2821086D01*
X6759209Y2821086D01*
X6759209Y2949580D01*
X956073Y17609629D02*
G01*
X815073Y17609629D01*
X815073Y17790350D02*
G01*
X956073Y17790350D01*
X971313Y17775110D02*
G01*
X971313Y17624869D01*
X593834Y17609629D02*
G01*
X734834Y17609629D01*
X734834Y17790350D02*
G01*
X593834Y17790350D01*
X578594Y17775110D02*
G01*
X578594Y17624869D01*
X956073Y16109759D02*
G01*
X815073Y16109759D01*
X815073Y16290480D02*
G01*
X956073Y16290480D01*
X971313Y16275240D02*
G01*
X971313Y16124999D01*
X593834Y16109759D02*
G01*
X734834Y16109759D01*
X734834Y16290480D02*
G01*
X593834Y16290480D01*
X578594Y16275240D02*
G01*
X578594Y16124999D01*
X956073Y14609635D02*
G01*
X815073Y14609635D01*
X815073Y14790356D02*
G01*
X956073Y14790356D01*
X971313Y14775116D02*
G01*
X971313Y14624875D01*
X593834Y14609635D02*
G01*
X734834Y14609635D01*
X734834Y14790356D02*
G01*
X593834Y14790356D01*
X578594Y14775116D02*
G01*
X578594Y14624875D01*
X956073Y13109511D02*
G01*
X815073Y13109511D01*
X815073Y13290232D02*
G01*
X956073Y13290232D01*
X971313Y13274992D02*
G01*
X971313Y13124751D01*
X593834Y13109511D02*
G01*
X734834Y13109511D01*
X734834Y13290232D02*
G01*
X593834Y13290232D01*
X578594Y13274992D02*
G01*
X578594Y13124751D01*
X6098560Y3437178D02*
G01*
X6098560Y3341291D01*
X5966439Y3341291D01*
X5966439Y3437178D01*
X6098560Y3522421D02*
G01*
X6098560Y3618308D01*
X5966439Y3618308D01*
X5966439Y3522421D01*
X5998921Y3202960D02*
G01*
X6094808Y3202960D01*
X6094808Y3070839D01*
X5998921Y3070839D01*
X5913678Y3202960D02*
G01*
X5817791Y3202960D01*
X5817791Y3070839D01*
X5913678Y3070839D01*
X5407019Y16792209D02*
G01*
X5535513Y16792209D01*
X5535513Y16608790D01*
X5407019Y16608790D01*
X5311780Y16792209D02*
G01*
X5183286Y16792209D01*
X5183286Y16608790D01*
X5311780Y16608790D01*
X5407019Y17605009D02*
G01*
X5535513Y17605009D01*
X5535513Y17421590D01*
X5407019Y17421590D01*
X5311780Y17605009D02*
G01*
X5183286Y17605009D01*
X5183286Y17421590D01*
X5311780Y17421590D01*
X5813419Y16792209D02*
G01*
X5941913Y16792209D01*
X5941913Y16608790D01*
X5813419Y16608790D01*
X5718180Y16792209D02*
G01*
X5589686Y16792209D01*
X5589686Y16608790D01*
X5718180Y16608790D01*
X5813419Y17605009D02*
G01*
X5941913Y17605009D01*
X5941913Y17421590D01*
X5813419Y17421590D01*
X5718180Y17605009D02*
G01*
X5589686Y17605009D01*
X5589686Y17421590D01*
X5718180Y17421590D01*
X5402021Y15732780D02*
G01*
X5497908Y15732780D01*
X5497908Y15600659D01*
X5402021Y15600659D01*
X5316778Y15732780D02*
G01*
X5220891Y15732780D01*
X5220891Y15600659D01*
X5316778Y15600659D01*
X5402021Y15514340D02*
G01*
X5497908Y15514340D01*
X5497908Y15382219D01*
X5402021Y15382219D01*
X5316778Y15514340D02*
G01*
X5220891Y15514340D01*
X5220891Y15382219D01*
X5316778Y15382219D01*
X5402021Y15295900D02*
G01*
X5497908Y15295900D01*
X5497908Y15163779D01*
X5402021Y15163779D01*
X5316778Y15295900D02*
G01*
X5220891Y15295900D01*
X5220891Y15163779D01*
X5316778Y15163779D01*
X5402021Y15077460D02*
G01*
X5497908Y15077460D01*
X5497908Y14945339D01*
X5402021Y14945339D01*
X5316778Y15077460D02*
G01*
X5220891Y15077460D01*
X5220891Y14945339D01*
X5316778Y14945339D01*
X5402021Y14859020D02*
G01*
X5497908Y14859020D01*
X5497908Y14726899D01*
X5402021Y14726899D01*
X5316778Y14859020D02*
G01*
X5220891Y14859020D01*
X5220891Y14726899D01*
X5316778Y14726899D01*
X5402021Y14640580D02*
G01*
X5497908Y14640580D01*
X5497908Y14508459D01*
X5402021Y14508459D01*
X5316778Y14640580D02*
G01*
X5220891Y14640580D01*
X5220891Y14508459D01*
X5316778Y14508459D01*
X1368790Y17522819D02*
G01*
X1368790Y17651313D01*
X1552209Y17651313D01*
X1552209Y17522819D01*
X1368790Y17427580D02*
G01*
X1368790Y17299086D01*
X1552209Y17299086D01*
X1552209Y17427580D01*
X1552209Y16983080D02*
G01*
X1552209Y16854586D01*
X1368790Y16854586D01*
X1368790Y16983080D01*
X1552209Y17078319D02*
G01*
X1552209Y17206813D01*
X1368790Y17206813D01*
X1368790Y17078319D01*
X1552209Y15370180D02*
G01*
X1552209Y15241686D01*
X1368790Y15241686D01*
X1368790Y15370180D01*
X1552209Y15465419D02*
G01*
X1552209Y15593913D01*
X1368790Y15593913D01*
X1368790Y15465419D01*
X1552209Y13871580D02*
G01*
X1552209Y13743086D01*
X1368790Y13743086D01*
X1368790Y13871580D01*
X1552209Y13966819D02*
G01*
X1552209Y14095313D01*
X1368790Y14095313D01*
X1368790Y13966819D01*
X5442950Y13611219D02*
G01*
X5442950Y13739713D01*
X5626369Y13739713D01*
X5626369Y13611219D01*
X5442950Y13515980D02*
G01*
X5442950Y13387486D01*
X5626369Y13387486D01*
X5626369Y13515980D01*
X5442950Y12569819D02*
G01*
X5442950Y12698313D01*
X5626369Y12698313D01*
X5626369Y12569819D01*
X5442950Y12474580D02*
G01*
X5442950Y12346086D01*
X5626369Y12346086D01*
X5626369Y12474580D01*
X5094970Y12569819D02*
G01*
X5094970Y12698313D01*
X5278389Y12698313D01*
X5278389Y12569819D01*
X5094970Y12474580D02*
G01*
X5094970Y12346086D01*
X5278389Y12346086D01*
X5278389Y12474580D01*
X5094970Y13611219D02*
G01*
X5094970Y13739713D01*
X5278389Y13739713D01*
X5278389Y13611219D01*
X5094970Y13515980D02*
G01*
X5094970Y13387486D01*
X5278389Y13387486D01*
X5278389Y13515980D01*
X4744450Y12569819D02*
G01*
X4744450Y12698313D01*
X4927869Y12698313D01*
X4927869Y12569819D01*
X4744450Y12474580D02*
G01*
X4744450Y12346086D01*
X4927869Y12346086D01*
X4927869Y12474580D01*
X4744450Y13611219D02*
G01*
X4744450Y13739713D01*
X4927869Y13739713D01*
X4927869Y13611219D01*
X4744450Y13515980D02*
G01*
X4744450Y13387486D01*
X4927869Y13387486D01*
X4927869Y13515980D01*
X4393930Y12569819D02*
G01*
X4393930Y12698313D01*
X4577349Y12698313D01*
X4577349Y12569819D01*
X4393930Y12474580D02*
G01*
X4393930Y12346086D01*
X4577349Y12346086D01*
X4577349Y12474580D01*
X4393930Y13611219D02*
G01*
X4393930Y13739713D01*
X4577349Y13739713D01*
X4577349Y13611219D01*
X4393930Y13515980D02*
G01*
X4393930Y13387486D01*
X4577349Y13387486D01*
X4577349Y13515980D01*
X9083309Y15535280D02*
G01*
X9083309Y15406786D01*
X8899890Y15406786D01*
X8899890Y15535280D01*
X9083309Y15630519D02*
G01*
X9083309Y15759013D01*
X8899890Y15759013D01*
X8899890Y15630519D01*
X8899890Y15211419D02*
G01*
X8899890Y15339913D01*
X9083309Y15339913D01*
X9083309Y15211419D01*
X8899890Y15116180D02*
G01*
X8899890Y14987686D01*
X9083309Y14987686D01*
X9083309Y15116180D01*
X8887190Y12303119D02*
G01*
X8887190Y12431613D01*
X9070609Y12431613D01*
X9070609Y12303119D01*
X8887190Y12207880D02*
G01*
X8887190Y12079386D01*
X9070609Y12079386D01*
X9070609Y12207880D01*
X8899890Y9102719D02*
G01*
X8899890Y9231213D01*
X9083309Y9231213D01*
X9083309Y9102719D01*
X8899890Y9007480D02*
G01*
X8899890Y8878986D01*
X9083309Y8878986D01*
X9083309Y9007480D01*
X8899890Y6105519D02*
G01*
X8899890Y6234013D01*
X9083309Y6234013D01*
X9083309Y6105519D01*
X8899890Y6010280D02*
G01*
X8899890Y5881786D01*
X9083309Y5881786D01*
X9083309Y6010280D01*
X8912590Y3108319D02*
G01*
X8912590Y3236813D01*
X9096009Y3236813D01*
X9096009Y3108319D01*
X8912590Y3013080D02*
G01*
X8912590Y2884586D01*
X9096009Y2884586D01*
X9096009Y3013080D01*
D16*
X6350000Y13806876D02*
G01*
X6350000Y13451276D01*
X5791200Y13804900D02*
G01*
X5791200Y13449300D01*
D11*
X6197600Y13423900D02*
G01*
X6324600Y13423900D01*
X5943600Y13423900D02*
G01*
X5816600Y13423900D01*
X6324600Y13830300D02*
G01*
X6194094Y13830300D01*
X5816600Y13830300D02*
G01*
X5943600Y13830300D01*
X897503Y18841735D02*
G01*
X1025997Y18841735D01*
X1025997Y18658316D01*
X897503Y18658316D01*
X802264Y18841735D02*
G01*
X673770Y18841735D01*
X673770Y18658316D01*
X802264Y18658316D01*
X897503Y17341611D02*
G01*
X1025997Y17341611D01*
X1025997Y17158192D01*
X897503Y17158192D01*
X802264Y17341611D02*
G01*
X673770Y17341611D01*
X673770Y17158192D01*
X802264Y17158192D01*
X897503Y15841741D02*
G01*
X1025997Y15841741D01*
X1025997Y15658322D01*
X897503Y15658322D01*
X802264Y15841741D02*
G01*
X673770Y15841741D01*
X673770Y15658322D01*
X802264Y15658322D01*
X897503Y14341617D02*
G01*
X1025997Y14341617D01*
X1025997Y14158198D01*
X897503Y14158198D01*
X802264Y14341617D02*
G01*
X673770Y14341617D01*
X673770Y14158198D01*
X802264Y14158198D01*
D16*
X220598Y16570223D02*
G01*
X220598Y16925823D01*
X779398Y16572199D02*
G01*
X779398Y16927799D01*
D11*
X372998Y16953199D02*
G01*
X245998Y16953199D01*
X626998Y16953199D02*
G01*
X753998Y16953199D01*
X245998Y16546799D02*
G01*
X376504Y16546799D01*
X753998Y16546799D02*
G01*
X626998Y16546799D01*
D16*
X220598Y18070225D02*
G01*
X220598Y18425825D01*
X779398Y18072201D02*
G01*
X779398Y18427801D01*
D11*
X372998Y18453201D02*
G01*
X245998Y18453201D01*
X626998Y18453201D02*
G01*
X753998Y18453201D01*
X245998Y18046801D02*
G01*
X376504Y18046801D01*
X753998Y18046801D02*
G01*
X626998Y18046801D01*
D16*
X220601Y15070223D02*
G01*
X220601Y15425823D01*
X779401Y15072199D02*
G01*
X779401Y15427799D01*
D11*
X373001Y15453199D02*
G01*
X246001Y15453199D01*
X627001Y15453199D02*
G01*
X754001Y15453199D01*
X246001Y15046799D02*
G01*
X376506Y15046799D01*
X754001Y15046799D02*
G01*
X627001Y15046799D01*
D16*
X220598Y13570224D02*
G01*
X220598Y13925824D01*
X779398Y13572200D02*
G01*
X779398Y13927800D01*
D11*
X372998Y13953200D02*
G01*
X245998Y13953200D01*
X626998Y13953200D02*
G01*
X753998Y13953200D01*
X245998Y13546800D02*
G01*
X376504Y13546800D01*
X753998Y13546800D02*
G01*
X626998Y13546800D01*
X5130800Y1181100D02*
G01*
X5022850Y1181100D01*
X5022850Y1358900D01*
X5137150Y1358900D01*
X5397500Y1181100D02*
G01*
X5511800Y1181100D01*
X5511800Y1358900D01*
X5397500Y1358900D01*
D17*
X9449998Y5964798D02*
G01*
X9500798Y5863198D01*
X9500798Y5863198D02*
G01*
X9399198Y5863198D01*
X9399198Y5863198D02*
G01*
X9449998Y5964798D01*
X9449998Y5964798D02*
G01*
X9500798Y5964798D01*
X9500798Y5964798D02*
G01*
X9399198Y5964798D01*
X9449998Y5843998D02*
G01*
X9449998Y6015598D01*
D15*
X9627798Y6013218D02*
G01*
X9272198Y6013218D01*
X9627798Y5718098D02*
G01*
X9627798Y6149898D01*
X9272198Y6149898D02*
G01*
X9272198Y5718098D01*
D17*
X9449998Y2964799D02*
G01*
X9500798Y2863199D01*
X9500798Y2863199D02*
G01*
X9399198Y2863199D01*
X9399198Y2863199D02*
G01*
X9449998Y2964799D01*
X9449998Y2964799D02*
G01*
X9500798Y2964799D01*
X9500798Y2964799D02*
G01*
X9399198Y2964799D01*
X9449998Y2843999D02*
G01*
X9449998Y3015599D01*
D15*
X9627798Y3013219D02*
G01*
X9272198Y3013219D01*
X9627798Y2718099D02*
G01*
X9627798Y3149899D01*
X9272198Y3149899D02*
G01*
X9272198Y2718099D01*
X9257497Y4634999D02*
G01*
X9257497Y5274998D01*
X9257497Y4634999D02*
G01*
X9637496Y4634999D01*
X9637496Y5274998D02*
G01*
X9637496Y4634999D01*
X9637496Y5274998D02*
G01*
X9257497Y5274998D01*
X9257497Y1635000D02*
G01*
X9257497Y2274999D01*
X9257497Y1635000D02*
G01*
X9637496Y1635000D01*
X9637496Y2274999D02*
G01*
X9637496Y1635000D01*
X9637496Y2274999D02*
G01*
X9257497Y2274999D01*
D17*
X9449998Y17164799D02*
G01*
X9500798Y17063199D01*
X9500798Y17063199D02*
G01*
X9399198Y17063199D01*
X9399198Y17063199D02*
G01*
X9449998Y17164799D01*
X9449998Y17164799D02*
G01*
X9500798Y17164799D01*
X9500798Y17164799D02*
G01*
X9399198Y17164799D01*
X9449998Y17043999D02*
G01*
X9449998Y17215599D01*
D15*
X9627798Y17213219D02*
G01*
X9272198Y17213219D01*
X9627798Y16918099D02*
G01*
X9627798Y17349899D01*
X9272198Y17349899D02*
G01*
X9272198Y16918099D01*
D17*
X9449998Y15164800D02*
G01*
X9500798Y15063200D01*
X9500798Y15063200D02*
G01*
X9399198Y15063200D01*
X9399198Y15063200D02*
G01*
X9449998Y15164800D01*
X9449998Y15164800D02*
G01*
X9500798Y15164800D01*
X9500798Y15164800D02*
G01*
X9399198Y15164800D01*
X9449998Y15044000D02*
G01*
X9449998Y15215600D01*
D15*
X9627798Y15213220D02*
G01*
X9272198Y15213220D01*
X9627798Y14918100D02*
G01*
X9627798Y15349900D01*
X9272198Y15349900D02*
G01*
X9272198Y14918100D01*
D17*
X9449998Y12164799D02*
G01*
X9500798Y12063199D01*
X9500798Y12063199D02*
G01*
X9399198Y12063199D01*
X9399198Y12063199D02*
G01*
X9449998Y12164799D01*
X9449998Y12164799D02*
G01*
X9500798Y12164799D01*
X9500798Y12164799D02*
G01*
X9399198Y12164799D01*
X9449998Y12043999D02*
G01*
X9449998Y12215599D01*
D15*
X9627798Y12213219D02*
G01*
X9272198Y12213219D01*
X9627798Y11918099D02*
G01*
X9627798Y12349899D01*
X9272198Y12349899D02*
G01*
X9272198Y11918099D01*
D17*
X9449998Y8964800D02*
G01*
X9500798Y8863200D01*
X9500798Y8863200D02*
G01*
X9399198Y8863200D01*
X9399198Y8863200D02*
G01*
X9449998Y8964800D01*
X9449998Y8964800D02*
G01*
X9500798Y8964800D01*
X9500798Y8964800D02*
G01*
X9399198Y8964800D01*
X9449998Y8844000D02*
G01*
X9449998Y9015600D01*
D15*
X9627798Y9013220D02*
G01*
X9272198Y9013220D01*
X9627798Y8718100D02*
G01*
X9627798Y9149900D01*
X9272198Y9149900D02*
G01*
X9272198Y8718100D01*
X9257497Y15835000D02*
G01*
X9257497Y16474998D01*
X9257497Y15835000D02*
G01*
X9637496Y15835000D01*
X9637496Y16474998D02*
G01*
X9637496Y15835000D01*
X9637496Y16474998D02*
G01*
X9257497Y16474998D01*
X9257497Y13835001D02*
G01*
X9257497Y14475000D01*
X9257497Y13835001D02*
G01*
X9637496Y13835001D01*
X9637496Y14475000D02*
G01*
X9637496Y13835001D01*
X9637496Y14475000D02*
G01*
X9257497Y14475000D01*
X9257497Y10834999D02*
G01*
X9257497Y11474998D01*
X9257497Y10834999D02*
G01*
X9637496Y10834999D01*
X9637496Y11474998D02*
G01*
X9637496Y10834999D01*
X9637496Y11474998D02*
G01*
X9257497Y11474998D01*
X9257497Y7635001D02*
G01*
X9257497Y8274999D01*
X9257497Y7635001D02*
G01*
X9637496Y7635001D01*
X9637496Y8274999D02*
G01*
X9637496Y7635001D01*
X9637496Y8274999D02*
G01*
X9257497Y8274999D01*
D12*
G75*
G01*
X8993200Y17952499D02*
G02*
X8803919Y18552820I-4J329999D01*
G75*
G01*
X8803917Y18562165D02*
G02*
X8993198Y19162486I189276J270322D01*
D11*
G75*
G01*
X956074Y17790350D02*
G02*
X971314Y17775111I0J-15239D01*
G75*
G01*
X971314Y17624869D02*
G02*
X956074Y17609630I-15240J0D01*
G75*
G01*
X593834Y17790350D02*
G03*
X578594Y17775111I0J-15239D01*
G75*
G01*
X578594Y17624869D02*
G03*
X593834Y17609630I15240J0D01*
G75*
G01*
X956074Y16290481D02*
G02*
X971314Y16275241I0J-15241D01*
G75*
G01*
X971314Y16125000D02*
G02*
X956074Y16109759I-15240J-1D01*
G75*
G01*
X593834Y16290481D02*
G03*
X578594Y16275241I0J-15241D01*
G75*
G01*
X578594Y16125000D02*
G03*
X593834Y16109759I15240J-1D01*
G75*
G01*
X956074Y14790357D02*
G02*
X971314Y14775117I0J-15240D01*
G75*
G01*
X971314Y14624875D02*
G02*
X956074Y14609635I-15240J1D01*
G75*
G01*
X593834Y14790357D02*
G03*
X578594Y14775117I0J-15240D01*
G75*
G01*
X578594Y14624875D02*
G03*
X593834Y14609635I15240J1D01*
G75*
G01*
X956074Y13290233D02*
G02*
X971314Y13274992I0J-15240D01*
G75*
G01*
X971314Y13124751D02*
G02*
X956074Y13109512I-15240J0D01*
G75*
G01*
X593834Y13290233D02*
G03*
X578594Y13274992I0J-15240D01*
G75*
G01*
X578594Y13124751D02*
G03*
X593834Y13109512I15240J0D01*
D16*
G75*
G01*
X6070600Y13627100D02*
G03*
X6070600Y13563600I0J-31750D01*
G75*
G01*
X6070600Y13627100D02*
G03*
X6070600Y13690600I0J31750D01*
G75*
G01*
X499999Y16750000D02*
G03*
X499999Y16813500I0J31750D01*
G75*
G01*
X499999Y16750000D02*
G03*
X499999Y16686500I0J-31750D01*
G75*
G01*
X499999Y18250002D02*
G03*
X499999Y18313502I0J31750D01*
G75*
G01*
X499999Y18250002D02*
G03*
X499999Y18186502I0J-31750D01*
G75*
G01*
X500002Y15250000D02*
G03*
X500002Y15313500I0J31750D01*
G75*
G01*
X500002Y15250000D02*
G03*
X500002Y15186500I0J-31750D01*
G75*
G01*
X499999Y13750000D02*
G03*
X499999Y13813500I0J31750D01*
G75*
G01*
X499999Y13750000D02*
G03*
X499999Y13686500I0J-31750D01*
M02*
