G04 Layer: BottomSolderMaskLayer*
G04 EasyEDA v6.5.9, 2022-07-29 15:52:37*
G04 80419b3afb544e71809359e13b9e66d5,1d0123f043c44c6e98dfa3af7fe3442e,10*
G04 Gerber Generator version 0.2*
G04 Scale: 100 percent, Rotated: No, Reflected: No *
G04 Dimensions in millimeters *
G04 leading zeros omitted , absolute positions ,4 integer and 5 decimal *
%FSLAX45Y45*%
%MOMM*%

%ADD10C,4.1016*%
%ADD11C,5.1016*%
%ADD12C,3.2032*%
%ADD13C,1.6764*%
%ADD14C,2.6416*%
%ADD15C,1.9766*%
%ADD16C,2.7032*%
%ADD17C,2.6016*%
%ADD18C,1.6256*%
%ADD19C,6.3017*%
%ADD20C,2.1336*%
%ADD21C,1.6096*%
%ADD22C,2.6000*%
%ADD23C,0.0106*%

%LPD*%
D10*
X13799997Y3823995D02*
G01*
X13182600Y3823995D01*
X13799997Y4331995D02*
G01*
X13182600Y4331995D01*
X13800074Y6823963D02*
G01*
X13182600Y6824979D01*
X13800074Y7331963D02*
G01*
X13182600Y7331963D01*
X13800000Y9824001D02*
G01*
X13182600Y9824001D01*
X13182600Y9815827D01*
X13800000Y10332001D02*
G01*
X13182600Y10332001D01*
X13182600Y10337195D01*
X13800000Y13023999D02*
G01*
X13182600Y13023999D01*
X13182600Y13017563D01*
X13800074Y13532104D02*
G01*
X13182600Y13533881D01*
X13800074Y16024097D02*
G01*
X13182600Y16022066D01*
X13800074Y16532097D02*
G01*
X13182600Y16530066D01*
X13800074Y19532092D02*
G01*
X13182600Y19530821D01*
X13800074Y19024092D02*
G01*
X13182600Y19022821D01*
X10150017Y14767991D02*
G01*
X12192000Y14767991D01*
X10150017Y11767997D02*
G01*
X12192000Y11767997D01*
X10150017Y8568004D02*
G01*
X12192000Y8568004D01*
X10150017Y5568010D02*
G01*
X12192000Y5568010D01*
X10150017Y2567990D02*
G01*
X12192000Y2567990D01*
X10150017Y16767987D02*
G01*
X12192000Y16767987D01*
D11*
X11201400Y20320000D02*
G01*
X12598400Y20320000D01*
X13182600Y19735800D01*
X13182600Y3822692D01*
X11197793Y19320002D02*
G01*
X11566397Y19320002D01*
X12192000Y18694400D01*
X12192000Y2565394D01*
D12*
X10150017Y5568010D02*
G01*
X10150017Y5568010D01*
X10150017Y2567990D02*
G01*
X10150017Y2567990D01*
X10150017Y16767987D02*
G01*
X10150017Y16767987D01*
X10150017Y14767991D02*
G01*
X10150017Y14767991D01*
X10150017Y11767997D02*
G01*
X10150017Y11767997D01*
X10150017Y8568004D02*
G01*
X10150017Y8568004D01*
G36*
X2590291Y820165D02*
G01*
X2521965Y888492D01*
X2586227Y952754D01*
X2654554Y884428D01*
G37*
G36*
X2696972Y926845D02*
G01*
X2628645Y995171D01*
X2692908Y1059434D01*
X2761234Y991107D01*
G37*
G36*
X2455672Y1031239D02*
G01*
X2455672Y1127760D01*
X2546350Y1127760D01*
X2546350Y1031239D01*
G37*
G36*
X2305050Y1031239D02*
G01*
X2305050Y1127760D01*
X2395727Y1127760D01*
X2395727Y1031239D01*
G37*
G36*
X6847586Y3031997D02*
G01*
X6847586Y3155442D01*
X6995413Y3155442D01*
X6995413Y3031997D01*
G37*
G36*
X6847586Y2838957D02*
G01*
X6847586Y2962402D01*
X6995413Y2962402D01*
X6995413Y2838957D01*
G37*
G36*
X6593586Y3031997D02*
G01*
X6593586Y3155442D01*
X6741413Y3155442D01*
X6741413Y3031997D01*
G37*
G36*
X6593586Y2838957D02*
G01*
X6593586Y2962402D01*
X6741413Y2962402D01*
X6741413Y2838957D01*
G37*
G36*
X802386Y17627345D02*
G01*
X802386Y17772634D01*
X953515Y17772634D01*
X953515Y17627345D01*
G37*
G36*
X596392Y17627345D02*
G01*
X596392Y17772634D01*
X747521Y17772634D01*
X747521Y17627345D01*
G37*
G36*
X802386Y16127476D02*
G01*
X802386Y16272763D01*
X953515Y16272763D01*
X953515Y16127476D01*
G37*
G36*
X596392Y16127476D02*
G01*
X596392Y16272763D01*
X747521Y16272763D01*
X747521Y16127476D01*
G37*
G36*
X802386Y14627352D02*
G01*
X802386Y14772639D01*
X953515Y14772639D01*
X953515Y14627352D01*
G37*
G36*
X596392Y14627352D02*
G01*
X596392Y14772639D01*
X747521Y14772639D01*
X747521Y14627352D01*
G37*
G36*
X802386Y13127228D02*
G01*
X802386Y13272516D01*
X953515Y13272516D01*
X953515Y13127228D01*
G37*
G36*
X596392Y13127228D02*
G01*
X596392Y13272516D01*
X747521Y13272516D01*
X747521Y13127228D01*
G37*
G36*
X5984240Y3359150D02*
G01*
X5984240Y3449828D01*
X6080759Y3449828D01*
X6080759Y3359150D01*
G37*
G36*
X5984240Y3509771D02*
G01*
X5984240Y3600450D01*
X6080759Y3600450D01*
X6080759Y3509771D01*
G37*
G36*
X5986272Y3088639D02*
G01*
X5986272Y3185160D01*
X6076950Y3185160D01*
X6076950Y3088639D01*
G37*
G36*
X5835650Y3088639D02*
G01*
X5835650Y3185160D01*
X5926327Y3185160D01*
X5926327Y3088639D01*
G37*
G36*
X5394197Y16626586D02*
G01*
X5394197Y16774413D01*
X5517641Y16774413D01*
X5517641Y16626586D01*
G37*
G36*
X5201158Y16626586D02*
G01*
X5201158Y16774413D01*
X5324602Y16774413D01*
X5324602Y16626586D01*
G37*
G36*
X5394197Y17439386D02*
G01*
X5394197Y17587213D01*
X5517641Y17587213D01*
X5517641Y17439386D01*
G37*
G36*
X5201158Y17439386D02*
G01*
X5201158Y17587213D01*
X5324602Y17587213D01*
X5324602Y17439386D01*
G37*
G36*
X5800597Y16626586D02*
G01*
X5800597Y16774413D01*
X5924041Y16774413D01*
X5924041Y16626586D01*
G37*
G36*
X5607558Y16626586D02*
G01*
X5607558Y16774413D01*
X5731002Y16774413D01*
X5731002Y16626586D01*
G37*
G36*
X5800597Y17439386D02*
G01*
X5800597Y17587213D01*
X5924041Y17587213D01*
X5924041Y17439386D01*
G37*
G36*
X5607558Y17439386D02*
G01*
X5607558Y17587213D01*
X5731002Y17587213D01*
X5731002Y17439386D01*
G37*
G36*
X5389372Y15618460D02*
G01*
X5389372Y15714979D01*
X5480050Y15714979D01*
X5480050Y15618460D01*
G37*
G36*
X5238750Y15618460D02*
G01*
X5238750Y15714979D01*
X5329427Y15714979D01*
X5329427Y15618460D01*
G37*
G36*
X5389372Y15400020D02*
G01*
X5389372Y15496539D01*
X5480050Y15496539D01*
X5480050Y15400020D01*
G37*
G36*
X5238750Y15400020D02*
G01*
X5238750Y15496539D01*
X5329427Y15496539D01*
X5329427Y15400020D01*
G37*
G36*
X5389372Y15181579D02*
G01*
X5389372Y15278100D01*
X5480050Y15278100D01*
X5480050Y15181579D01*
G37*
G36*
X5238750Y15181579D02*
G01*
X5238750Y15278100D01*
X5329427Y15278100D01*
X5329427Y15181579D01*
G37*
G36*
X5389372Y14963139D02*
G01*
X5389372Y15059660D01*
X5480050Y15059660D01*
X5480050Y14963139D01*
G37*
G36*
X5238750Y14963139D02*
G01*
X5238750Y15059660D01*
X5329427Y15059660D01*
X5329427Y14963139D01*
G37*
G36*
X5389372Y14744700D02*
G01*
X5389372Y14841220D01*
X5480050Y14841220D01*
X5480050Y14744700D01*
G37*
G36*
X5238750Y14744700D02*
G01*
X5238750Y14841220D01*
X5329427Y14841220D01*
X5329427Y14744700D01*
G37*
G36*
X5389372Y14526260D02*
G01*
X5389372Y14622779D01*
X5480050Y14622779D01*
X5480050Y14526260D01*
G37*
G36*
X5238750Y14526260D02*
G01*
X5238750Y14622779D01*
X5329427Y14622779D01*
X5329427Y14526260D01*
G37*
G36*
X1386586Y17509998D02*
G01*
X1386586Y17633442D01*
X1534413Y17633442D01*
X1534413Y17509998D01*
G37*
G36*
X1386586Y17316958D02*
G01*
X1386586Y17440402D01*
X1534413Y17440402D01*
X1534413Y17316958D01*
G37*
G36*
X1386586Y16872458D02*
G01*
X1386586Y16995902D01*
X1534413Y16995902D01*
X1534413Y16872458D01*
G37*
G36*
X1386586Y17065498D02*
G01*
X1386586Y17188942D01*
X1534413Y17188942D01*
X1534413Y17065498D01*
G37*
G36*
X1386586Y15259557D02*
G01*
X1386586Y15383002D01*
X1534413Y15383002D01*
X1534413Y15259557D01*
G37*
G36*
X1386586Y15452597D02*
G01*
X1386586Y15576042D01*
X1534413Y15576042D01*
X1534413Y15452597D01*
G37*
G36*
X1386586Y13760957D02*
G01*
X1386586Y13884402D01*
X1534413Y13884402D01*
X1534413Y13760957D01*
G37*
G36*
X1386586Y13953997D02*
G01*
X1386586Y14077442D01*
X1534413Y14077442D01*
X1534413Y13953997D01*
G37*
G36*
X5460745Y13598397D02*
G01*
X5460745Y13721842D01*
X5608574Y13721842D01*
X5608574Y13598397D01*
G37*
G36*
X5460745Y13405357D02*
G01*
X5460745Y13528802D01*
X5608574Y13528802D01*
X5608574Y13405357D01*
G37*
G36*
X5460745Y12556997D02*
G01*
X5460745Y12680442D01*
X5608574Y12680442D01*
X5608574Y12556997D01*
G37*
G36*
X5460745Y12363958D02*
G01*
X5460745Y12487402D01*
X5608574Y12487402D01*
X5608574Y12363958D01*
G37*
G36*
X5112765Y12556997D02*
G01*
X5112765Y12680442D01*
X5260593Y12680442D01*
X5260593Y12556997D01*
G37*
G36*
X5112765Y12363958D02*
G01*
X5112765Y12487402D01*
X5260593Y12487402D01*
X5260593Y12363958D01*
G37*
G36*
X5112765Y13598397D02*
G01*
X5112765Y13721842D01*
X5260593Y13721842D01*
X5260593Y13598397D01*
G37*
G36*
X5112765Y13405357D02*
G01*
X5112765Y13528802D01*
X5260593Y13528802D01*
X5260593Y13405357D01*
G37*
G36*
X4762245Y12556997D02*
G01*
X4762245Y12680442D01*
X4910074Y12680442D01*
X4910074Y12556997D01*
G37*
G36*
X4762245Y12363958D02*
G01*
X4762245Y12487402D01*
X4910074Y12487402D01*
X4910074Y12363958D01*
G37*
G36*
X4762245Y13598397D02*
G01*
X4762245Y13721842D01*
X4910074Y13721842D01*
X4910074Y13598397D01*
G37*
G36*
X4762245Y13405357D02*
G01*
X4762245Y13528802D01*
X4910074Y13528802D01*
X4910074Y13405357D01*
G37*
G36*
X4411725Y12556997D02*
G01*
X4411725Y12680442D01*
X4559554Y12680442D01*
X4559554Y12556997D01*
G37*
G36*
X4411725Y12363958D02*
G01*
X4411725Y12487402D01*
X4559554Y12487402D01*
X4559554Y12363958D01*
G37*
G36*
X4411725Y13598397D02*
G01*
X4411725Y13721842D01*
X4559554Y13721842D01*
X4559554Y13598397D01*
G37*
G36*
X4411725Y13405357D02*
G01*
X4411725Y13528802D01*
X4559554Y13528802D01*
X4559554Y13405357D01*
G37*
G36*
X8917686Y15424657D02*
G01*
X8917686Y15548102D01*
X9065513Y15548102D01*
X9065513Y15424657D01*
G37*
G36*
X8917686Y15617697D02*
G01*
X8917686Y15741142D01*
X9065513Y15741142D01*
X9065513Y15617697D01*
G37*
G36*
X8917686Y15198597D02*
G01*
X8917686Y15322042D01*
X9065513Y15322042D01*
X9065513Y15198597D01*
G37*
G36*
X8917686Y15005557D02*
G01*
X8917686Y15129002D01*
X9065513Y15129002D01*
X9065513Y15005557D01*
G37*
G36*
X8904986Y12290297D02*
G01*
X8904986Y12413742D01*
X9052813Y12413742D01*
X9052813Y12290297D01*
G37*
G36*
X8904986Y12097258D02*
G01*
X8904986Y12220702D01*
X9052813Y12220702D01*
X9052813Y12097258D01*
G37*
G36*
X8917686Y9089897D02*
G01*
X8917686Y9213342D01*
X9065513Y9213342D01*
X9065513Y9089897D01*
G37*
G36*
X8917686Y8896858D02*
G01*
X8917686Y9020302D01*
X9065513Y9020302D01*
X9065513Y8896858D01*
G37*
G36*
X8917686Y6092697D02*
G01*
X8917686Y6216142D01*
X9065513Y6216142D01*
X9065513Y6092697D01*
G37*
G36*
X8917686Y5899657D02*
G01*
X8917686Y6023102D01*
X9065513Y6023102D01*
X9065513Y5899657D01*
G37*
G36*
X8930386Y3095497D02*
G01*
X8930386Y3218942D01*
X9078213Y3218942D01*
X9078213Y3095497D01*
G37*
G36*
X8930386Y2902457D02*
G01*
X8930386Y3025902D01*
X9078213Y3025902D01*
X9078213Y2902457D01*
G37*
G36*
X5809741Y13447013D02*
G01*
X5809741Y13807186D01*
X5960618Y13807186D01*
X5960618Y13447013D01*
G37*
G36*
X6180581Y13447013D02*
G01*
X6180581Y13807186D01*
X6331458Y13807186D01*
X6331458Y13447013D01*
G37*
G36*
X884681Y18676112D02*
G01*
X884681Y18823939D01*
X1008126Y18823939D01*
X1008126Y18676112D01*
G37*
G36*
X691642Y18676112D02*
G01*
X691642Y18823939D01*
X815086Y18823939D01*
X815086Y18676112D01*
G37*
G36*
X884681Y17175987D02*
G01*
X884681Y17323816D01*
X1008126Y17323816D01*
X1008126Y17175987D01*
G37*
G36*
X691642Y17175987D02*
G01*
X691642Y17323816D01*
X815086Y17323816D01*
X815086Y17175987D01*
G37*
G36*
X884681Y15676118D02*
G01*
X884681Y15823945D01*
X1008126Y15823945D01*
X1008126Y15676118D01*
G37*
G36*
X691642Y15676118D02*
G01*
X691642Y15823945D01*
X815086Y15823945D01*
X815086Y15676118D01*
G37*
G36*
X884681Y14175994D02*
G01*
X884681Y14323821D01*
X1008126Y14323821D01*
X1008126Y14175994D01*
G37*
G36*
X691642Y14175994D02*
G01*
X691642Y14323821D01*
X815086Y14323821D01*
X815086Y14175994D01*
G37*
G36*
X609854Y16569944D02*
G01*
X609854Y16930116D01*
X760729Y16930116D01*
X760729Y16569944D01*
G37*
G36*
X239268Y16569944D02*
G01*
X239268Y16930116D01*
X390144Y16930116D01*
X390144Y16569944D01*
G37*
G36*
X609854Y18070068D02*
G01*
X609854Y18429986D01*
X760729Y18429986D01*
X760729Y18070068D01*
G37*
G36*
X239268Y18070068D02*
G01*
X239268Y18429986D01*
X390144Y18429986D01*
X390144Y18070068D01*
G37*
G36*
X609854Y15070074D02*
G01*
X609854Y15429992D01*
X760729Y15429992D01*
X760729Y15070074D01*
G37*
G36*
X239268Y15070074D02*
G01*
X239268Y15429992D01*
X390144Y15429992D01*
X390144Y15070074D01*
G37*
G36*
X609854Y13569950D02*
G01*
X609854Y13930121D01*
X760729Y13930121D01*
X760729Y13569950D01*
G37*
G36*
X239268Y13569950D02*
G01*
X239268Y13930121D01*
X390144Y13930121D01*
X390144Y13569950D01*
G37*
G36*
X5373877Y1196086D02*
G01*
X5373877Y1343913D01*
X5497322Y1343913D01*
X5497322Y1196086D01*
G37*
G36*
X5208777Y1196086D02*
G01*
X5208777Y1343913D01*
X5332222Y1343913D01*
X5332222Y1196086D01*
G37*
G36*
X5043677Y1196086D02*
G01*
X5043677Y1343913D01*
X5167122Y1343913D01*
X5167122Y1196086D01*
G37*
G36*
X9307829Y5599937D02*
G01*
X9307829Y5825997D01*
X9592309Y5825997D01*
X9592309Y5599937D01*
G37*
G36*
X9307829Y6041897D02*
G01*
X9307829Y6267957D01*
X9592309Y6267957D01*
X9592309Y6041897D01*
G37*
G36*
X9307829Y2599944D02*
G01*
X9307829Y2826004D01*
X9592309Y2826004D01*
X9592309Y2599944D01*
G37*
G36*
X9307829Y3041904D02*
G01*
X9307829Y3267963D01*
X9592309Y3267963D01*
X9592309Y3041904D01*
G37*
G36*
X9642347Y4754879D02*
G01*
X9642347Y5155184D01*
X9892538Y5155184D01*
X9892538Y4754879D01*
G37*
G36*
X9022334Y4884928D02*
G01*
X9022334Y5025136D01*
X9242552Y5025136D01*
X9242552Y4884928D01*
G37*
G36*
X9022334Y5114797D02*
G01*
X9022334Y5255260D01*
X9242552Y5255260D01*
X9242552Y5114797D01*
G37*
G36*
X9022334Y4654804D02*
G01*
X9022334Y4795265D01*
X9242552Y4795265D01*
X9242552Y4654804D01*
G37*
G36*
X9642347Y1754886D02*
G01*
X9642347Y2155189D01*
X9892538Y2155189D01*
X9892538Y1754886D01*
G37*
G36*
X9022334Y1884934D02*
G01*
X9022334Y2025142D01*
X9242552Y2025142D01*
X9242552Y1884934D01*
G37*
G36*
X9022334Y2114804D02*
G01*
X9022334Y2255265D01*
X9242552Y2255265D01*
X9242552Y2114804D01*
G37*
G36*
X9022334Y1654810D02*
G01*
X9022334Y1795271D01*
X9242552Y1795271D01*
X9242552Y1654810D01*
G37*
G36*
X9307829Y16800068D02*
G01*
X9307829Y17026128D01*
X9592309Y17026128D01*
X9592309Y16800068D01*
G37*
G36*
X9307829Y17242028D02*
G01*
X9307829Y17468087D01*
X9592309Y17468087D01*
X9592309Y17242028D01*
G37*
G36*
X9307829Y14800071D02*
G01*
X9307829Y15026131D01*
X9592309Y15026131D01*
X9592309Y14800071D01*
G37*
G36*
X9307829Y15242031D02*
G01*
X9307829Y15468092D01*
X9592309Y15468092D01*
X9592309Y15242031D01*
G37*
G36*
X9307829Y11800078D02*
G01*
X9307829Y12026137D01*
X9592309Y12026137D01*
X9592309Y11800078D01*
G37*
G36*
X9307829Y12242037D02*
G01*
X9307829Y12468097D01*
X9592309Y12468097D01*
X9592309Y12242037D01*
G37*
G36*
X9307829Y8599931D02*
G01*
X9307829Y8825992D01*
X9592309Y8825992D01*
X9592309Y8599931D01*
G37*
G36*
X9307829Y9041892D02*
G01*
X9307829Y9267952D01*
X9592309Y9267952D01*
X9592309Y9041892D01*
G37*
G36*
X9642347Y15954755D02*
G01*
X9642347Y16355060D01*
X9892538Y16355060D01*
X9892538Y15954755D01*
G37*
G36*
X9022334Y16084804D02*
G01*
X9022334Y16225266D01*
X9242552Y16225266D01*
X9242552Y16084804D01*
G37*
G36*
X9022334Y16314928D02*
G01*
X9022334Y16455136D01*
X9242552Y16455136D01*
X9242552Y16314928D01*
G37*
G36*
X9022334Y15854934D02*
G01*
X9022334Y15995142D01*
X9242552Y15995142D01*
X9242552Y15854934D01*
G37*
G36*
X9642347Y13954760D02*
G01*
X9642347Y14355063D01*
X9892538Y14355063D01*
X9892538Y13954760D01*
G37*
G36*
X9022334Y14084807D02*
G01*
X9022334Y14225270D01*
X9242552Y14225270D01*
X9242552Y14084807D01*
G37*
G36*
X9022334Y14314931D02*
G01*
X9022334Y14455139D01*
X9242552Y14455139D01*
X9242552Y14314931D01*
G37*
G36*
X9022334Y13854937D02*
G01*
X9022334Y13995145D01*
X9242552Y13995145D01*
X9242552Y13854937D01*
G37*
G36*
X9642347Y10954765D02*
G01*
X9642347Y11355070D01*
X9892538Y11355070D01*
X9892538Y10954765D01*
G37*
G36*
X9022334Y11084813D02*
G01*
X9022334Y11225276D01*
X9242552Y11225276D01*
X9242552Y11084813D01*
G37*
G36*
X9022334Y11314937D02*
G01*
X9022334Y11455145D01*
X9242552Y11455145D01*
X9242552Y11314937D01*
G37*
G36*
X9022334Y10854944D02*
G01*
X9022334Y10995152D01*
X9242552Y10995152D01*
X9242552Y10854944D01*
G37*
G36*
X9642347Y7754873D02*
G01*
X9642347Y8155178D01*
X9892538Y8155178D01*
X9892538Y7754873D01*
G37*
G36*
X9022334Y7884921D02*
G01*
X9022334Y8025129D01*
X9242552Y8025129D01*
X9242552Y7884921D01*
G37*
G36*
X9022334Y8114792D02*
G01*
X9022334Y8255254D01*
X9242552Y8255254D01*
X9242552Y8114792D01*
G37*
G36*
X9022334Y7654797D02*
G01*
X9022334Y7795260D01*
X9242552Y7795260D01*
X9242552Y7654797D01*
G37*
D13*
G01*
X1968500Y3162300D03*
G01*
X2222500Y3162300D03*
G01*
X2476500Y3162300D03*
G01*
X2730500Y3162300D03*
G01*
X2984500Y3162300D03*
G36*
X3154679Y3078479D02*
G01*
X3154679Y3246120D01*
X3322320Y3246120D01*
X3322320Y3078479D01*
G37*
D14*
G01*
X11201400Y21319998D03*
G01*
X11201400Y20320000D03*
G01*
X11197793Y19320002D03*
D13*
G01*
X5816600Y17233900D03*
G01*
X5816600Y16979900D03*
G01*
X5562600Y17233900D03*
G01*
X5562600Y16979900D03*
G01*
X5308600Y17233900D03*
G36*
X5224779Y16896079D02*
G01*
X5224779Y17063720D01*
X5392420Y17063720D01*
X5392420Y16896079D01*
G37*
G36*
X7965693Y17179289D02*
G01*
X7965693Y17339310D01*
X8163306Y17339310D01*
X8163306Y17179289D01*
G37*
D15*
G01*
X8318500Y17259300D03*
G01*
X8572500Y17259300D03*
G36*
X7965693Y16925289D02*
G01*
X7965693Y17085310D01*
X8163306Y17085310D01*
X8163306Y16925289D01*
G37*
G01*
X8318500Y17005300D03*
G01*
X8572500Y17005300D03*
G36*
X7965693Y16671289D02*
G01*
X7965693Y16831310D01*
X8163306Y16831310D01*
X8163306Y16671289D01*
G37*
G01*
X8318500Y16751300D03*
G01*
X8572500Y16751300D03*
G36*
X7965693Y16417289D02*
G01*
X7965693Y16577310D01*
X8163306Y16577310D01*
X8163306Y16417289D01*
G37*
G01*
X8318500Y16497300D03*
G01*
X8572500Y16497300D03*
G36*
X7965693Y16163289D02*
G01*
X7965693Y16323310D01*
X8163306Y16323310D01*
X8163306Y16163289D01*
G37*
G01*
X8318500Y16243300D03*
G01*
X8572500Y16243300D03*
G36*
X7965693Y15909289D02*
G01*
X7965693Y16069310D01*
X8163306Y16069310D01*
X8163306Y15909289D01*
G37*
G01*
X8318500Y15989300D03*
G01*
X8572500Y15989300D03*
D16*
G01*
X10350017Y6155004D03*
G01*
X10350017Y4955006D03*
D12*
G01*
X11570004Y6155004D03*
G01*
X11574805Y4958410D03*
D16*
G01*
X10350017Y3154984D03*
G01*
X10350017Y1954987D03*
D12*
G01*
X11570004Y3154984D03*
G01*
X11574805Y1958390D03*
D17*
G01*
X13799997Y17499990D03*
G01*
X13799997Y18007990D03*
G01*
X13799997Y18515990D03*
G01*
X13799997Y19023990D03*
G01*
X13799997Y19531990D03*
G01*
X13799997Y14499996D03*
G01*
X13799997Y15007996D03*
G01*
X13799997Y15515996D03*
G01*
X13799997Y16023996D03*
G01*
X13799997Y16531996D03*
G01*
X13799997Y11500002D03*
G01*
X13799997Y12008002D03*
G01*
X13799997Y12516002D03*
G01*
X13799997Y13024002D03*
G01*
X13799997Y13532002D03*
G01*
X13799997Y8300008D03*
G01*
X13799997Y8808008D03*
G01*
X13799997Y9316008D03*
G01*
X13799997Y9824008D03*
G01*
X13799997Y10332008D03*
G01*
X13799997Y5299989D03*
G01*
X13799997Y5807989D03*
G01*
X13799997Y6315989D03*
G01*
X13799997Y6823989D03*
G01*
X13799997Y7331989D03*
G01*
X13799997Y2299995D03*
G01*
X13799997Y2807995D03*
G01*
X13799997Y3315995D03*
G01*
X13799997Y3823995D03*
G01*
X13799997Y4331995D03*
D13*
G01*
X1699996Y16364991D03*
G01*
X1699996Y16618991D03*
G01*
X1699996Y16872991D03*
G01*
X1699996Y17126991D03*
G01*
X1699996Y17380991D03*
G36*
X1616202Y17551145D02*
G01*
X1616202Y17718786D01*
X1783842Y17718786D01*
X1783842Y17551145D01*
G37*
G01*
X1699996Y15634995D03*
G01*
X1699996Y15380995D03*
G01*
X1699996Y15126995D03*
G01*
X1699996Y14872995D03*
G01*
X1699996Y14618995D03*
G36*
X1616202Y14281150D02*
G01*
X1616202Y14448789D01*
X1783842Y14448789D01*
X1783842Y14281150D01*
G37*
D18*
G01*
X1226997Y18567501D03*
G01*
X972997Y18440501D03*
G01*
X1226997Y18313501D03*
G01*
X972997Y18186501D03*
G01*
X1226997Y18059501D03*
G01*
X972997Y17932501D03*
G01*
X1226997Y17067504D03*
G01*
X972997Y16940504D03*
G01*
X1226997Y16813504D03*
G01*
X972997Y16686504D03*
G01*
X1226997Y16559504D03*
G01*
X972997Y16432504D03*
G01*
X1226997Y15567507D03*
G01*
X972997Y15440507D03*
G01*
X1226997Y15313507D03*
G01*
X972997Y15186507D03*
G01*
X1226997Y15059507D03*
G01*
X972997Y14932507D03*
G01*
X1226997Y14067510D03*
G01*
X972997Y13940510D03*
G01*
X1226997Y13813510D03*
G01*
X972997Y13686510D03*
G01*
X1226997Y13559510D03*
G01*
X972997Y13432510D03*
D19*
G01*
X7663992Y7399477D03*
G01*
X1865172Y7399477D03*
G01*
X1865172Y2499817D03*
G01*
X7663992Y2499817D03*
G36*
X7096252Y2546857D02*
G01*
X7096252Y2706878D01*
X7256272Y2706878D01*
X7256272Y2546857D01*
G37*
G36*
X6842252Y2546857D02*
G01*
X6842252Y2706878D01*
X7002272Y2706878D01*
X7002272Y2546857D01*
G37*
G36*
X6588252Y2546857D02*
G01*
X6588252Y2706878D01*
X6748272Y2706878D01*
X6748272Y2546857D01*
G37*
G36*
X6334252Y2546857D02*
G01*
X6334252Y2706878D01*
X6494272Y2706878D01*
X6494272Y2546857D01*
G37*
G36*
X6080252Y2546857D02*
G01*
X6080252Y2706878D01*
X6240272Y2706878D01*
X6240272Y2546857D01*
G37*
G36*
X5826252Y2546857D02*
G01*
X5826252Y2706878D01*
X5986272Y2706878D01*
X5986272Y2546857D01*
G37*
G36*
X7096252Y2292857D02*
G01*
X7096252Y2452878D01*
X7256272Y2452878D01*
X7256272Y2292857D01*
G37*
G36*
X6842252Y2292857D02*
G01*
X6842252Y2452878D01*
X7002272Y2452878D01*
X7002272Y2292857D01*
G37*
G36*
X6588252Y2292857D02*
G01*
X6588252Y2452878D01*
X6748272Y2452878D01*
X6748272Y2292857D01*
G37*
G36*
X6334252Y2292857D02*
G01*
X6334252Y2452878D01*
X6494272Y2452878D01*
X6494272Y2292857D01*
G37*
G36*
X6080252Y2292857D02*
G01*
X6080252Y2452878D01*
X6240272Y2452878D01*
X6240272Y2292857D01*
G37*
G36*
X5826252Y2292857D02*
G01*
X5826252Y2452878D01*
X5986272Y2452878D01*
X5986272Y2292857D01*
G37*
G36*
X5572252Y2546857D02*
G01*
X5572252Y2706878D01*
X5732272Y2706878D01*
X5732272Y2546857D01*
G37*
G36*
X5572252Y2292857D02*
G01*
X5572252Y2452878D01*
X5732272Y2452878D01*
X5732272Y2292857D01*
G37*
G36*
X5318252Y2546857D02*
G01*
X5318252Y2706878D01*
X5478272Y2706878D01*
X5478272Y2546857D01*
G37*
G36*
X5064252Y2546857D02*
G01*
X5064252Y2706878D01*
X5224272Y2706878D01*
X5224272Y2546857D01*
G37*
G36*
X4810252Y2546857D02*
G01*
X4810252Y2706878D01*
X4970272Y2706878D01*
X4970272Y2546857D01*
G37*
G36*
X4556252Y2546857D02*
G01*
X4556252Y2706878D01*
X4716272Y2706878D01*
X4716272Y2546857D01*
G37*
G36*
X4302252Y2546857D02*
G01*
X4302252Y2706878D01*
X4462272Y2706878D01*
X4462272Y2546857D01*
G37*
G36*
X4048252Y2546857D02*
G01*
X4048252Y2706878D01*
X4208272Y2706878D01*
X4208272Y2546857D01*
G37*
G36*
X5318252Y2292857D02*
G01*
X5318252Y2452878D01*
X5478272Y2452878D01*
X5478272Y2292857D01*
G37*
G36*
X5064252Y2292857D02*
G01*
X5064252Y2452878D01*
X5224272Y2452878D01*
X5224272Y2292857D01*
G37*
G36*
X4810252Y2292857D02*
G01*
X4810252Y2452878D01*
X4970272Y2452878D01*
X4970272Y2292857D01*
G37*
G36*
X4556252Y2292857D02*
G01*
X4556252Y2452878D01*
X4716272Y2452878D01*
X4716272Y2292857D01*
G37*
G36*
X4302252Y2292857D02*
G01*
X4302252Y2452878D01*
X4462272Y2452878D01*
X4462272Y2292857D01*
G37*
G36*
X4048252Y2292857D02*
G01*
X4048252Y2452878D01*
X4208272Y2452878D01*
X4208272Y2292857D01*
G37*
G36*
X3794252Y2546857D02*
G01*
X3794252Y2706878D01*
X3954272Y2706878D01*
X3954272Y2546857D01*
G37*
G36*
X3794252Y2292857D02*
G01*
X3794252Y2452878D01*
X3954272Y2452878D01*
X3954272Y2292857D01*
G37*
G36*
X3540252Y2546857D02*
G01*
X3540252Y2706878D01*
X3700272Y2706878D01*
X3700272Y2546857D01*
G37*
G36*
X3286252Y2546857D02*
G01*
X3286252Y2706878D01*
X3446272Y2706878D01*
X3446272Y2546857D01*
G37*
G36*
X3032252Y2546857D02*
G01*
X3032252Y2706878D01*
X3192272Y2706878D01*
X3192272Y2546857D01*
G37*
G36*
X2778252Y2546857D02*
G01*
X2778252Y2706878D01*
X2938272Y2706878D01*
X2938272Y2546857D01*
G37*
G36*
X2524252Y2546857D02*
G01*
X2524252Y2706878D01*
X2684272Y2706878D01*
X2684272Y2546857D01*
G37*
G36*
X2270252Y2546857D02*
G01*
X2270252Y2706878D01*
X2430272Y2706878D01*
X2430272Y2546857D01*
G37*
G36*
X3540252Y2292857D02*
G01*
X3540252Y2452878D01*
X3700272Y2452878D01*
X3700272Y2292857D01*
G37*
G36*
X3286252Y2292857D02*
G01*
X3286252Y2452878D01*
X3446272Y2452878D01*
X3446272Y2292857D01*
G37*
G36*
X3032252Y2292857D02*
G01*
X3032252Y2452878D01*
X3192272Y2452878D01*
X3192272Y2292857D01*
G37*
G36*
X2778252Y2292857D02*
G01*
X2778252Y2452878D01*
X2938272Y2452878D01*
X2938272Y2292857D01*
G37*
G36*
X2524252Y2292857D02*
G01*
X2524252Y2452878D01*
X2684272Y2452878D01*
X2684272Y2292857D01*
G37*
G36*
X2270252Y2292857D02*
G01*
X2270252Y2452878D01*
X2430272Y2452878D01*
X2430272Y2292857D01*
G37*
G36*
X6129020Y12936220D02*
G01*
X6129020Y13149579D01*
X6342379Y13149579D01*
X6342379Y12936220D01*
G37*
D20*
G01*
X5885179Y13042900D03*
G01*
X5534659Y13042900D03*
G01*
X5186679Y13042900D03*
G01*
X4836159Y13042900D03*
G01*
X4485640Y13042900D03*
G01*
X4135120Y13042900D03*
G01*
X3784600Y13042900D03*
G36*
X2964179Y1287779D02*
G01*
X2964179Y1455420D01*
X3131820Y1455420D01*
X3131820Y1287779D01*
G37*
D13*
G01*
X2794000Y1371600D03*
G01*
X2540000Y1371600D03*
G01*
X2286000Y1371600D03*
G36*
X6647179Y1338579D02*
G01*
X6647179Y1506220D01*
X6814820Y1506220D01*
X6814820Y1338579D01*
G37*
G01*
X6477000Y1422400D03*
G01*
X6223000Y1422400D03*
G01*
X5969000Y1422400D03*
G36*
X2964179Y576579D02*
G01*
X2964179Y744220D01*
X3131820Y744220D01*
X3131820Y576579D01*
G37*
G01*
X2794000Y660400D03*
G01*
X2540000Y660400D03*
G01*
X2286000Y660400D03*
G36*
X5186679Y906779D02*
G01*
X5186679Y1074420D01*
X5354320Y1074420D01*
X5354320Y906779D01*
G37*
G01*
X5016500Y990600D03*
G01*
X4762500Y990600D03*
G01*
X4508500Y990600D03*
G01*
X4254500Y990600D03*
G01*
X4000500Y990600D03*
G01*
X3746500Y990600D03*
G01*
X3492500Y990600D03*
D16*
G01*
X10350017Y17354981D03*
G01*
X10350017Y16154984D03*
D12*
G01*
X11570004Y17354981D03*
G01*
X11574805Y16158387D03*
D16*
G01*
X10350017Y15354985D03*
G01*
X10350017Y14154988D03*
D12*
G01*
X11570004Y15354985D03*
G01*
X11574805Y14158391D03*
D16*
G01*
X10350017Y12354991D03*
G01*
X10350017Y11154994D03*
D12*
G01*
X11570004Y12354991D03*
G01*
X11574805Y11158397D03*
D16*
G01*
X10350017Y9154998D03*
G01*
X10350017Y7955000D03*
D12*
G01*
X11570004Y9154998D03*
G01*
X11574805Y7958404D03*
G36*
X2624581Y14270481D02*
G01*
X2624581Y14431518D01*
X2785618Y14431518D01*
X2785618Y14270481D01*
G37*
D21*
G01*
X2959100Y14351000D03*
G01*
X3213100Y14351000D03*
G01*
X3467100Y14351000D03*
G01*
X3721100Y14351000D03*
G01*
X3975100Y14351000D03*
G01*
X4229100Y14351000D03*
G01*
X4483100Y14351000D03*
G01*
X4737100Y14351000D03*
G01*
X4991100Y14351000D03*
G01*
X5245100Y14351000D03*
G01*
X5499100Y14351000D03*
G01*
X2705100Y15875000D03*
G01*
X2959100Y15875000D03*
G01*
X3213100Y15875000D03*
G01*
X3467100Y15875000D03*
G01*
X3721100Y15875000D03*
G01*
X3975100Y15875000D03*
G01*
X4483100Y15875000D03*
G01*
X4737100Y15875000D03*
G01*
X5245100Y15875000D03*
G01*
X5499100Y15875000D03*
G01*
X4991100Y15875000D03*
G01*
X4229100Y15875000D03*
G01*
X5753100Y14351000D03*
G01*
X6007100Y14351000D03*
G01*
X6261100Y14351000D03*
G01*
X5753100Y15875000D03*
G01*
X6007100Y15875000D03*
G01*
X6261100Y15875000D03*
D22*
G01*
X2843199Y18282488D03*
G01*
X2843199Y19182486D03*
G01*
X8993200Y18282488D03*
G01*
X8993200Y18832474D03*
D19*
G01*
X7663992Y4799990D03*
G01*
X1865172Y4799990D03*
M02*
